<svg width="95" height="100" viewBox="0 0 95 100" fill="none" xmlns="http://www.w3.org/2000/svg">
<mask id="mask0" mask-type="alpha" maskUnits="userSpaceOnUse" x="24" y="16" width="47" height="70">
<path d="M70.0703 72.52C70.0703 77.4267 68.337 81.6133 64.8703 85.08H62.4703C65.937 81.6133 67.6703 77.4267 67.6703 72.52C67.6703 67.72 65.937 63.5067 62.4703 59.88C64.817 55.08 65.9903 50.04 65.9903 44.76C65.9903 41.88 65.617 39.0533 64.8703 36.28C64.177 33.5067 63.1636 30.8933 61.8303 28.44C60.497 25.9333 58.8436 23.64 56.8703 21.56C54.9503 19.4267 52.7636 17.5867 50.3103 16.04H52.7903C55.2436 17.5867 57.4303 19.4267 59.3503 21.56C61.3236 23.64 62.977 25.9333 64.3103 28.44C65.6436 30.8933 66.657 33.5067 67.3503 36.28C68.097 39.0533 68.4703 41.88 68.4703 44.76C68.4703 47.4267 68.1503 50.0133 67.5103 52.52C66.9236 55.0267 66.0436 57.48 64.8703 59.88C68.337 63.5067 70.0703 67.72 70.0703 72.52ZM62.1503 72.52C62.1503 74.2267 61.8303 75.8533 61.1903 77.4C60.5503 78.8933 59.6703 80.2 58.5503 81.32C57.4303 82.44 56.097 83.3467 54.5503 84.04C53.057 84.68 51.457 85 49.7503 85H24.9503V16.04H31.9103C35.9103 16.04 39.6436 16.7867 43.1103 18.28C46.577 19.7733 49.617 21.8267 52.2303 24.44C54.8436 27.0533 56.897 30.0933 58.3903 33.56C59.8836 37.0267 60.6303 40.76 60.6303 44.76C60.6303 50.84 58.8436 56.36 55.2703 61.32C59.857 63.6667 62.1503 67.4 62.1503 72.52ZM54.4703 44.76C54.4703 41.4 53.857 38.3333 52.6303 35.56C51.4036 32.7867 49.7236 30.4133 47.5903 28.44C45.5103 26.4133 43.0303 24.84 40.1503 23.72C37.2703 22.6 34.177 22.04 30.8703 22.04V67.32H31.9103C35.0036 67.32 37.9103 66.7333 40.6303 65.56C43.4036 64.3867 45.8036 62.7867 47.8303 60.76C49.9103 58.68 51.537 56.28 52.7103 53.56C53.8836 50.84 54.4703 47.9067 54.4703 44.76ZM56.1503 72.52C56.1503 70.9733 55.6436 69.6133 54.6303 68.44C53.6703 67.2133 52.417 66.4667 50.8703 66.2C45.4303 71 39.1103 73.4 31.9103 73.4C31.7503 73.4 31.5636 73.4 31.3503 73.4C31.1903 73.4 31.0303 73.3733 30.8703 73.32V79H49.7503C51.5103 79 53.0036 78.36 54.2303 77.08C55.5103 75.8 56.1503 74.28 56.1503 72.52ZM38.7903 60.44C37.9903 60.7067 37.2436 61 36.5503 61.32V28.2C37.297 28.4133 38.017 28.6267 38.7103 28.84C39.457 29 40.2036 29.2133 40.9503 29.48L38.7903 60.44Z" fill="#E01414"/>
</mask>
<g mask="url(#mask0)">
<path d="M19.2152 119.663C39.241 135.04 54.8813 103.952 67.5221 111.303C97.8071 128.915 89.4495 102.239 92.5127 93.1132C93.9462 85.3621 93.2113 64.8717 78.8044 44.919C60.7958 19.9781 45.3718 9.2891 25.4689 7.22635C5.566 5.1636 5.81197 31.7923 -20.8984 35.3553C-47.6088 38.9184 -27.709 68.1291 -26.4722 80.5491C-24.1752 103.615 5.65593 106.27 19.2152 119.663Z" fill="#8B9BE2"/>
<path d="M18.537 13.684C24.5301 5.26735 38.854 -10.6981 48.2053 -7.22692C59.8944 -2.88794 51.1039 17.9941 63.8773 30.7631C76.6506 43.5322 31.7572 61.0567 25.027 58.5086C18.2967 55.9606 2.76276 69.3611 -20.2172 77.1973C-43.1972 85.0335 -22.4221 46.7701 -22.0758 43.9614C-14.3796 10.9492 13.4802 28.1458 18.537 13.684Z" fill="#9FABDE"/>
<path d="M-6.63238 49.6177C-2.39634 55.7332 22.3197 37.5904 26.0688 41.2555C35.0509 50.0363 41.7741 31.7328 47.6619 31.717C52.0059 31.4212 80.4686 40.887 81.4795 35.7507C82.7431 29.3303 78.9534 24.7158 68.7086 19.7334C58.4637 14.751 53.5189 27.9991 36.8797 21.8372C20.2405 15.6754 30.5228 30.7393 2.27964 24.5566C-4.5651 23.0583 -8.13959 45.2299 -6.63238 49.6177Z" fill="#A8A4D0"/>
<path d="M24.6091 19.239C34.9349 7.69603 50.4307 -6.05297 48.4749 7.78923C46.5563 11.2992 45.4842 17.9012 56.5449 16.229C70.3706 14.1387 102.862 22.9144 55.9571 36.7487C47.5211 39.2368 39.544 47.712 21.8569 59.2093C-6.15704 77.4195 -42.5903 98.3902 -22.7546 78.5562C9.60452 46.1997 -14.042 56.6001 -25.5248 58.6582C-37.0077 60.7162 9.05644 37.7279 24.6091 19.239Z" fill="#9BB8E8"/>
<path d="M0.260941 34.7318C-5.26096 14.9468 -7.16755 -8.92228 14.6893 13.8161C18.1529 19.7167 28.3741 30.5749 41.5495 26.8026C58.0188 22.0872 121.162 33.3077 77.3276 60.2909C69.4439 65.144 72.9203 79.7082 67.6049 100.116C59.186 132.44 43.3942 170.058 36.9641 135.864C26.4743 80.0802 10.493 99.2656 -2.61053 103.706C-15.7141 108.147 10.5476 66.3291 0.260941 34.7318Z" fill="#A8A4D0"/>
<path d="M46.035 57.4347C63.7568 54.3677 86.6712 53.3788 71.309 65.747C66.61 67.6976 59.2044 73.4805 67.1744 81.008C77.137 90.4174 86.4511 126.372 45.7072 101.269C38.3793 96.7544 25.144 98.6767 3.31108 95.5622C-31.2693 90.6293 -73.4488 81.471 -41.8154 77.9454C9.79006 72.1939 -14.2793 63.0033 -22.8853 55.5141C-31.4912 48.0248 18.2063 63.1698 46.035 57.4347Z" fill="#8B9BE2"/>
<path d="M11.732 61.8467C12.6398 57.5754 17.7875 49.8749 31.1165 53.2424C47.7778 57.4519 52.571 68.8747 76.5371 78.3248C100.503 87.775 61.0424 92.265 51.4136 89.8113C41.7849 87.3575 33.3944 93.344 12.3815 94.957C-8.63139 96.5701 -12.0041 76.2734 -13.6178 74.6235C-28.382 55.723 16.2466 69.8976 11.732 61.8467Z" fill="#9FABDE"/>
</g>
</svg>
