<svg width="95" height="100" viewBox="0 0 95 100" fill="none" xmlns="http://www.w3.org/2000/svg">
<mask id="mask0" mask-type="alpha" maskUnits="userSpaceOnUse" x="16" y="15" width="63" height="71">
<path d="M72.1966 30.52C71.7166 30.1467 71.1299 29.8 70.4366 29.48L75.3966 22.04L77.0766 23.24L72.1966 30.52ZM76.9166 81.32L70.4366 71.56C71.1299 71.24 71.7166 70.8933 72.1966 70.52L78.6766 80.2L76.9166 81.32ZM71.2366 80.12C68.3032 82.0933 65.2099 83.56 61.9566 84.52C58.7032 85.48 55.3166 85.96 51.7966 85.96C46.8899 85.96 42.2766 85.0533 37.9566 83.24C33.6899 81.3733 29.9566 78.84 26.7566 75.64C23.5566 72.44 21.0232 68.7067 19.1566 64.44C17.2899 60.12 16.3566 55.5067 16.3566 50.6C16.3566 45.6933 17.2632 41.08 19.0766 36.76C20.9432 32.44 23.4766 28.68 26.6766 25.48C29.8766 22.28 33.6366 19.7467 37.9566 17.88C42.2766 16.0133 46.8899 15.08 51.7966 15.08C58.8366 15.08 65.3166 17.0267 71.2366 20.92L67.9566 26.04C63.1566 22.84 57.7699 21.24 51.7966 21.24C47.6899 21.24 43.8499 22.0133 40.2766 23.56C36.7566 25.0533 33.6632 27.1333 30.9966 29.8C28.3299 32.4667 26.2232 35.5867 24.6766 39.16C23.1832 42.7333 22.4366 46.5467 22.4366 50.6C22.4366 54.6533 23.2099 58.4667 24.7566 62.04C26.3032 65.6133 28.3832 68.7333 30.9966 71.4C33.6632 74.0133 36.7832 76.0933 40.3566 77.64C43.9299 79.1333 47.7432 79.88 51.7966 79.88C57.6632 79.88 63.0499 78.28 67.9566 75.08L71.2366 80.12ZM54.8366 27.8C51.6366 27.96 48.6499 28.7067 45.8766 30.04C43.1032 31.3733 40.7032 33.1067 38.6766 35.24C36.6499 37.3733 35.0499 39.88 33.8766 42.76C32.7032 45.5867 32.1166 48.6 32.1166 51.8C32.1166 54.8933 32.6232 57.7733 33.6366 60.44C34.6499 63.1067 36.0632 65.4533 37.8766 67.48C39.7432 69.5067 41.9566 71.1333 44.5166 72.36C47.0766 73.5867 49.9299 74.28 53.0766 74.44H51.7966C48.4899 74.44 45.3699 73.8267 42.4366 72.6C39.5566 71.32 37.0232 69.6133 34.8366 67.48C32.7032 65.2933 30.9966 62.76 29.7166 59.88C28.4899 57 27.8766 53.9067 27.8766 50.6C27.8766 47.2933 28.4899 44.1733 29.7166 41.24C30.9966 38.3067 32.7032 35.7733 34.8366 33.64C37.0232 31.4533 39.5566 29.7467 42.4366 28.52C45.3699 27.24 48.4899 26.6 51.7966 26.6C51.9566 26.6 52.1699 26.6533 52.4366 26.76C52.7566 26.8667 53.0766 27 53.3966 27.16C53.7166 27.2667 54.0099 27.4 54.2766 27.56C54.5432 27.6667 54.7299 27.7467 54.8366 27.8Z" fill="#E01414"/>
</mask>
<g mask="url(#mask0)">
<path d="M-7.92544 43.0343C-24.6022 61.9915 5.3753 79.6677 -2.80131 91.7908C-22.391 120.836 4.7819 114.273 13.6839 117.937C21.3223 119.884 41.8161 120.516 62.6841 107.47C88.7691 91.1621 100.462 76.4842 103.845 56.7629C107.229 37.0416 80.6432 35.5135 78.8671 8.62508C77.091 -18.2633 46.6198 -0.353286 34.145 0.0535756C10.9775 0.809176 6.34083 30.3972 -7.92544 43.0343Z" fill="#8B9BE2"/>
<path d="M97.8638 49.4165C105.863 55.9568 120.838 71.3123 116.752 80.4116C111.644 91.7858 91.3941 81.6241 77.8027 93.5186C64.2112 105.413 49.7157 59.4521 52.7064 52.9066C55.697 46.361 43.3609 29.969 37.0727 6.51807C30.7844 -16.9328 67.5792 6.34465 70.3586 6.87726C102.785 16.7552 83.7708 43.4078 97.8638 49.4165Z" fill="#9FABDE"/>
<path d="M63.6863 21.9095C57.3022 25.7288 73.7585 51.5984 69.8519 55.095C60.4923 63.4724 78.3074 71.3997 77.931 77.2755C77.9368 81.6296 66.5963 109.399 71.6539 110.749C77.9759 112.438 82.8325 108.964 88.4862 99.0736C94.1399 89.1834 81.2505 83.3671 88.507 67.1753C95.7634 50.9834 80.0481 60.2395 88.0981 32.4709C90.049 25.7412 68.1647 20.6979 63.6863 21.9095Z" fill="#A8A4D0"/>
<path d="M91.9167 55.1049C102.746 66.1765 115.433 82.5537 101.751 79.6803C98.377 77.5322 91.8611 76.0228 92.7929 87.1702C93.9577 101.104 83.0375 132.939 72.358 85.2171C70.4372 76.634 62.5122 68.1102 52.2185 49.6967C35.9146 20.532 17.417 -17.2171 35.8858 3.89555C66.0153 38.3379 57.2128 14.0512 55.9242 2.45679C54.6355 -9.13763 74.5047 38.3553 91.9167 55.1049Z" fill="#9BB8E8"/>
<path d="M78.0799 29.7791C98.1887 25.5873 122.132 25.2747 97.9882 45.5685C91.87 48.6315 80.3551 58.1067 83.2415 71.5042C86.8494 88.251 71.4484 150.506 47.4446 104.972C43.1273 96.7829 28.3639 99.2815 8.35534 92.6187C-23.3356 82.0656 -59.8191 63.8033 -25.2723 59.665C31.0863 52.9139 13.0079 35.6903 9.44963 22.32C5.89138 8.9498 45.8676 37.9384 78.0799 29.7791Z" fill="#A8A4D0"/>
<path d="M52.3789 73.9395C54.2587 91.8262 53.7193 114.756 42.4017 98.6037C40.7685 93.7852 35.4916 86.0109 27.45 93.4619C17.398 102.776 -19.0973 109.674 8.66352 70.6929C13.6564 63.6819 12.62 50.3479 17.1817 28.771C24.4068 -5.4041 36.3541 -46.8799 37.765 -15.082C40.0666 36.792 50.8399 13.3882 58.8857 5.30015C66.9315 -2.78788 48.5101 45.7906 52.3789 73.9395Z" fill="#8B9BE2"/>
<path d="M50.2613 39.4188C54.4626 40.609 61.8032 46.2582 57.5554 59.3333C52.2456 75.6772 40.5289 79.699 29.5035 102.982C18.4781 126.266 16.6263 86.5937 19.7159 77.1497C22.8055 67.7058 17.3912 58.9352 17.1813 37.8616C16.9713 16.7879 37.4475 14.7746 39.2013 13.2743C59.0432 -0.198277 41.9276 43.3872 50.2613 39.4188Z" fill="#9FABDE"/>
</g>
</svg>
