<svg width="95" height="100" viewBox="0 0 95 100" fill="none" xmlns="http://www.w3.org/2000/svg">
<mask id="mask0" mask-type="alpha" maskUnits="userSpaceOnUse" x="28" y="16" width="39" height="70">
<path d="M49.0184 29L40.2984 53.08V27.4H61.4984V16.04H63.8984V29H49.0184ZM28.7784 85V16.04H56.4584V22.04H34.9384V58.6H56.6184V64.6H34.9384V79H58.8584V85H28.7784ZM42.7784 70.12V73.48H40.2984V68.52H61.4984V53.08H63.8984V70.12H42.7784ZM63.7384 85.08V73.48H66.2184V85.08H63.7384Z" fill="#E01414"/>
</mask>
<g mask="url(#mask0)">
<path d="M-10.9259 38.0343C-27.6027 56.9915 2.37481 74.6677 -5.80179 86.7908C-25.3915 115.836 1.78142 109.273 10.6834 112.937C18.3218 114.884 38.8156 115.516 59.6836 102.47C85.7686 86.1621 97.4611 71.4842 100.845 51.7629C104.229 32.0416 77.6427 30.5135 75.8666 3.62508C74.0905 -23.2633 43.6193 -5.35329 31.1445 -4.94642C7.97702 -4.19082 3.34034 25.3972 -10.9259 38.0343Z" fill="#8B9BE2"/>
<path d="M94.8633 44.4165C102.862 50.9568 117.838 66.3123 113.752 75.4116C108.644 86.7858 88.3936 76.6241 74.8022 88.5186C61.2107 100.413 46.7152 54.4521 49.7059 47.9066C52.6965 41.361 40.3604 24.969 34.0722 1.51807C27.784 -21.9328 64.5787 1.34465 67.3581 1.87726C99.7844 11.7552 80.7703 38.4078 94.8633 44.4165Z" fill="#9FABDE"/>
<path d="M60.6858 16.9095C54.3017 20.7288 70.758 46.5984 66.8514 50.095C57.4918 58.4724 75.3069 66.3997 74.9305 72.2755C74.9363 76.6296 63.5958 104.399 68.6534 105.749C74.9754 107.438 79.832 103.964 85.4857 94.0736C91.1394 84.1834 78.2501 78.3671 85.5065 62.1753C92.7629 45.9834 77.0476 55.2395 85.0976 27.4709C87.0485 20.7412 65.1642 15.6979 60.6858 16.9095Z" fill="#A8A4D0"/>
<path d="M88.9163 50.1049C99.7458 61.1765 112.432 77.5537 98.751 74.6803C95.3765 72.5322 88.8606 71.0228 89.7924 82.1702C90.9572 96.1045 80.037 127.939 69.3575 80.2171C67.4368 71.634 59.5117 63.1102 49.218 44.6967C32.9141 15.532 14.4165 -22.2171 32.8853 -1.10445C63.0148 33.3379 54.2123 9.05122 52.9237 -2.54321C51.635 -14.1376 71.5042 33.3553 88.9163 50.1049Z" fill="#9BB8E8"/>
<path d="M75.0794 24.7791C95.1882 20.5873 119.131 20.2747 94.9877 40.5685C88.8695 43.6315 77.3547 53.1067 80.241 66.5042C83.849 83.251 68.4479 145.506 44.4441 99.9724C40.1269 91.7829 25.3634 94.2815 5.35485 87.6187C-26.3361 77.0656 -62.8196 58.8033 -28.2727 54.665C28.0858 47.9139 10.0074 30.6903 6.44914 17.32C2.89089 3.9498 42.8671 32.9384 75.0794 24.7791Z" fill="#A8A4D0"/>
<path d="M49.3784 68.9395C51.2583 86.8262 50.7188 109.756 39.4012 93.6037C37.768 88.7852 32.4911 81.0109 24.4495 88.4619C14.3975 97.7757 -22.0977 104.674 5.66303 65.6929C10.6559 58.6819 9.61951 45.3479 14.1812 23.771C21.4064 -10.4041 33.3536 -51.8799 34.7645 -20.082C37.0661 31.792 47.8394 8.38818 55.8852 0.300152C63.931 -7.78788 45.5096 40.7906 49.3784 68.9395Z" fill="#8B9BE2"/>
<path d="M47.2608 34.4188C51.4621 35.609 58.8027 41.2582 54.5549 54.3333C49.2451 70.6772 37.5284 74.699 26.503 97.9825C15.4776 121.266 13.6258 81.5937 16.7154 72.1497C19.805 62.7058 14.3907 53.9352 14.1808 32.8616C13.9708 11.7879 34.4471 9.77455 36.2008 8.27433C56.0427 -5.19828 38.9271 38.3872 47.2608 34.4188Z" fill="#9FABDE"/>
</g>
</svg>
