<svg width="95" height="100" viewBox="0 0 95 100" fill="none" xmlns="http://www.w3.org/2000/svg">
<mask id="mask0" mask-type="alpha" maskUnits="userSpaceOnUse" x="29" y="16" width="37" height="69">
<path d="M49.8703 29L41.1503 53.08V27.4H62.3503V16.04H64.8303V29H49.8703ZM35.9503 64.6V85H29.9503V16.04H57.4703V22.04H35.9503V58.6H57.7103V64.6H35.9503ZM43.8703 70.12V85H41.4703V68.52H62.5903V53.08H65.0703V70.12H43.8703Z" fill="#E01414"/>
</mask>
<g mask="url(#mask0)">
<path d="M12.7259 35.0713C1.24301 49.3136 23.0845 63.6494 17.5201 72.815C4.18864 94.7742 23.4629 90.3403 29.9121 93.3745C35.4181 95.0538 50.0841 96.0164 64.7004 86.433C82.9709 74.4537 90.9896 63.3982 92.9514 48.2579C94.9131 33.1177 75.8708 31.3218 73.9774 10.5311C72.084 -10.2596 50.7149 2.85461 41.8059 2.87924C25.2606 2.92498 22.632 25.6502 12.7259 35.0713Z" fill="#8B9BE2"/>
<path d="M88.5046 42.45C94.3748 47.6827 105.438 59.8797 102.727 66.8067C99.3393 75.4656 84.6263 67.1542 75.1854 76.0178C65.7445 84.8815 54.3154 49.0777 56.3017 44.0959C58.2879 39.1141 49.0884 26.1784 44.0489 7.93573C39.0094 -10.3069 65.8546 8.50947 67.854 8.98495C91.2652 17.3597 78.2899 37.4862 88.5046 42.45Z" fill="#9FABDE"/>
<path d="M63.4324 20.4304C58.9569 23.2297 71.3218 43.5746 68.61 46.1824C62.113 52.43 75.0332 58.9607 74.9004 63.4862C75.0056 66.8463 67.542 88.0124 71.1891 89.172C75.748 90.6216 79.1396 88.0535 82.9521 80.5524C86.7646 73.0513 77.4149 68.264 82.2271 55.9373C87.0393 43.6105 76.0188 50.3888 81.1299 29.1468C82.3685 23.9987 66.606 19.5993 63.4324 20.4304Z" fill="#A8A4D0"/>
<path d="M84.3849 46.7019C92.384 55.497 101.834 68.4294 91.9859 65.8946C89.5237 64.1587 84.8303 62.8428 85.755 71.4667C86.911 82.2467 79.8423 106.56 71.1004 69.4856C69.5282 62.8176 63.6647 56.056 55.8784 41.6077C43.546 18.7235 29.4462 -10.8361 43.1396 5.88463C65.4786 33.1623 58.6222 14.2163 57.432 5.23912C56.2418 -3.73806 71.5482 33.3726 84.3849 46.7019Z" fill="#9BB8E8"/>
<path d="M73.9052 26.8373C88.1842 24.0689 105.294 24.383 88.5043 39.4836C84.2013 41.7053 76.1889 48.7502 78.5631 59.1558C81.5309 72.1628 71.9644 119.847 53.7475 84.1526C50.4711 77.7327 39.9744 79.3185 25.5153 73.7128C2.61407 64.834 -23.8922 49.895 0.709998 47.5028C40.8452 43.6002 27.5211 29.8896 24.6672 19.4894C21.8132 9.08919 51.0653 32.3866 73.9052 26.8373Z" fill="#A8A4D0"/>
<path d="M56.5553 60.3192C58.3141 74.1658 58.4602 91.8477 49.9944 79.1209C48.7151 75.3646 44.7622 69.2429 39.1859 74.8062C32.2156 81.7604 6.28444 86.2375 25.227 56.7999C28.6339 51.5054 27.5837 41.1917 30.3445 24.6467C34.7172 -1.55824 42.2966 -33.2876 44.0427 -8.71675C46.8914 31.3673 54.0506 13.5567 59.6151 7.50182C65.1796 1.44699 53.1365 38.5073 56.5553 60.3192Z" fill="#8B9BE2"/>
<path d="M54.2407 33.6309C57.2719 34.6468 62.6509 39.1764 59.9173 49.1678C56.5003 61.6571 48.2171 64.4889 40.8748 82.2008C33.5326 99.9127 31.2885 69.2551 33.2783 62.0389C35.2681 54.8228 31.1939 47.9291 30.555 31.6619C29.9162 15.3947 44.5083 14.3159 45.7273 13.1989C59.6002 3.26241 48.3748 36.4999 54.2407 33.6309Z" fill="#9FABDE"/>
</g>
</svg>
