<svg width="95" height="100" viewBox="0 0 95 100" fill="none" xmlns="http://www.w3.org/2000/svg">
<mask id="mask0" mask-type="alpha" maskUnits="userSpaceOnUse" x="15" y="15" width="65" height="71">
<path d="M71.2591 30.52L69.5791 29.48L74.8591 21.4L76.6191 22.52L71.2591 30.52ZM79.5791 82.12C78.8324 82.6533 78.0591 83.16 77.2591 83.64C76.4591 84.12 75.6591 84.6 74.8591 85.08H72.3791C73.1791 84.6533 73.9791 84.2 74.7791 83.72C75.5791 83.1867 76.3524 82.6533 77.0991 82.12V54.6H79.5791V82.12ZM71.6591 79.24C68.5124 81.2667 65.1791 82.8933 61.6591 84.12C58.1924 85.3467 54.5657 85.96 50.7791 85.96C45.8724 85.96 41.2591 85.0533 36.9391 83.24C32.6724 81.3733 28.9391 78.84 25.7391 75.64C22.5391 72.44 20.0057 68.7067 18.1391 64.44C16.3257 60.12 15.4191 55.5067 15.4191 50.6C15.4191 45.6933 16.3257 41.08 18.1391 36.76C20.0057 32.44 22.5391 28.68 25.7391 25.48C28.9391 22.28 32.6724 19.7467 36.9391 17.88C41.2591 16.0133 45.8724 15.08 50.7791 15.08C57.8724 15.08 64.3791 17.0267 70.2991 20.92L66.9391 26.04C62.1391 22.84 56.7524 21.24 50.7791 21.24C46.7257 21.24 42.9124 22.0133 39.3391 23.56C35.7657 25.1067 32.6457 27.2133 29.9791 29.88C27.3657 32.4933 25.2857 35.5867 23.7391 39.16C22.1924 42.7333 21.4191 46.5467 21.4191 50.6C21.4191 54.6533 22.1924 58.4667 23.7391 62.04C25.2857 65.6133 27.3657 68.7333 29.9791 71.4C32.6457 74.0133 35.7657 76.0933 39.3391 77.64C42.9124 79.1333 46.7257 79.88 50.7791 79.88C56.0591 79.88 61.0191 78.5733 65.6591 75.96V66.12H50.2991V60.04H71.6591V79.24ZM53.8191 27.8C50.6191 27.96 47.6324 28.7067 44.8591 30.04C42.1391 31.3733 39.7657 33.1333 37.7391 35.32C35.7124 37.4533 34.1124 39.9333 32.9391 42.76C31.7657 45.5867 31.1791 48.6 31.1791 51.8C31.1791 54.8933 31.6857 57.8 32.6991 60.52C33.7124 63.1867 35.1257 65.5333 36.9391 67.56C38.8057 69.5333 41.0191 71.1333 43.5791 72.36C46.1391 73.5867 48.9924 74.28 52.1391 74.44H50.7791C47.4724 74.44 44.3791 73.8267 41.4991 72.6C38.6191 71.32 36.0857 69.6133 33.8991 67.48C31.7657 65.2933 30.0591 62.76 28.7791 59.88C27.5524 57 26.9391 53.9067 26.9391 50.6C26.9391 47.2933 27.5524 44.1733 28.7791 41.24C30.0057 38.3067 31.6857 35.7733 33.8191 33.64C36.0057 31.4533 38.5391 29.7467 41.4191 28.52C44.3524 27.24 47.4724 26.6 50.7791 26.6C50.9391 26.6 51.1524 26.6533 51.4191 26.76C51.7391 26.8667 52.0591 27 52.3791 27.16C52.6991 27.2667 52.9924 27.4 53.2591 27.56C53.5257 27.6667 53.7124 27.7467 53.8191 27.8Z" fill="#E01414"/>
</mask>
<g mask="url(#mask0)">
<path d="M-66.8564 59.7024C-114.78 89.6199 -53.4233 95.7092 -78.2746 113.649C-137.814 156.631 -71.3806 136.025 -52.4014 136C-35.5427 134.593 11.8884 125.508 66.7422 100.421C135.309 69.0623 169.574 46.4825 186.901 22.0482C204.229 -2.38616 143.037 8.5801 151.779 -21.6737C160.521 -51.9274 80.9702 -16.6141 51.7194 -10.1684C-2.60346 1.80237 -27.575 38.2506 -66.8564 59.7024Z" fill="#8B9BE2"/>
<path d="M176.488 16.4151C191.985 20.1497 219.512 30.7398 205.636 43.2231C188.291 58.8273 145.992 56.7715 108.638 77.041C71.2841 97.3106 59.5359 51.086 69.6368 42.0816C79.7376 33.0773 58.8562 20.0237 55.4422 -4.09237C52.0282 -28.2084 126.58 -18.9048 132.799 -19.62C203.594 -23.7246 146.541 16.2143 176.488 16.4151Z" fill="#9FABDE"/>
<path d="M110.058 0.965108C93.3588 8.4411 119.297 30.4848 108.523 36.4009C82.7108 50.5748 120.408 51.2122 116.717 58.1896C114.645 63.2236 74.9304 100.779 86.0634 99.9187C99.9797 98.8438 112.956 92.4989 130.861 78.3499C148.767 64.2009 121.531 63.6464 146.188 41.44C170.845 19.2337 129.808 37.4683 161.858 1.48987C169.626 -7.22954 121.069 -2.58155 110.058 0.965108Z" fill="#A8A4D0"/>
<path d="M159.911 25.8438C179.832 33.4645 201.537 46.3331 171.047 49.5621C164.216 48.6934 149.763 50.0683 146.594 62.5173C142.633 78.0786 101.95 120.135 99.9329 70.0457C99.5701 61.0369 85.1941 54.9725 70.0379 38.6021C46.0325 12.6737 21.0294 -22.1345 53.934 -6.5576C107.613 18.854 98.7439 -5.02464 101.296 -17.8198C103.848 -30.615 127.378 14.8079 159.911 25.8438Z" fill="#9BB8E8"/>
<path d="M139.813 3.17431C188.658 -11.3065 244.575 -23.1362 178.62 11.9039C162.903 18.3776 131.545 34.8538 131.85 48.9695C132.233 66.614 66.5422 146.007 32.4428 104.831C26.3098 97.4256 -9.27348 107.387 -52.6855 109.263C-121.445 112.235 -197.673 108.584 -115.226 87.2494C19.2763 52.4454 -14.5817 41.1802 -16.4654 27.4178C-18.3491 13.6555 60.8773 28.0419 139.813 3.17431Z" fill="#A8A4D0"/>
<path d="M58.7997 66.569C54.6109 86.36 42.3718 113.143 23.7475 99.8794C22.2514 95.0877 13.6844 88.6218 -8.61474 101.093C-36.4887 116.682 -124.796 142.142 -41.4658 83.752C-26.4784 73.2502 -22.5057 58.3219 -1.54594 31.1768C31.6517 -11.8176 79.3448 -65.5192 67.4005 -29.4112C47.9149 29.4942 84.2176 -2.73946 106.832 -15.9494C129.446 -29.1594 63.2711 35.8596 58.7997 66.569Z" fill="#8B9BE2"/>
<path d="M70.402 27.6501C79.6174 27.0146 94.0091 30.0336 77.8525 47.1935C57.6568 68.6433 28.4402 78.9078 -8.39203 111.123C-45.2243 143.338 -30.5354 98.3323 -18.8157 85.9277C-7.0961 73.5231 -15.506 65.9706 -5.90123 41.6932C3.70358 17.4158 52.3605 5.27911 57.1639 2.70364C109.832 -22.3852 49.0905 36.2323 70.402 27.6501Z" fill="#9FABDE"/>
</g>
</svg>
