<svg width="95" height="100" viewBox="0 0 95 100" fill="none" xmlns="http://www.w3.org/2000/svg">
<mask id="mask0" mask-type="alpha" maskUnits="userSpaceOnUse" x="14" y="16" width="67" height="69">
<path d="M77.9159 85H75.4359V16.04H80.3159L77.9159 85ZM29.2759 54.6H26.2359V16.04H31.1159L29.2759 54.6ZM63.9159 85V66.12H20.7959V85H14.7159V16.04H20.7959V60.04H63.9159V16.04H69.9959V85H63.9159ZM29.1959 73.16L28.6359 85H26.2359V71.56H59.5159V73.16H29.1959Z" fill="#E01414"/>
</mask>
<g mask="url(#mask0)">
<path d="M-3.92581 38.0343C-20.6026 56.9915 9.37493 74.6677 1.19833 86.7908C-18.3914 115.836 8.78154 109.273 17.6835 112.937C25.3219 114.884 45.8157 115.516 66.6837 102.47C92.7687 86.1621 104.461 71.4842 107.845 51.7629C111.229 32.0416 84.6429 30.5135 82.8668 3.62508C81.0907 -23.2633 50.6194 -5.35329 38.1446 -4.94642C14.9771 -4.19082 10.3405 25.3972 -3.92581 38.0343Z" fill="#8B9BE2"/>
<path d="M101.863 44.4165C109.862 50.9568 124.838 66.3123 120.752 75.4116C115.644 86.7858 95.3937 76.6241 81.8023 88.5186C68.2108 100.413 53.7154 54.4521 56.706 47.9066C59.6966 41.361 47.3605 24.969 41.0723 1.51807C34.7841 -21.9328 71.5788 1.34465 74.3582 1.87726C106.784 11.7552 87.7704 38.4078 101.863 44.4165Z" fill="#9FABDE"/>
<path d="M67.6859 16.9095C61.3019 20.7288 77.7581 46.5984 73.8515 50.095C64.492 58.4724 82.307 66.3997 81.9306 72.2755C81.9365 76.6296 70.5959 104.399 75.6535 105.749C81.9755 107.438 86.8322 103.964 92.4858 94.0736C98.1395 84.1834 85.2502 78.3671 92.5066 62.1753C99.763 45.9834 84.0477 55.2395 92.0977 27.4709C94.0487 20.7412 72.1644 15.6979 67.6859 16.9095Z" fill="#A8A4D0"/>
<path d="M95.9164 50.1049C106.746 61.1765 119.432 77.5537 105.751 74.6803C102.377 72.5322 95.8607 71.0228 96.7926 82.1702C97.9574 96.1045 87.0372 127.939 76.3576 80.2171C74.4369 71.634 66.5118 63.1102 56.2181 44.6967C39.9142 15.532 21.4166 -22.2171 39.8855 -1.10445C70.0149 33.3379 61.2125 9.05122 59.9238 -2.54321C58.6351 -14.1376 78.5043 33.3553 95.9164 50.1049Z" fill="#9BB8E8"/>
<path d="M82.0795 24.7791C102.188 20.5873 126.131 20.2747 101.988 40.5685C95.8696 43.6315 84.3548 53.1067 87.2411 66.5042C90.8491 83.251 75.448 145.506 51.4442 99.9724C47.127 91.7829 32.3636 94.2815 12.355 87.6187C-19.336 77.0656 -55.8195 58.8033 -21.2726 54.665C35.0859 47.9139 17.0075 30.6903 13.4493 17.32C9.89102 3.9498 49.8672 32.9384 82.0795 24.7791Z" fill="#A8A4D0"/>
<path d="M56.3785 68.9395C58.2584 86.8262 57.7189 109.756 46.4013 93.6037C44.7681 88.7852 39.4912 81.0109 31.4496 88.4619C21.3976 97.7757 -15.0976 104.674 12.6632 65.6929C17.6561 58.6819 16.6196 45.3479 21.1813 23.771C28.4065 -10.4041 40.3538 -51.8799 41.7646 -20.082C44.0662 31.792 54.8395 8.38818 62.8853 0.300152C70.9311 -7.78788 52.5097 40.7906 56.3785 68.9395Z" fill="#8B9BE2"/>
<path d="M54.261 34.4188C58.4623 35.609 65.8029 41.2582 61.555 54.3333C56.2452 70.6772 44.5285 74.699 33.5031 97.9825C22.4777 121.266 20.6259 81.5937 23.7155 72.1497C26.8051 62.7058 21.3908 53.9352 21.1809 32.8616C20.971 11.7879 41.4472 9.77455 43.201 8.27433C63.0428 -5.19828 45.9272 38.3872 54.261 34.4188Z" fill="#9BB8E8"/>
</g>
</svg>
