<svg width="95" height="100" viewBox="0 0 95 100" fill="none" xmlns="http://www.w3.org/2000/svg">
<mask id="mask0" mask-type="alpha" maskUnits="userSpaceOnUse" x="39" y="15" width="17" height="70">
<path d="M53.2863 85H50.8063V15.96H55.6863L53.2863 85ZM39.2863 85V15.96H45.2863V85H39.2863Z" fill="#E01414"/>
</mask>
<g mask="url(#mask0)">
<path d="M-3.92581 40.0343C-20.6026 58.9915 9.37493 76.6677 1.19833 88.7908C-18.3914 117.836 8.78154 111.273 17.6835 114.937C25.3219 116.884 45.8157 117.516 66.6837 104.47C92.7687 88.1621 104.461 73.4842 107.845 53.7629C111.229 34.0416 84.6429 32.5135 82.8668 5.62508C81.0907 -21.2633 50.6194 -3.35329 38.1446 -2.94642C14.9771 -2.19082 10.3405 27.3972 -3.92581 40.0343Z" fill="#8B9BE2"/>
<path d="M101.863 46.4165C109.862 52.9568 124.838 68.3123 120.752 77.4116C115.644 88.7858 95.3937 78.6241 81.8023 90.5186C68.2108 102.413 53.7154 56.4521 56.706 49.9066C59.6966 43.361 47.3605 26.969 41.0723 3.51807C34.7841 -19.9328 71.5788 3.34465 74.3582 3.87726C106.784 13.7552 87.7704 40.4078 101.863 46.4165Z" fill="#9FABDE"/>
<path d="M67.6859 18.9095C61.3019 22.7288 77.7581 48.5984 73.8515 52.095C64.492 60.4724 82.307 68.3997 81.9306 74.2755C81.9365 78.6296 70.5959 106.399 75.6535 107.749C81.9755 109.438 86.8322 105.964 92.4858 96.0736C98.1395 86.1834 85.2502 80.3671 92.5066 64.1753C99.763 47.9834 84.0477 57.2395 92.0977 29.4709C94.0487 22.7412 72.1644 17.6979 67.6859 18.9095Z" fill="#A8A4D0"/>
<path d="M95.9164 52.1049C106.746 63.1765 119.432 79.5537 105.751 76.6803C102.377 74.5322 95.8607 73.0228 96.7926 84.1702C97.9574 98.1045 87.0372 129.939 76.3576 82.2171C74.4369 73.634 66.5118 65.1102 56.2181 46.6967C39.9142 17.532 21.4166 -20.2171 39.8855 0.895546C70.0149 35.3379 61.2125 11.0512 59.9238 -0.543206C58.6351 -12.1376 78.5043 35.3553 95.9164 52.1049Z" fill="#9BB8E8"/>
<path d="M82.0795 26.7791C102.188 22.5873 126.131 22.2747 101.988 42.5685C95.8696 45.6315 84.3548 55.1067 87.2411 68.5042C90.8491 85.251 75.448 147.506 51.4442 101.972C47.127 93.7829 32.3636 96.2815 12.355 89.6187C-19.336 79.0656 -55.8195 60.8033 -21.2726 56.665C35.0859 49.9139 17.0075 32.6903 13.4493 19.32C9.89102 5.9498 49.8672 34.9384 82.0795 26.7791Z" fill="#A8A4D0"/>
<path d="M56.3785 70.9395C58.2584 88.8262 57.7189 111.756 46.4013 95.6037C44.7681 90.7852 39.4912 83.0109 31.4496 90.4619C21.3976 99.7757 -15.0976 106.674 12.6632 67.6929C17.6561 60.6819 16.6196 47.3479 21.1813 25.771C28.4065 -8.4041 40.3538 -49.8799 41.7646 -18.082C44.0662 33.792 54.8395 10.3882 62.8853 2.30015C70.9311 -5.78788 52.5097 42.7906 56.3785 70.9395Z" fill="#8B9BE2"/>
<path d="M54.261 36.4188C58.4623 37.609 65.8029 43.2582 61.555 56.3333C56.2452 72.6772 44.5285 76.699 33.5031 99.9825C22.4777 123.266 20.6259 83.5937 23.7155 74.1497C26.8051 64.7058 21.3908 55.9352 21.1809 34.8616C20.971 13.7879 41.4472 11.7746 43.201 10.2743C63.0428 -3.19828 45.9272 40.3872 54.261 36.4188Z" fill="#9FABDE"/>
</g>
</svg>
