<svg width="95" height="100" viewBox="0 0 95 100" fill="none" xmlns="http://www.w3.org/2000/svg">
<mask id="mask0" mask-type="alpha" maskUnits="userSpaceOnUse" x="34" y="16" width="27" height="70">
<path d="M58.2044 69.16C58.0444 72.3067 57.3777 75.24 56.2044 77.96C55.0844 80.6267 53.3244 83 50.9244 85.08H48.5244C53.3244 80.76 55.7244 75.4533 55.7244 69.16V16.04H60.6044L58.2044 69.16ZM50.2844 69.16C50.2844 71.3467 49.8577 73.4 49.0044 75.32C48.2044 77.24 47.0844 78.92 45.6444 80.36C44.2044 81.8 42.4977 82.9467 40.5244 83.8C38.6044 84.6 36.551 85 34.3644 85V79C35.6977 79 36.951 78.76 38.1244 78.28C39.351 77.7467 40.4177 77.0267 41.3244 76.12C42.231 75.2133 42.9244 74.1733 43.4044 73C43.9377 71.8267 44.2044 70.5467 44.2044 69.16V16.04H50.2844V69.16Z" fill="#E01414"/>
</mask>
<g mask="url(#mask0)">
<path d="M55.4377 -8.38947C33.8127 -25.5724 14.653 7.95143 0.878767 -0.32925C-32.1219 -20.1683 -24.1641 9.06859 -28.0767 18.9429C-30.091 27.3546 -30.3472 49.6894 -15.2582 71.7346C3.60299 99.2911 20.3195 111.268 42.5082 113.946C64.6968 116.623 65.8241 87.6131 95.9356 84.3105C126.047 81.0078 105.292 48.7596 104.561 35.2045C103.203 10.0308 69.9226 6.49217 55.4377 -8.38947Z" fill="#8B9BE2"/>
<path d="M50.6141 107.062C43.4567 116.1 26.5684 133.18 16.275 129.196C3.40818 124.217 14.3563 101.662 0.718925 87.4769C-12.9184 73.2918 38.2992 55.1756 45.7049 58.0967C53.1105 61.0178 71.2193 46.7579 97.3768 38.72C123.534 30.6821 98.244 71.9102 97.708 74.962C87.3467 110.753 57.0411 91.419 50.6141 107.062Z" fill="#9FABDE"/>
<path d="M80.7047 68.4666C76.2812 61.7136 47.6359 80.9402 43.6289 76.8669C34.0287 67.1081 25.5324 86.8993 18.9354 86.789C14.0532 87.0172 -17.335 76.0904 -18.7381 81.6632C-20.492 88.6292 -16.4895 93.7375 -5.2746 99.3863C5.94028 105.035 12.1779 90.7119 30.4943 97.7839C48.8107 104.856 38.085 88.2251 69.4002 95.571C76.9895 97.3513 82.1621 73.2786 80.7047 68.4666Z" fill="#A8A4D0"/>
<path d="M44.1043 100.88C31.9281 113.229 13.8437 127.869 16.7641 112.834C19.0984 109.053 20.6472 101.885 8.16785 103.467C-7.43137 105.444 -43.3691 95.1819 9.90734 81.1287C19.4894 78.6011 28.8726 69.5424 49.2932 57.4021C81.6368 38.1734 123.558 16.1202 100.291 37.2947C62.3343 71.8379 89.3736 61.0213 102.346 59.0283C115.319 57.0352 62.502 81.0775 44.1043 100.88Z" fill="#9BB8E8"/>
<path d="M72.1978 84.5313C77.3417 106.201 78.2202 132.242 54.9317 107.001C51.3623 100.499 40.4835 88.4504 25.5242 92.274C6.82515 97.0536 -63.3229 83.4647 -12.794 55.0226C-3.70607 49.9072 -6.83346 33.968 0.196566 11.8541C11.3312 -23.1716 31.0046 -63.8054 36.4069 -26.4203C45.2199 34.5685 64.1346 14.0171 79.0485 9.46369C93.9624 4.91027 62.3382 49.8915 72.1978 84.5313Z" fill="#A8A4D0"/>
<path d="M22.1128 58.8117C2.09741 61.7686 -23.6258 62.3497 -5.76387 49.2104C-0.396733 47.1875 8.20446 41.0489 -0.327898 32.6771C-10.9933 22.2123 -19.5337 -17.1525 24.7893 11.0726C32.7611 16.149 47.6899 14.3418 71.9854 18.2069C110.466 24.3288 157.238 35.2176 121.613 38.3729C63.4958 43.5202 89.9767 54.0521 99.2235 62.396C108.47 70.7399 53.5916 53.1674 22.1128 58.8117Z" fill="#8B9BE2"/>
<path d="M60.7751 54.7485C59.5331 59.3812 53.3604 67.6575 38.6053 63.7009C20.1613 58.755 15.3932 46.2091 -10.9583 35.3967C-37.3098 24.5843 7.13494 20.5481 17.7928 23.4293C28.4507 26.3105 38.166 19.9715 61.7919 18.6695C85.4177 17.3674 88.1268 39.5483 89.8477 41.3805C105.393 62.2872 56.1415 45.8814 60.7751 54.7485Z" fill="#9BB8E8"/>
</g>
</svg>
