<svg width="95" height="100" viewBox="0 0 95 100" fill="none" xmlns="http://www.w3.org/2000/svg">
<mask id="mask0" mask-type="alpha" maskUnits="userSpaceOnUse" x="19" y="16" width="57" height="70">
<path d="M46.4844 55.08L71.1244 85.08H68.7244L44.0844 55.08L73.1244 16.04H75.6044L46.4844 55.08ZM33.4444 41.08L31.0444 44.28V16.04H35.9244L33.4444 41.08ZM37.1244 55.32L61.6844 85H53.9244L33.4444 60.28L25.3644 71V85H19.3644V16.04H25.5244V60.76L58.8844 16.04H66.3244L37.1244 55.32ZM33.3644 72.76V85H30.8844V72.76L33.6844 69.08L34.8844 70.52L33.3644 72.76Z" fill="#E01414"/>
</mask>
<g mask="url(#mask0)">
<path d="M-67.2168 50.9809C-58.7369 12.8235 -2.34726 25.7565 5.72525 4.00629C25.0656 -48.1035 44.9193 -12.0919 59.471 -6.54706C70.2995 -0.501292 92.9978 20.6568 97.1631 56.9229C102.37 102.256 94.5053 130.5 70.8118 155.314C47.1184 180.129 16.6915 153.444 -22.417 180.468C-61.5255 207.492 -69.185 155.762 -81.9064 142.032C-105.532 116.534 -69.5159 79.7728 -67.2168 50.9809Z" fill="#8B9BE2"/>
<path d="M54.2735 156.841C71.8442 158.331 109.046 157.775 117.289 143.635C127.593 125.96 91.9633 115.31 93.9531 88.0362C95.9429 60.7619 16.8905 94.7444 11.0153 104.97C5.14017 115.197 -30.6854 119.68 -69.841 138.2C-108.997 156.72 -37.5941 170.893 -33.8971 173.282C14.3064 197.21 30.9487 148.287 54.2735 156.841Z" fill="#9FABDE"/>
<path d="M-20.1959 150.006C-21.708 139.096 31.6234 128.809 32.303 120.886C33.9312 101.904 63.8753 112.361 71.6073 105.641C77.6401 100.965 103.999 59.017 111.255 62.9535C120.324 67.8741 120.688 76.7852 113.019 93.4459C105.35 110.107 83.5739 102.627 68.8897 127.773C54.2056 152.918 50.2818 126.218 20.4189 164.66C13.1817 173.976 -17.1038 156.081 -20.1959 150.006Z" fill="#A8A4D0"/>
<path d="M55.814 144.387C82.6712 144.02 118.849 139.925 100.303 128.437C93.7359 127.152 84.7078 121.832 101.13 110.836C121.657 97.0919 154.091 51.2198 76.6648 91.1623C62.7393 98.3461 42.5017 99.0684 6.05299 107.903C-51.677 121.895 -123.625 142.781 -74.7346 139.756C5.02342 134.819 -37.9664 151.559 -55.3869 162.655C-72.8074 173.751 14.088 143.847 55.814 144.387Z" fill="#9BB8E8"/>
<path d="M6.02441 156.879C21.6365 182.814 46.7012 208.663 49.0797 161.112C46.8038 151.299 47.6564 128.839 69.274 117.506C96.2959 103.341 166.064 19.9784 77.4776 43.3699C61.5449 47.577 49.2816 29.1586 18.7518 15.0038C-29.6033 -7.41539 -93.7324 -26.6505 -62.6709 14.6115C-11.9983 81.925 -55.09 81.1845 -77.3854 91.7719C-99.6808 102.359 -16.9854 113.78 6.02441 156.879Z" fill="#A8A4D0"/>
<path d="M39.7788 82.0018C66.5383 64.7688 97.7011 39.5348 63.2925 44.8457C54.8838 48.2874 38.5037 51.0254 40.2532 34.4435C42.4401 13.7162 13.1244 -32.5905 -11.2681 38.9122C-15.6552 51.7724 -35.2148 65.0079 -60.2223 93.0733C-99.831 137.525 -144.516 194.861 -99.0012 162.167C-24.7498 108.832 -45.671 145.481 -48.2978 162.753C-50.9246 180.024 -3.30285 108.152 39.7788 82.0018Z" fill="#8B9BE2"/>
<path d="M-10.2574 116.87C-4.136 120.067 11.5003 121.814 25.0744 103.226C42.042 79.991 35.1314 63.181 55.6176 26.3929C76.1038 -10.3952 19.2203 30.2967 9.43877 43.7452C-0.342706 57.1937 -18.2481 60.8567 -47.6404 83.2965C-77.0327 105.736 -58.0139 129.72 -58.2228 133.202C-55.7408 168.834 -13.6394 103.723 -10.2574 116.87Z" fill="#9BB8E8"/>
</g>
</svg>
