<svg width="95" height="100" viewBox="0 0 95 100" fill="none" xmlns="http://www.w3.org/2000/svg">
<mask id="mask0" mask-type="alpha" maskUnits="userSpaceOnUse" x="12" y="13" width="71" height="73">
<path d="M80.6588 85V20.68H82.8988V85H80.6588ZM69.9388 85V36.12L43.8588 85.96L17.7788 36.12V85H12.0988V13.24L43.8588 73.8L75.6188 13.24V85H69.9388ZM43.8588 62.92L20.9787 20.68H25.5388L44.9788 60.76L43.8588 62.92ZM52.4188 85.08H50.0988L64.8188 56.84V61.16L52.4188 85.08ZM25.1388 85H22.8988V56.84L27.6188 65.72L25.1388 85Z" fill="#E01414"/>
</mask>
<g mask="url(#mask0)">
<path d="M-36.6406 -49.8318C-31.3404 -105.135 38.1478 -78.7807 45.0648 -109.889C61.6366 -184.418 90.1416 -128.647 108.357 -118.584C122.158 -108.258 152.177 -74.0743 161.845 -19.9421C173.929 47.7231 168.096 88.455 142.783 122.086C117.47 155.717 77.4447 112.372 33.8738 147.289C-9.69709 182.206 -25.5528 104.771 -42.6178 82.8459C-74.3097 42.1278 -35.7087 -7.57579 -36.6406 -49.8318Z" fill="#8B9BE2"/>
<path d="M123.086 122.219C144.412 126.677 189.088 130.632 197.188 110.793C207.312 85.9944 163.088 65.6806 161.979 25.6278C160.87 -14.425 70.1465 25.6463 64.3927 40.0048C58.639 54.3634 16.1225 56.3897 -28.5971 78.7315C-73.3167 101.073 14.3886 131.189 19.1422 135.194C80.196 176.748 93.9316 106.581 123.086 122.219Z" fill="#9FABDE"/>
<path d="M32.6337 102.554C29.414 86.2358 92.242 77.8823 92.0421 66.2601C91.563 38.4152 128.924 57.7154 137.361 48.7766C144.017 42.6402 170.336 -15.9693 179.569 -9.21992C191.11 -0.783187 192.692 12.433 185.607 36.0709C178.522 59.7088 151.368 45.8589 136.934 81.1355C122.501 116.412 114.352 76.4488 83.3684 129.426C75.8595 142.265 37.1331 111.929 32.6337 102.554Z" fill="#A8A4D0"/>
<path d="M123.34 104.01C155.597 106.916 198.588 105.51 174.804 86.1508C166.74 83.4078 155.198 74.3864 173.539 60.245C196.465 42.5683 229.587 -21.0608 141.585 28.0275C125.757 36.8562 101.508 35.325 58.8003 43.7005C-8.84267 56.9662 -92.7022 78.5955 -34.2837 80.4018C61.0183 83.3484 11.4581 102.567 -8.07106 116.729C-27.6002 130.89 73.0807 97.8536 123.34 104.01Z" fill="#9BB8E8"/>
<path d="M65.0551 116.08C87.1642 156.414 120.632 197.834 117.387 127.864C113.389 113.069 111.531 79.9852 136.078 66.0128C166.762 48.5473 239.977 -65.694 136.426 -42.4994C117.802 -38.3278 100.686 -67.1229 62.1458 -91.9623C1.10368 -131.305 -78.5031 -167.967 -35.8428 -102.998C33.7518 2.99108 -18.1756 -3.63673 -43.6337 9.14728C-69.0919 21.9313 31.8436 49.4296 65.0551 116.08Z" fill="#A8A4D0"/>
<path d="M96.041 9.7532C126.015 -12.2791 160.259 -45.5705 119.553 -42.1401C109.881 -38.1333 90.5295 -36.1902 90.5047 -60.4717C90.4736 -90.8237 49.2653 -163.024 29.1068 -60.4834C25.4812 -42.0409 3.65376 -24.9919 -22.8223 13.2745C-64.7568 73.8835 -111.143 152.88 -60.5945 110.408C21.869 41.1195 1.41026 92.596 0.468492 117.784C-0.473273 142.972 47.5788 42.8678 96.041 9.7532Z" fill="#8B9BE2"/>
<path d="M40.3331 54.8597C48.1066 60.3701 67.1388 64.959 81.0794 39.2314C98.505 7.07181 88.0341 -18.6589 107.952 -70.397C127.869 -122.135 64.6729 -69.3014 54.6343 -50.682C44.5958 -32.0626 23.5288 -28.9483 -8.94374 0.440891C-41.4163 29.8301 -15.4602 67.7176 -15.2643 72.837C-7.70327 125.815 34.5767 34.9944 40.3331 54.8597Z" fill="#9BB8E8"/>
</g>
</svg>
