<svg width="95" height="100" viewBox="0 0 95 100" fill="none" xmlns="http://www.w3.org/2000/svg">
<mask id="mask0" mask-type="alpha" maskUnits="userSpaceOnUse" x="8" y="15" width="79" height="71">
<path d="M86.8325 50.6C86.8325 54.1733 86.3792 57.64 85.4725 61C84.6192 64.3067 83.3658 67.4267 81.7125 70.36C80.1125 73.2933 78.1125 76.0133 75.7125 78.52C73.3658 81.0267 70.6992 83.2133 67.7125 85.08H65.3125C71.3392 81.24 76.0058 76.3333 79.3125 70.36C82.6725 64.3333 84.3525 57.7467 84.3525 50.6C84.3525 47.08 83.9258 43.6667 83.0725 40.36C82.2192 37 80.9658 33.8533 79.3125 30.92C77.6592 27.9333 75.6592 25.1867 73.3125 22.68C70.9658 20.1733 68.3258 17.96 65.3925 16.04H67.7925C70.7792 17.96 73.4458 20.1733 75.7925 22.68C78.1392 25.1867 80.1392 27.9333 81.7925 30.92C83.4458 33.8533 84.6992 36.9733 85.5525 40.28C86.4058 43.5867 86.8325 47.0267 86.8325 50.6ZM78.9925 50.6C78.9925 55.5067 78.0592 60.12 76.1925 64.44C74.3258 68.7067 71.7658 72.44 68.5125 75.64C65.3125 78.84 61.5525 81.3733 57.2325 83.24C52.9125 85.0533 48.3258 85.96 43.4725 85.96C38.5658 85.96 33.9525 85.0533 29.6325 83.24C25.3658 81.3733 21.6325 78.84 18.4325 75.64C15.2858 72.44 12.7792 68.7067 10.9125 64.44C9.09917 60.12 8.1925 55.5067 8.1925 50.6C8.1925 45.6933 9.09917 41.08 10.9125 36.76C12.7792 32.44 15.2858 28.68 18.4325 25.48C21.6325 22.28 25.3658 19.7467 29.6325 17.88C33.9525 16.0133 38.5658 15.08 43.4725 15.08C48.3792 15.08 52.9925 16.0133 57.3125 17.88C61.6325 19.7467 65.3925 22.28 68.5925 25.48C71.7925 28.68 74.3258 32.44 76.1925 36.76C78.0592 41.08 78.9925 45.6933 78.9925 50.6ZM72.8325 50.6C72.8325 46.5467 72.0592 42.7333 70.5125 39.16C69.0192 35.5867 66.9392 32.4667 64.2725 29.8C61.6058 27.1333 58.4858 25.0533 54.9125 23.56C51.3392 22.0133 47.5258 21.24 43.4725 21.24C39.3658 21.24 35.5258 22.0133 31.9525 23.56C28.4325 25.1067 25.3392 27.2133 22.6725 29.88C20.0592 32.4933 17.9792 35.5867 16.4325 39.16C14.9392 42.7333 14.1925 46.5467 14.1925 50.6C14.1925 54.6533 14.9392 58.4667 16.4325 62.04C17.9792 65.6133 20.0592 68.7333 22.6725 71.4C25.3392 74.0133 28.4592 76.0933 32.0325 77.64C35.6058 79.1333 39.4192 79.88 43.4725 79.88C47.5258 79.88 51.3392 79.1333 54.9125 77.64C58.4858 76.0933 61.5792 74.0133 64.1925 71.4C66.8592 68.7333 68.9658 65.64 70.5125 62.12C72.0592 58.5467 72.8325 54.7067 72.8325 50.6ZM46.5125 27.8C43.3125 27.96 40.3258 28.7067 37.5525 30.04C34.8325 31.3733 32.4592 33.1333 30.4325 35.32C28.4058 37.4533 26.8058 39.9333 25.6325 42.76C24.4592 45.5867 23.8725 48.6 23.8725 51.8C23.8725 54.8933 24.3525 57.7733 25.3125 60.44C26.3258 63.1067 27.7392 65.4533 29.5525 67.48C31.4192 69.5067 33.6325 71.1333 36.1925 72.36C38.7525 73.5867 41.6058 74.28 44.7525 74.44H43.4725C40.1658 74.44 37.0725 73.8267 34.1925 72.6C31.3125 71.32 28.7792 69.6133 26.5925 67.48C24.4592 65.2933 22.7792 62.76 21.5525 59.88C20.3258 57 19.7125 53.9067 19.7125 50.6C19.7125 47.2933 20.3258 44.2 21.5525 41.32C22.7792 38.3867 24.4592 35.8267 26.5925 33.64C28.7258 31.4533 31.2325 29.7467 34.1125 28.52C37.0458 27.24 40.1658 26.6 43.4725 26.6C43.6325 26.6 43.8458 26.6533 44.1125 26.76C44.4325 26.8667 44.7525 27 45.0725 27.16C45.3925 27.2667 45.6858 27.4 45.9525 27.56C46.2192 27.6667 46.4058 27.7467 46.5125 27.8Z" fill="#E01414"/>
</mask>
<g mask="url(#mask0)">
<path d="M-7.56081 141.392C-31.4261 110.037 -3.47526 44.8483 -15.9933 22.8321C-45.9845 -29.9148 -14.1251 -35.9602 -5.36725 -51.5962C2.49344 -62.1999 24.9097 -79.8668 51.6893 -65.7053C85.1637 -48.0035 102.297 -22.7634 111.724 20.8834C121.152 64.5303 92.277 89.114 98.085 153.669C103.893 218.224 65.1189 200.221 51.2453 209.117C25.4801 225.638 11.8209 159.806 -7.56081 141.392Z" fill="#8B9BE2"/>
<path d="M107.25 42.8615C114.182 21.1839 126.26 -26.7075 119.126 -44.852C110.208 -67.5326 90.8134 -27.6746 72.3904 -44.8779C53.9673 -62.0812 51.2585 57.3131 56.4469 70.3249C61.6354 83.3366 52.767 131.578 52.6065 191.622C52.446 251.666 86.2964 167.939 89.2074 164.493C122.111 115.686 93.4456 68.1032 107.25 42.8615Z" fill="#9FABDE"/>
<path d="M77.5079 134.456C69.365 130.527 80.0392 56.7725 74.7214 51.645C61.9808 39.3604 79.3358 6.67327 77.2236 -6.82981C75.9724 -17.0607 55.4462 -73.3256 60.6331 -80.492C67.1167 -89.45 73.4756 -85.1262 82.5667 -66.3618C91.6578 -47.5975 79.1246 -23.7584 91.8032 8.54065C104.482 40.8397 84.4789 31.5104 101.376 90.3729C105.472 104.638 82.7963 133.765 77.5079 134.456Z" fill="#A8A4D0"/>
<path d="M99.0496 34.1976C107.793 -0.358212 117.052 -48.8412 102.796 -31.2885C99.6954 -23.5785 92.9462 -14.8879 90.7539 -41.8055C88.0135 -75.4525 66.7765 -141.598 68.7843 -21.0809C69.1454 0.594664 62.8684 26.8727 56.8361 78.249C47.2816 159.622 37.7877 262.89 52.0552 198.719C75.3308 94.0318 72.6393 158.025 74.5673 186.274C76.4952 214.523 84.6871 87.287 99.0496 34.1976Z" fill="#9BB8E8"/>
<path d="M91.1066 104.606C114.492 98.5721 140.984 80.3987 108.499 51.8009C100.868 49.4386 85.4333 36.2774 84.7463 2.53182C83.8876 -39.6502 48.9228 -173.705 35.6057 -47.8057C33.2105 -25.162 16.209 -19.3721 -3.9301 12.0774C-35.8279 61.8892 -70.7836 133.592 -31.4931 116.03C32.6039 87.3807 17.6437 142.11 17.5819 176.322C17.52 210.534 53.229 110.881 91.1066 104.606Z" fill="#A8A4D0"/>
<path d="M50.0105 21.1838C46.917 -22.3108 39.6992 -75.7385 31.8845 -28.8656C31.4753 -16.2587 27.902 6.16778 16.8823 -4.98187C3.10762 -18.9189 -39.1286 -6.30165 2.74295 63.3306C10.2738 75.8544 12.9823 107.99 24.2449 155.065C42.0833 229.625 67.2377 317.604 59.6088 241.807C47.1634 118.154 65.8033 164.615 77.0116 177.257C88.22 189.9 53.8749 90.3516 50.0105 21.1838Z" fill="#8B9BE2"/>
<path d="M57.6464 103.934C61.9354 97.8211 68.3983 78.7562 59.9375 51.4015C49.3615 17.2081 35.2797 17.0147 16.3966 -28.9639C-2.48645 -74.9425 6.9306 19.697 13.0654 39.438C19.2001 59.1789 15.763 84.0538 21.6185 133.715C27.474 183.376 50.6349 171.935 53.0021 174.073C78.7734 190.047 47.3105 101.195 57.6464 103.934Z" fill="#9BB8E8"/>
</g>
</svg>
