<svg width="95" height="100" viewBox="0 0 95 100" fill="none" xmlns="http://www.w3.org/2000/svg">
<mask id="mask0" mask-type="alpha" maskUnits="userSpaceOnUse" x="20" y="16" width="55" height="69">
<path d="M71.5669 27.56V16.04H74.0469V27.56H71.5669ZM54.7669 33.88V85H52.2869V27.56H67.4869L54.7669 33.88ZM20.9269 30.04V27.56H35.1669V30.04H20.9269ZM46.8469 22.04V85H40.8469V22.04H20.9269V16.04H66.6869V22.04H46.8469Z" fill="#E01414"/>
</mask>
<g mask="url(#mask0)">
<path d="M38.9621 6.20902C66.0889 -8.74855 80.4104 31.8908 97.1582 25.3087C137.283 9.53906 122.735 40.3749 125.056 52.0219C125.588 61.6974 121.419 86.4367 100.488 107.99C74.3235 134.932 53.6142 145.051 28.7597 143.867C3.90522 142.684 8.4497 110.402 -23.8975 101.128C-56.2447 91.8531 -27.0699 60.0781 -23.5676 45.2292C-17.0632 17.6528 20.1202 19.9559 38.9621 6.20902Z" fill="#8B9BE2"/>
<path d="M21.2464 134.744C27.291 146.072 42.3991 168.108 54.4754 165.627C69.5708 162.525 62.0645 135.545 79.8387 122.41C97.6129 109.275 45.0828 79.6822 36.3835 81.5285C27.6841 83.3749 10.6763 64.2284 -16.3934 50.4574C-43.4631 36.6864 -23.9568 86.9879 -23.9775 90.4618C-19.7517 131.965 17.3185 116.25 21.2464 134.744Z" fill="#9FABDE"/>
<path d="M-4.04607 86.4564C2.14798 79.8169 29.7154 106.422 34.919 102.667C47.3861 93.6713 52.7557 117.138 60.0086 118.248C65.3145 119.412 101.896 113.194 102.324 119.616C102.858 127.645 97.4534 132.545 84.0352 136.695C70.6171 140.846 66.6338 123.846 45.1482 128.244C23.6626 132.642 38.7326 116.259 2.94436 118.532C-5.72895 119.083 -6.60226 91.5039 -4.04607 86.4564Z" fill="#A8A4D0"/>
<path d="M29.6136 129.125C40.4993 145.051 57.4046 164.614 57.1993 147.447C55.3941 142.83 55.1246 134.617 68.488 138.696C85.1923 143.795 126.628 139.162 71.032 113.676C61.0328 109.092 52.5527 97.3255 32.5886 80.0906C0.967971 52.7928 -40.5878 20.5837 -19.3039 48.3376C15.418 93.6143 -12.0645 76.6068 -25.8868 71.9807C-39.7091 67.3547 13.3932 103.798 29.6136 129.125Z" fill="#9DB1D2"/>
<path d="M2.07759 105.805C-7.87827 128.801 -14.0296 157.425 16.526 133.87C21.734 127.348 36.0588 116.06 51.6938 123.081C71.2375 131.857 150.834 129.934 101.116 89.0546C92.1744 81.7022 98.7781 64.6652 95.4786 38.9049C90.2525 -1.89601 76.7845 -50.4915 63.4144 -10.1704C41.6028 55.6081 24.9652 29.3558 9.5253 21.5367C-5.91462 13.7176 19.7864 69.3511 2.07759 105.805Z" fill="#9BB8E8"/>
<path d="M62.1002 86.7248C83.4499 93.7316 111.529 99.1778 94.5688 81.3163C89.0889 78.0777 80.8843 69.685 91.9046 62.0233C105.68 52.4461 122.884 10.5224 68.6782 33.4484C58.9289 37.5718 42.9255 32.7859 15.5252 32.5217C-27.8733 32.1032 -81.3089 35.4064 -42.8893 45.5476C19.787 62.0915 -11.3371 68.7894 -23.1349 76.2869C-34.9327 83.7844 28.7209 74.6062 62.1002 86.7248Z" fill="#8B9BE2"/>
<path d="M20.532 75.0125C20.9703 80.366 26.0872 90.6684 43.0487 89.0497C64.2505 87.0264 71.9765 74.0471 103.015 67.015C134.053 59.9828 86.1412 47.2206 73.885 48.4154C61.6289 49.6103 52.2429 40.7881 26.6061 34.9365C0.96927 29.085 -6.41963 53.1004 -8.67096 54.8045C-29.8751 75.0144 27.3777 66.0751 20.532 75.0125Z" fill="#A8A4D0"/>
</g>
</svg>
