<svg width="95" height="100" viewBox="0 0 95 100" fill="none" xmlns="http://www.w3.org/2000/svg">
<mask id="mask0" mask-type="alpha" maskUnits="userSpaceOnUse" x="15" y="16" width="65" height="70">
<path d="M79.0878 57.4C79.0878 63.0533 77.7278 68.3067 75.0078 73.16C72.3411 78.0133 68.6611 81.9867 63.9678 85.08H61.4878C63.8345 83.5867 65.9411 81.8267 67.8078 79.8C69.7278 77.7733 71.3278 75.56 72.6078 73.16C73.9411 70.76 74.9545 68.2533 75.6478 65.64C76.3412 62.9733 76.6878 60.2267 76.6878 57.4V16.04H79.0878V57.4ZM71.1678 57.4C71.1678 61.24 70.4478 64.84 69.0078 68.2C67.5678 71.5067 65.5945 74.4133 63.0878 76.92C60.5812 79.4267 57.6478 81.4 54.2878 82.84C50.9811 84.28 47.4078 85 43.5678 85C39.7278 85 36.1278 84.28 32.7678 82.84C29.4078 81.4 26.4745 79.4533 23.9678 77C21.4611 74.4933 19.4878 71.56 18.0478 68.2C16.6078 64.84 15.8878 61.24 15.8878 57.4V16.04H21.9678V57.4C21.9678 60.3867 22.5278 63.2133 23.6478 65.88C24.7678 68.4933 26.2878 70.7867 28.2078 72.76C30.1811 74.68 32.4745 76.2 35.0878 77.32C37.7545 78.44 40.5811 79 43.5678 79C46.5011 79 49.2745 78.44 51.8878 77.32C54.5545 76.1467 56.8478 74.6 58.7678 72.68C60.7411 70.7067 62.2878 68.4133 63.4078 65.8C64.5811 63.1867 65.1678 60.3867 65.1678 57.4V16.04H71.1678V57.4ZM43.5678 73.48C41.3278 73.48 39.2211 73.08 37.2478 72.28C35.3278 71.4267 33.6211 70.28 32.1278 68.84C30.6345 67.3467 29.4611 65.64 28.6078 63.72C27.7545 61.7467 27.3278 59.64 27.3278 57.4V16.04H34.0478L29.8078 57.4C29.8078 57.56 29.7811 57.72 29.7278 57.88C29.7278 57.9867 29.7278 58.12 29.7278 58.28C29.7278 60.2533 30.1545 62.12 31.0078 63.88C31.8611 65.5867 32.9811 67.1333 34.3678 68.52C35.7545 69.8533 37.3545 70.9733 39.1678 71.88C40.9811 72.7333 42.8478 73.2667 44.7678 73.48H43.5678Z" fill="#E01414"/>
</mask>
<g mask="url(#mask0)">
<path d="M-88.6406 36.1682C-83.3404 -19.1352 -13.8522 7.21928 -6.93526 -23.8885C9.63656 -98.4176 38.1416 -42.6469 56.357 -32.5837C70.1582 -22.2582 100.177 11.9257 109.845 66.0579C121.928 133.723 116.096 174.455 90.7828 208.086C65.4699 241.717 25.4446 198.372 -18.1262 233.289C-61.6971 268.206 -77.5529 190.771 -94.6178 168.846C-126.31 128.128 -87.7088 78.4242 -88.6406 36.1682Z" fill="#8B9BE2"/>
<path d="M71.0859 208.219C92.4118 212.677 137.088 216.632 145.188 196.793C155.312 171.994 111.088 151.681 109.979 111.628C108.87 71.575 18.1464 111.646 12.3927 126.005C6.63902 140.363 -35.8775 142.39 -80.5971 164.732C-125.317 187.073 -37.6114 217.189 -32.8578 221.194C28.196 262.748 41.9316 192.581 71.0859 208.219Z" fill="#9FABDE"/>
<path d="M-19.3663 188.554C-22.586 172.236 40.2421 163.882 40.0421 152.26C39.5631 124.415 76.9237 143.715 85.3611 134.777C92.0171 128.64 118.336 70.0307 127.569 76.7801C139.11 85.2168 140.692 98.433 133.607 122.071C126.522 145.709 99.3679 131.859 84.9343 167.136C70.5006 202.412 62.3523 162.449 31.3685 215.426C23.8595 228.265 -14.8669 197.929 -19.3663 188.554Z" fill="#A8A4D0"/>
<path d="M71.3396 190.01C103.597 192.916 146.588 191.51 122.804 172.151C114.74 169.408 103.198 160.386 121.539 146.245C144.465 128.568 177.587 64.9392 89.5851 114.027C73.7575 122.856 49.5078 121.325 6.80034 129.7C-60.8426 142.966 -144.702 164.596 -86.2837 166.402C9.01833 169.348 -40.5418 188.567 -60.071 202.729C-79.6002 216.89 21.0807 183.854 71.3396 190.01Z" fill="#9DB1D2"/>
<path d="M13.0551 202.08C35.1642 242.414 68.6322 283.834 65.387 213.864C61.3894 199.069 59.5309 165.985 84.0781 152.013C114.762 134.547 187.977 20.306 84.4258 43.5006C65.8015 47.6722 48.6857 18.8771 10.1458 -5.96231C-50.8963 -45.3047 -130.503 -81.967 -87.8428 -16.9976C-18.2482 88.9911 -70.1755 82.3633 -95.6337 95.1473C-121.092 107.931 -20.1563 135.43 13.0551 202.08Z" fill="#9BB8E8"/>
<path d="M44.041 95.7532C74.0153 73.7209 108.259 40.4295 67.5529 43.8599C57.8805 47.8667 38.5295 49.8098 38.5046 25.5283C38.4735 -4.82367 -2.73474 -77.0242 -22.8932 25.5166C-26.5188 43.9591 -48.3463 61.0081 -74.8223 99.2745C-116.757 159.883 -163.143 238.88 -112.594 196.408C-30.131 127.119 -50.5898 178.596 -51.5315 203.784C-52.4733 228.972 -4.42126 128.868 44.041 95.7532Z" fill="#8B9BE2"/>
<path d="M-11.6669 140.86C-3.89335 146.37 15.1389 150.959 29.0794 125.231C46.505 93.0718 36.0341 67.3411 55.9517 15.603C75.8693 -36.1351 12.6729 16.6986 2.63436 35.318C-7.40422 53.9374 -28.4712 57.0517 -60.9437 86.4409C-93.4163 115.83 -67.4601 153.718 -67.2642 158.837C-59.7033 211.815 -17.4232 120.994 -11.6669 140.86Z" fill="#A8A4D0"/>
</g>
</svg>
