<svg width="95" height="100" viewBox="0 0 95 100" fill="none" xmlns="http://www.w3.org/2000/svg">
<mask id="mask0" mask-type="alpha" maskUnits="userSpaceOnUse" x="16" y="16" width="63" height="74">
<path d="M52.9984 85H50.5184L76.3584 16.04H78.7584L52.9984 85ZM43.3984 56.52L28.5184 16.04H35.1584L44.5984 53.16L43.3984 56.52ZM43.3984 89.96L16.2784 16.04H22.7584L43.3984 72.28L64.1184 16.04H70.5984L43.3984 89.96Z" fill="#E01414"/>
</mask>
<g mask="url(#mask0)">
<path d="M44.6382 -0.764267C71.7907 4.96314 97.1797 51.549 114.547 57.4658C156.158 71.6413 146.792 89.046 152.059 101.138C154.862 110.198 155.8 129.458 137.129 134.025C113.79 139.733 92.7647 134.194 64.4959 115.584C36.2272 96.9736 33.9946 71.2085 -4.5576 40.0466C-43.1098 8.88471 -17.4803 0.964029 -16.9165 -9.89034C-15.8696 -30.0484 26.543 -1.72905 44.6382 -0.764267Z" fill="#8B9BE2"/>
<path d="M53.9541 102.09C63.3434 116.525 85.3817 146.97 98.4209 153.269C114.72 161.143 100.119 131.628 117.151 132.388C134.183 133.148 68.2665 69.5007 58.8869 65.0159C49.5073 60.5311 25.9871 31.3388 -7.64391 -0.132693C-41.2749 -31.6042 -7.84469 27.3141 -7.07674 30.4175C7.13587 70.6508 45.3174 82.7187 53.9541 102.09Z" fill="#9FABDE"/>
<path d="M14.4643 40.8945C19.93 39.3086 57.0445 82.6502 62.0515 82.9541C74.0472 83.6823 85.4405 108.535 93.8639 114.652C100.106 119.443 139.9 139.689 141.845 145.756C144.275 153.339 139.303 153.921 125.132 148.172C110.961 142.424 102.603 124.354 79.3999 113.132C56.1974 101.91 69.443 97.8457 29.6443 74.6183C19.999 68.9892 12.7343 43.62 14.4643 40.8945Z" fill="#A8A4D0"/>
<path d="M62.1002 102.955C77.9904 124.935 101.49 154.428 97.3489 138.875C94.2639 133.457 92.0897 125.895 108.073 138.991C128.052 155.362 173.676 180.457 105.241 118.331C92.9325 107.158 80.6996 90.6097 54.2843 61.0459C12.4459 14.2207 -41.7032 -44.0269 -11.4055 -4.09031C38.0211 61.0608 3.18795 26.3929 -13.4368 12.4821C-30.0615 -1.42868 38.0594 68.7709 62.1002 102.955Z" fill="#9DB1D2"/>
<path d="M25.7693 62.5836C19.791 76.194 19.3804 97.5417 48.4375 97.9735C52.8191 95.7972 66.3856 95.7795 85.5978 113.119C109.613 134.794 198.843 189.266 133.524 117.474C121.776 104.562 125.336 93.9329 115.752 68.483C100.572 28.1737 74.3329 -24.9504 68.4541 1.79897C58.8635 45.4369 34.1419 10.1284 14.9677 -7.79028C-4.20654 -25.709 37.4166 42.3687 25.7693 62.5836Z" fill="#9BB8E8"/>
<path d="M89.0409 87.8362C114.688 109.198 147.56 133.911 124.386 105.906C117.475 99.13 106.321 85.8047 116.991 86.7087C130.328 87.8388 140.161 62.3581 84.3178 44.6639C74.274 41.4815 55.1558 25.8873 24.2285 6.30491C-24.7564 -24.711 -84.2007 -59.4731 -38.6105 -23.2461C35.7639 35.8533 2.22721 19.8904 -9.35583 18.2901C-20.9389 16.6897 48.6783 53.393 89.0409 87.8362Z" fill="#8B9BE2"/>
<path d="M39.5459 47.9761C41.2589 53.0904 49.3695 65.9496 68.1084 76.472C91.532 89.625 97.2796 83.4306 130.643 99.0328C164.007 114.635 107.127 69.3539 93.5921 61.7731C80.0573 54.1924 67.4746 39.6476 37.2614 16.2956C7.04814 -7.0565 4.19375 9.2811 2.04566 9.22105C-17.2387 12.3892 45.2222 44.7877 39.5459 47.9761Z" fill="#A8A4D0"/>
</g>
</svg>
