<svg width="95" height="100" viewBox="0 0 95 100" fill="none" xmlns="http://www.w3.org/2000/svg">
<mask id="mask0" mask-type="alpha" maskUnits="userSpaceOnUse" x="13" y="16" width="69" height="69">
<path d="M78.9022 85L53.1422 46.36L73.3022 16.04H75.7822L55.5422 46.36L81.3822 85H78.9022ZM42.9822 31.16L32.9022 16.04H39.6222L44.2622 29.32L42.9822 31.16ZM65.0622 85L42.9822 51.88L20.9022 85H13.6222L39.3822 46.36L19.1422 16.04H26.3422L42.9822 41L59.5422 16.04H66.9022L46.5822 46.36L72.4222 85H65.0622ZM29.8622 85H27.3822L42.9822 61.64L45.2222 64.76L29.8622 85Z" fill="#E01414"/>
</mask>
<g mask="url(#mask0)">
<path d="M-54.5503 18.9088C-25.4652 -0.555003 37.2475 20.1288 57.7925 9.80399C107.015 -14.9324 113.677 10.0583 128.779 16.6385C139.075 22.6156 156.501 39.9211 143.827 61.326C127.985 88.0821 104.512 102.112 63.3366 110.449C22.1614 118.785 -2.01899 96.5315 -63.1535 102.448C-124.288 108.365 -108.314 77.4243 -117.163 66.6715C-133.596 46.7021 -71.4766 34.5697 -54.5503 18.9088Z" fill="#9BB8E8"/>
<path d="M42.3364 107.377C63.1224 112.392 108.95 120.922 125.974 114.922C147.254 107.421 108.844 92.9574 124.647 78.0773C140.451 63.1971 26.9936 63.536 14.7874 67.896C2.58125 72.2559 -43.4861 66.2643 -100.51 67.3822C-157.534 68.5001 -77.0456 93.4505 -73.6892 95.6739C-26.3898 120.602 17.9672 97.0174 42.3364 107.377Z" fill="#9FABDE"/>
<path d="M-45.5038 85.8282C-42.0083 79.3273 28.3393 86.2137 33.0546 81.9152C44.3518 71.6167 75.8942 84.6209 88.6559 82.6759C98.3352 81.4775 151.172 64.1298 158.127 68.0704C166.821 72.996 162.899 78.0986 145.343 85.6544C127.787 93.2101 104.787 83.8237 74.4814 94.4882C44.1762 105.153 52.4571 89.1901 -2.95132 103.731C-16.3796 107.255 -44.6948 89.9829 -45.5038 85.8282Z" fill="#A8A4D0"/>
<path d="M50.3268 100.732C83.3946 106.909 129.703 113.204 112.622 102.329C105.211 100.044 96.7629 94.9037 122.261 92.6176C154.134 89.7599 216.333 71.6471 101.945 75.7275C81.372 76.4614 56.2364 72.0576 7.27388 68.3668C-70.2763 62.5211 -168.616 57.1768 -107.265 67.0946C-7.17895 83.274 -68.0257 82.4784 -94.7959 84.5838C-121.566 86.6891 -0.503316 90.5102 50.3268 100.732Z" fill="#9BB8E8"/>
<path d="M-16.765 95.9297C-10.3583 114.24 7.66569 134.748 33.8832 108.546C35.9059 102.481 47.9576 90.0411 79.9833 88.8002C120.015 87.2491 246.306 56.9067 126.364 49.0175C104.791 47.5986 98.8016 34.3156 68.3541 19.0909C20.1292 -5.02304 -48.9721 -31.094 -31.1589 -0.483755C-2.09901 49.4528 -54.5035 38.7932 -86.994 39.4535C-119.484 40.1138 -23.8185 66.1993 -16.765 95.9297Z" fill="#A8A4D0"/>
<path d="M61.2664 61.8036C102.48 58.4634 153.008 51.666 108.27 46.4768C96.2866 46.4155 74.8866 44.0633 85.1558 35.145C97.9924 23.997 84.7893 -9.038 19.876 25.4141C8.20097 31.6105 -22.2373 34.4117 -66.615 44.2661C-136.903 59.8741 -219.722 81.5275 -147.964 73.9426C-30.901 61.5687 -74.4817 77.2261 -86.1631 86.3241C-97.8445 95.4221 -4.30496 66.2835 61.2664 61.8036Z" fill="#8B9BE2"/>
<path d="M-17.094 69.5381C-11.1648 72.7926 7.12652 77.4924 32.8585 70.2555C65.0234 61.2094 64.7998 50.1042 107.916 34.265C151.032 18.4259 61.4327 27.8111 42.8637 33.0564C24.2948 38.3018 0.573622 36.1078 -46.4161 41.7531C-93.4059 47.3984 -81.8713 65.4199 -83.8337 67.3304C-98.2576 87.978 -14.7916 61.3331 -17.094 69.5381Z" fill="#8B9BE2"/>
</g>
</svg>
