<svg width="1159" height="1534" viewBox="0 0 1159 1534" fill="none" xmlns="http://www.w3.org/2000/svg">
<path d="M-21.378 1429.29C126.856 1430.83 204.652 1357.79 336.001 1297.5C419.995 1258.94 366.413 1051.74 439.039 1023.08C512.198 994.216 533.744 846.564 637.5 766.499C675.741 736.99 1274.93 616.182 1121 484.5C1024.27 408.688 662.741 425.186 534.5 395C226.941 267.181 498 202.5 364 32C261.92 -48.3528 161.838 125.923 81.08 130.354C-30.4364 136.474 -106.028 48.7875 -143.655 10.9988L-179 1503.08C-106.059 1503.05 -88.6103 1428.59 -21.378 1429.29Z" fill="#8B9BE2" fill-opacity="0.3"/>
</svg>
