<svg width="859" height="997" viewBox="0 0 859 997" fill="none" xmlns="http://www.w3.org/2000/svg">
<path d="M739.825 51.7706C626.018 53.0869 758.825 121.656 659.104 164C595.334 191.077 538.327 59.2138 483.103 79.4999C427.475 99.9346 452.664 162.331 383.603 272.5C320.603 373 72.1367 366.116 86.7046 445C99.3291 513.361 -42.8595 611.303 13.1033 651C88.7287 700.098 195.603 549.5 360.103 746C526.679 944.979 510.643 605.186 632.966 671.5C712.779 723.546 587.966 773.5 684.799 920.847C739.604 994.5 829.899 972.359 859.467 997V0C803.481 1.17542 791.442 51.1735 739.825 51.7706Z" fill="#9BB8E8" fill-opacity="0.3"/>
</svg>
