<svg width="171" height="127" viewBox="0 0 171 127" fill="none" xmlns="http://www.w3.org/2000/svg">
<circle cx="3" cy="3" r="3" fill="#E4E5E5" fill-opacity="0.3"/>
<circle cx="3" cy="14" r="3" fill="#E4E5E5" fill-opacity="0.3"/>
<circle cx="3" cy="25" r="3" fill="#E4E5E5" fill-opacity="0.3"/>
<circle cx="3" cy="36" r="3" fill="#E4E5E5" fill-opacity="0.3"/>
<circle cx="3" cy="47" r="3" fill="#E4E5E5" fill-opacity="0.3"/>
<circle cx="3" cy="58" r="3" fill="#E4E5E5" fill-opacity="0.3"/>
<circle cx="3" cy="69" r="3" fill="#E4E5E5" fill-opacity="0.3"/>
<circle cx="3" cy="80" r="3" fill="#E4E5E5" fill-opacity="0.3"/>
<circle cx="14" cy="3" r="3" fill="#E4E5E5" fill-opacity="0.3"/>
<circle cx="14" cy="14" r="3" fill="#E4E5E5" fill-opacity="0.3"/>
<circle cx="14" cy="25" r="3" fill="#E4E5E5" fill-opacity="0.3"/>
<circle cx="14" cy="36" r="3" fill="#E4E5E5" fill-opacity="0.3"/>
<circle cx="14" cy="47" r="3" fill="#E4E5E5" fill-opacity="0.3"/>
<circle cx="14" cy="58" r="3" fill="#E4E5E5" fill-opacity="0.3"/>
<circle cx="14" cy="69" r="3" fill="#E4E5E5" fill-opacity="0.3"/>
<circle cx="14" cy="80" r="3" fill="#E4E5E5" fill-opacity="0.3"/>
<circle cx="25" cy="3" r="3" fill="#E4E5E5" fill-opacity="0.3"/>
<circle cx="25" cy="14" r="3" fill="#E4E5E5" fill-opacity="0.3"/>
<circle cx="25" cy="25" r="3" fill="#E4E5E5" fill-opacity="0.3"/>
<circle cx="25" cy="36" r="3" fill="#E4E5E5" fill-opacity="0.3"/>
<circle cx="25" cy="47" r="3" fill="#E4E5E5" fill-opacity="0.3"/>
<circle cx="25" cy="58" r="3" fill="#E4E5E5" fill-opacity="0.3"/>
<circle cx="25" cy="69" r="3" fill="#E4E5E5" fill-opacity="0.3"/>
<circle cx="25" cy="80" r="3" fill="#E4E5E5" fill-opacity="0.3"/>
<circle cx="36" cy="3" r="3" fill="#E4E5E5" fill-opacity="0.3"/>
<circle cx="36" cy="14" r="3" fill="#E4E5E5" fill-opacity="0.3"/>
<circle cx="36" cy="25" r="3" fill="#E4E5E5" fill-opacity="0.3"/>
<circle cx="36" cy="36" r="3" fill="#E4E5E5" fill-opacity="0.3"/>
<circle cx="36" cy="47" r="3" fill="#E4E5E5" fill-opacity="0.3"/>
<circle cx="36" cy="58" r="3" fill="#E4E5E5" fill-opacity="0.3"/>
<circle cx="36" cy="69" r="3" fill="#E4E5E5" fill-opacity="0.3"/>
<circle cx="36" cy="80" r="3" fill="#E4E5E5" fill-opacity="0.3"/>
<circle cx="47" cy="3" r="3" fill="#E4E5E5" fill-opacity="0.3"/>
<circle cx="47" cy="14" r="3" fill="#E4E5E5" fill-opacity="0.3"/>
<circle cx="47" cy="25" r="3" fill="#E4E5E5" fill-opacity="0.3"/>
<circle cx="47" cy="36" r="3" fill="#E4E5E5" fill-opacity="0.3"/>
<circle cx="47" cy="47" r="3" fill="#E4E5E5" fill-opacity="0.3"/>
<circle cx="47" cy="58" r="3" fill="#E4E5E5" fill-opacity="0.3"/>
<circle cx="47" cy="69" r="3" fill="#E4E5E5" fill-opacity="0.3"/>
<circle cx="47" cy="80" r="3" fill="#E4E5E5" fill-opacity="0.3"/>
<circle cx="58" cy="3" r="3" fill="#E4E5E5" fill-opacity="0.3"/>
<circle cx="58" cy="14" r="3" fill="#E4E5E5" fill-opacity="0.3"/>
<circle cx="58" cy="25" r="3" fill="#E4E5E5" fill-opacity="0.3"/>
<circle cx="58" cy="36" r="3" fill="#E4E5E5" fill-opacity="0.3"/>
<circle cx="58" cy="47" r="3" fill="#E4E5E5" fill-opacity="0.3"/>
<circle cx="58" cy="58" r="3" fill="#E4E5E5" fill-opacity="0.3"/>
<circle cx="58" cy="69" r="3" fill="#E4E5E5" fill-opacity="0.3"/>
<circle cx="58" cy="80" r="3" fill="#E4E5E5" fill-opacity="0.3"/>
<circle cx="69" cy="3" r="3" fill="#E4E5E5" fill-opacity="0.3"/>
<circle cx="80" cy="3" r="3" fill="#E4E5E5" fill-opacity="0.3"/>
<circle cx="91" cy="3" r="3" fill="#E4E5E5" fill-opacity="0.3"/>
<circle cx="102" cy="3" r="3" fill="#E4E5E5" fill-opacity="0.3"/>
<circle cx="113" cy="3" r="3" fill="#E4E5E5" fill-opacity="0.3"/>
<circle cx="69" cy="14" r="3" fill="#E4E5E5" fill-opacity="0.3"/>
<circle cx="80" cy="14" r="3" fill="#E4E5E5" fill-opacity="0.3"/>
<circle cx="91" cy="14" r="3" fill="#E4E5E5" fill-opacity="0.3"/>
<circle cx="102" cy="14" r="3" fill="#E4E5E5" fill-opacity="0.3"/>
<circle cx="113" cy="14" r="3" fill="#E4E5E5" fill-opacity="0.3"/>
<circle cx="69" cy="25" r="3" fill="#E4E5E5" fill-opacity="0.3"/>
<circle cx="80" cy="25" r="3" fill="#E4E5E5" fill-opacity="0.3"/>
<circle cx="91" cy="25" r="3" fill="#E4E5E5" fill-opacity="0.3"/>
<circle cx="102" cy="25" r="3" fill="#E4E5E5" fill-opacity="0.3"/>
<circle cx="113" cy="25" r="3" fill="#E4E5E5" fill-opacity="0.3"/>
<circle cx="69" cy="36" r="3" fill="#E4E5E5" fill-opacity="0.3"/>
<circle cx="80" cy="36" r="3" fill="#E4E5E5" fill-opacity="0.3"/>
<circle cx="91" cy="36" r="3" fill="#E4E5E5" fill-opacity="0.3"/>
<circle cx="102" cy="36" r="3" fill="#E4E5E5" fill-opacity="0.3"/>
<circle cx="113" cy="36" r="3" fill="#E4E5E5" fill-opacity="0.3"/>
<circle cx="69" cy="47" r="3" fill="#E4E5E5" fill-opacity="0.3"/>
<circle cx="69" cy="58" r="3" fill="#E4E5E5" fill-opacity="0.3"/>
<circle cx="69" cy="69" r="3" fill="#E4E5E5" fill-opacity="0.3"/>
<circle cx="69" cy="80" r="3" fill="#E4E5E5" fill-opacity="0.3"/>
<circle cx="80" cy="47" r="3" fill="#E4E5E5" fill-opacity="0.3"/>
<circle cx="80" cy="58" r="3" fill="#E4E5E5" fill-opacity="0.3"/>
<circle cx="80" cy="69" r="3" fill="#E4E5E5" fill-opacity="0.3"/>
<circle cx="80" cy="80" r="3" fill="#E4E5E5" fill-opacity="0.3"/>
<circle cx="91" cy="47" r="3" fill="#E4E5E5" fill-opacity="0.3"/>
<circle cx="91" cy="58" r="3" fill="#E4E5E5" fill-opacity="0.3"/>
<circle cx="91" cy="69" r="3" fill="#E4E5E5" fill-opacity="0.3"/>
<circle cx="91" cy="80" r="3" fill="#E4E5E5" fill-opacity="0.3"/>
<circle cx="102" cy="47" r="3" fill="#E4E5E5" fill-opacity="0.3"/>
<circle cx="102" cy="58" r="3" fill="#E4E5E5" fill-opacity="0.3"/>
<circle cx="102" cy="69" r="3" fill="#E4E5E5" fill-opacity="0.3"/>
<circle cx="102" cy="80" r="3" fill="#E4E5E5" fill-opacity="0.3"/>
<circle cx="113" cy="47" r="3" fill="#E4E5E5" fill-opacity="0.3"/>
<circle cx="113" cy="58" r="3" fill="#E4E5E5" fill-opacity="0.3"/>
<circle cx="113" cy="69" r="3" fill="#E4E5E5" fill-opacity="0.3"/>
<circle cx="113" cy="80" r="3" fill="#E4E5E5" fill-opacity="0.3"/>
<circle cx="58" cy="47" r="3" fill="#E4E5E5" fill-opacity="0.3"/>
<circle cx="58" cy="58" r="3" fill="#E4E5E5" fill-opacity="0.3"/>
<circle cx="58" cy="69" r="3" fill="#E4E5E5" fill-opacity="0.3"/>
<circle cx="58" cy="80" r="3" fill="#E4E5E5" fill-opacity="0.3"/>
<circle cx="58" cy="91" r="3" fill="#E4E5E5" fill-opacity="0.3"/>
<circle cx="58" cy="102" r="3" fill="#E4E5E5" fill-opacity="0.3"/>
<circle cx="58" cy="113" r="3" fill="#E4E5E5" fill-opacity="0.3"/>
<circle cx="58" cy="124" r="3" fill="#E4E5E5" fill-opacity="0.3"/>
<circle cx="69" cy="47" r="3" fill="#E4E5E5" fill-opacity="0.3"/>
<circle cx="69" cy="58" r="3" fill="#E4E5E5" fill-opacity="0.3"/>
<circle cx="69" cy="69" r="3" fill="#E4E5E5" fill-opacity="0.3"/>
<circle cx="69" cy="80" r="3" fill="#E4E5E5" fill-opacity="0.3"/>
<circle cx="69" cy="91" r="3" fill="#E4E5E5" fill-opacity="0.3"/>
<circle cx="69" cy="102" r="3" fill="#E4E5E5" fill-opacity="0.3"/>
<circle cx="69" cy="113" r="3" fill="#E4E5E5" fill-opacity="0.3"/>
<circle cx="69" cy="124" r="3" fill="#E4E5E5" fill-opacity="0.3"/>
<circle cx="80" cy="47" r="3" fill="#E4E5E5" fill-opacity="0.3"/>
<circle cx="80" cy="58" r="3" fill="#E4E5E5" fill-opacity="0.3"/>
<circle cx="80" cy="69" r="3" fill="#E4E5E5" fill-opacity="0.3"/>
<circle cx="80" cy="80" r="3" fill="#E4E5E5" fill-opacity="0.3"/>
<circle cx="80" cy="91" r="3" fill="#E4E5E5" fill-opacity="0.3"/>
<circle cx="80" cy="102" r="3" fill="#E4E5E5" fill-opacity="0.3"/>
<circle cx="80" cy="113" r="3" fill="#E4E5E5" fill-opacity="0.3"/>
<circle cx="80" cy="124" r="3" fill="#E4E5E5" fill-opacity="0.3"/>
<circle cx="91" cy="47" r="3" fill="#E4E5E5" fill-opacity="0.3"/>
<circle cx="91" cy="58" r="3" fill="#E4E5E5" fill-opacity="0.3"/>
<circle cx="91" cy="69" r="3" fill="#E4E5E5" fill-opacity="0.3"/>
<circle cx="91" cy="80" r="3" fill="#E4E5E5" fill-opacity="0.3"/>
<circle cx="91" cy="91" r="3" fill="#E4E5E5" fill-opacity="0.3"/>
<circle cx="91" cy="102" r="3" fill="#E4E5E5" fill-opacity="0.3"/>
<circle cx="91" cy="113" r="3" fill="#E4E5E5" fill-opacity="0.3"/>
<circle cx="91" cy="124" r="3" fill="#E4E5E5" fill-opacity="0.3"/>
<circle cx="102" cy="47" r="3" fill="#E4E5E5" fill-opacity="0.3"/>
<circle cx="102" cy="58" r="3" fill="#E4E5E5" fill-opacity="0.3"/>
<circle cx="102" cy="69" r="3" fill="#E4E5E5" fill-opacity="0.3"/>
<circle cx="102" cy="80" r="3" fill="#E4E5E5" fill-opacity="0.3"/>
<circle cx="102" cy="91" r="3" fill="#E4E5E5" fill-opacity="0.3"/>
<circle cx="102" cy="102" r="3" fill="#E4E5E5" fill-opacity="0.3"/>
<circle cx="102" cy="113" r="3" fill="#E4E5E5" fill-opacity="0.3"/>
<circle cx="102" cy="124" r="3" fill="#E4E5E5" fill-opacity="0.3"/>
<circle cx="113" cy="47" r="3" fill="#E4E5E5" fill-opacity="0.3"/>
<circle cx="113" cy="58" r="3" fill="#E4E5E5" fill-opacity="0.3"/>
<circle cx="113" cy="69" r="3" fill="#E4E5E5" fill-opacity="0.3"/>
<circle cx="113" cy="80" r="3" fill="#E4E5E5" fill-opacity="0.3"/>
<circle cx="113" cy="91" r="3" fill="#E4E5E5" fill-opacity="0.3"/>
<circle cx="113" cy="102" r="3" fill="#E4E5E5" fill-opacity="0.3"/>
<circle cx="113" cy="113" r="3" fill="#E4E5E5" fill-opacity="0.3"/>
<circle cx="113" cy="124" r="3" fill="#E4E5E5" fill-opacity="0.3"/>
<circle cx="124" cy="47" r="3" fill="#E4E5E5" fill-opacity="0.3"/>
<circle cx="135" cy="47" r="3" fill="#E4E5E5" fill-opacity="0.3"/>
<circle cx="146" cy="47" r="3" fill="#E4E5E5" fill-opacity="0.3"/>
<circle cx="157" cy="47" r="3" fill="#E4E5E5" fill-opacity="0.3"/>
<circle cx="168" cy="47" r="3" fill="#E4E5E5" fill-opacity="0.3"/>
<circle cx="124" cy="58" r="3" fill="#E4E5E5" fill-opacity="0.3"/>
<circle cx="135" cy="58" r="3" fill="#E4E5E5" fill-opacity="0.3"/>
<circle cx="146" cy="58" r="3" fill="#E4E5E5" fill-opacity="0.3"/>
<circle cx="157" cy="58" r="3" fill="#E4E5E5" fill-opacity="0.3"/>
<circle cx="168" cy="58" r="3" fill="#E4E5E5" fill-opacity="0.3"/>
<circle cx="124" cy="69" r="3" fill="#E4E5E5" fill-opacity="0.3"/>
<circle cx="135" cy="69" r="3" fill="#E4E5E5" fill-opacity="0.3"/>
<circle cx="146" cy="69" r="3" fill="#E4E5E5" fill-opacity="0.3"/>
<circle cx="157" cy="69" r="3" fill="#E4E5E5" fill-opacity="0.3"/>
<circle cx="168" cy="69" r="3" fill="#E4E5E5" fill-opacity="0.3"/>
<circle cx="124" cy="80" r="3" fill="#E4E5E5" fill-opacity="0.3"/>
<circle cx="135" cy="80" r="3" fill="#E4E5E5" fill-opacity="0.3"/>
<circle cx="146" cy="80" r="3" fill="#E4E5E5" fill-opacity="0.3"/>
<circle cx="157" cy="80" r="3" fill="#E4E5E5" fill-opacity="0.3"/>
<circle cx="168" cy="80" r="3" fill="#E4E5E5" fill-opacity="0.3"/>
<circle cx="124" cy="91" r="3" fill="#E4E5E5" fill-opacity="0.3"/>
<circle cx="124" cy="102" r="3" fill="#E4E5E5" fill-opacity="0.3"/>
<circle cx="124" cy="113" r="3" fill="#E4E5E5" fill-opacity="0.3"/>
<circle cx="124" cy="124" r="3" fill="#E4E5E5" fill-opacity="0.3"/>
<circle cx="135" cy="91" r="3" fill="#E4E5E5" fill-opacity="0.3"/>
<circle cx="135" cy="102" r="3" fill="#E4E5E5" fill-opacity="0.3"/>
<circle cx="135" cy="113" r="3" fill="#E4E5E5" fill-opacity="0.3"/>
<circle cx="135" cy="124" r="3" fill="#E4E5E5" fill-opacity="0.3"/>
<circle cx="146" cy="91" r="3" fill="#E4E5E5" fill-opacity="0.3"/>
<circle cx="146" cy="102" r="3" fill="#E4E5E5" fill-opacity="0.3"/>
<circle cx="146" cy="113" r="3" fill="#E4E5E5" fill-opacity="0.3"/>
<circle cx="146" cy="124" r="3" fill="#E4E5E5" fill-opacity="0.3"/>
<circle cx="157" cy="91" r="3" fill="#E4E5E5" fill-opacity="0.3"/>
<circle cx="157" cy="102" r="3" fill="#E4E5E5" fill-opacity="0.3"/>
<circle cx="157" cy="113" r="3" fill="#E4E5E5" fill-opacity="0.3"/>
<circle cx="157" cy="124" r="3" fill="#E4E5E5" fill-opacity="0.3"/>
<circle cx="168" cy="91" r="3" fill="#E4E5E5" fill-opacity="0.3"/>
<circle cx="168" cy="102" r="3" fill="#E4E5E5" fill-opacity="0.3"/>
<circle cx="168" cy="113" r="3" fill="#E4E5E5" fill-opacity="0.3"/>
<circle cx="168" cy="124" r="3" fill="#E4E5E5" fill-opacity="0.3"/>
</svg>
