<?xml version="1.0" ?><!DOCTYPE svg  PUBLIC '-//W3C//DTD SVG 1.1//EN'  'http://www.w3.org/Graphics/SVG/1.1/DTD/svg11.dtd'><svg height="100%" style="fill-rule:evenodd;clip-rule:evenodd;stroke-linejoin:round;stroke-miterlimit:2;" version="1.1" viewBox="0 0 512 512" width="100%" xml:space="preserve" xmlns="http://www.w3.org/2000/svg" xmlns:serif="http://www.serif.com/" xmlns:xlink="http://www.w3.org/1999/xlink"><path d="M430.421,512.004l-348.835,0c-45.056,0 -81.586,-36.53 -81.586,-81.583l0,-348.831c0,-45.065 36.53,-81.592 81.586,-81.592l348.835,0c45.05,0 81.581,36.527 81.581,81.592l0,348.831c0,45.052 -36.53,81.582 -81.581,81.583Zm-48.383,-112.702c2.692,0 4.291,-1.202 5.043,-3.769c0.871,-2.96 1.504,-5.772 2.128,-8.637c1.719,-7.869 2.835,-11.623 5.715,-12.065c35.255,-5.447 45.334,-12.86 47.57,-18.089c0.324,-0.744 0.509,-1.508 0.554,-2.268c0.11,-2.024 -1.319,-3.809 -3.32,-4.14c-54.201,-8.931 -78.474,-64.287 -79.482,-66.636c-0.025,-0.068 -0.058,-0.131 -0.088,-0.196c-3.315,-6.724 -3.966,-12.553 -1.934,-17.331c3.715,-8.761 15.836,-12.608 23.872,-15.158c1.971,-0.626 3.833,-1.217 5.289,-1.789c14.054,-5.552 16.919,-11.193 16.848,-14.947c-0.076,-3.984 -3.641,-7.798 -9.082,-9.727l-0.117,-0.047c-1.916,-0.8 -4.224,-1.241 -6.5,-1.241c-1.491,0 -3.68,0.194 -5.652,1.115c-6.728,3.152 -12.857,4.852 -18.191,5.056l-0.008,0c-7.019,-0.269 -10.126,-3.261 -10.514,-3.656c0.181,-3.316 0.397,-6.781 0.621,-10.344l0.068,-1.113c1.615,-25.594 3.62,-57.449 -4.485,-75.625c-24.3,-54.484 -75.915,-58.724 -91.157,-58.724l-0.9,0.005c0,0 -6.277,0.066 -6.667,0.066c-15.206,0 -66.708,4.232 -90.995,58.686c-8.103,18.167 -6.104,49.993 -4.491,75.607c0.25,3.952 0.494,7.781 0.691,11.448c-0.414,0.427 -3.793,3.68 -11.534,3.68c-5.603,0 -12.096,-1.71 -19.301,-5.086c-1.239,-0.578 -2.712,-0.874 -4.384,-0.874c-6.101,0 -13.644,3.933 -14.718,9.577c-0.629,3.313 0.704,9.812 16.721,16.144c1.468,0.58 3.33,1.168 5.294,1.789c8.026,2.546 20.152,6.397 23.869,15.159c2.03,4.781 1.38,10.614 -1.936,17.333c-0.029,0.065 -0.059,0.128 -0.086,0.193c-1.009,2.352 -25.303,57.723 -79.48,66.645c-2,0.326 -3.433,2.113 -3.319,4.136c0.044,0.747 0.224,1.502 0.543,2.254c2.249,5.267 12.337,12.69 47.578,18.134c3.025,0.464 4.144,4.9 5.719,12.116c0.61,2.803 1.245,5.701 2.125,8.693c1.01,3.454 3.336,3.919 5.482,3.919c2.054,0 4.758,-0.528 7.891,-1.141c5.157,-1.008 12.22,-2.39 21.173,-2.39c4.97,0 10.113,0.434 15.279,1.289c10.589,1.764 19.575,8.115 29.098,14.845c13.791,9.75 28.053,19.832 50.273,19.832c0.633,0 1.267,-0.026 1.872,-0.073l0.002,0c0.95,0.045 1.9,0.073 2.866,0.073c22.227,0 36.487,-10.082 50.306,-19.855c9.506,-6.719 18.486,-13.058 29.062,-14.822c5.17,-0.855 10.315,-1.289 15.287,-1.289c8.514,0 15.206,1.075 21.175,2.242c3.365,0.662 6.022,0.996 7.888,0.996l0.439,0Z" style="fill-rule:nonzero;"/></svg>