<?xml version="1.0" ?><!DOCTYPE svg  PUBLIC '-//W3C//DTD SVG 1.1//EN'  'http://www.w3.org/Graphics/SVG/1.1/DTD/svg11.dtd'><svg height="100%" style="fill-rule:evenodd;clip-rule:evenodd;stroke-linejoin:round;stroke-miterlimit:2;" version="1.1" viewBox="0 0 512 512" width="100%" xml:space="preserve" xmlns="http://www.w3.org/2000/svg" xmlns:serif="http://www.serif.com/" xmlns:xlink="http://www.w3.org/1999/xlink"><path d="M512,0l0,512l-512,0l0,-512l512,0Zm-87.288,388.595l0,-5.779l-26.817,-26.328c-2.367,-1.804 -3.542,-4.77 -3.051,-7.705l0,-193.443c-0.491,-2.935 0.684,-5.901 3.051,-7.705l27.459,-26.328l0,-5.779l-95.063,0l-67.764,169.041l-77.077,-169.041l-99.72,0l0,5.779l32.116,38.689c3.153,2.842 4.763,7.015 4.336,11.237l0,152.025c0.935,5.484 -0.793,11.086 -4.657,15.09l-36.13,43.826l0,5.779l102.449,0l0,-5.779l-36.13,-43.826c-3.892,-3.997 -5.728,-9.562 -4.978,-15.09l0,-131.477l89.924,196.172l10.437,0l77.239,-196.172l0,156.36c0,4.173 0,4.976 -2.73,7.705l-27.78,26.97l0,5.779l134.886,0Z" id="Rectangle-path"/></svg>