<?xml version="1.0" ?><!DOCTYPE svg  PUBLIC '-//W3C//DTD SVG 1.1//EN'  'http://www.w3.org/Graphics/SVG/1.1/DTD/svg11.dtd'><svg height="100%" style="fill-rule:evenodd;clip-rule:evenodd;stroke-linejoin:round;stroke-miterlimit:2;" version="1.1" viewBox="0 0 512 512" width="100%" xml:space="preserve" xmlns="http://www.w3.org/2000/svg" xmlns:serif="http://www.serif.com/" xmlns:xlink="http://www.w3.org/1999/xlink"><path d="M72.084,202.105l139.004,0l0,-31.438l98.807,0l0,31.438l31.438,0l0,13.474l13.474,-13.474l40.295,0l22.677,-31.438l49.309,0l0,31.438l22.456,0l22.456,22.456l0,76.351l-40.421,40.421l-112.281,0l-17.965,-17.965l0,17.965l-58.386,0l-17.965,-17.965l0,17.965l-121.263,0l-17.965,-17.965l0,17.965l-62.877,0l-62.877,-62.877l0,-107.789l49.404,0l22.68,31.438Zm4.267,89.829l0,-35.934l-31.439,0l0,-8.978l31.439,0l0,-35.934l-31.439,0l0,-31.439l-35.93,0l0,94.32l17.965,17.965l49.404,0Zm264.982,-17.965l17.965,17.965l53.895,0l0,-35.934l-35.93,0l0,-8.978l35.93,0l0,-35.934l-53.895,0l-17.965,17.965l0,44.916Zm-8.982,17.965l0,-35.934l-31.439,0l0,-8.978l31.439,0l0,-35.934l-31.439,0l0,-31.439l-35.93,0l0,94.32l17.965,17.965l49.404,0Zm125.754,0l0,-44.912l8.983,0l0,44.912l35.93,0l0,-62.881l-17.965,-17.965l-26.948,0l0,-31.439l-35.93,0l0,112.285l35.93,0Zm-247.017,0l0,-80.846l-35.93,0l0,44.912l-8.983,0l0,-44.912l-35.929,0l0,44.912l-8.983,0l0,-44.912l-35.93,0l0,62.881l17.965,17.965l107.79,0Zm44.912,-0.004l0,-80.842l-35.93,0l0,80.842l35.93,0Zm0,-89.825l0,-22.456l-35.93,0l0,22.456l35.93,0Z" id="Layer_1-2" style="fill-rule:nonzero;"/></svg>