<?xml version="1.0" ?><!DOCTYPE svg  PUBLIC '-//W3C//DTD SVG 1.1//EN'  'http://www.w3.org/Graphics/SVG/1.1/DTD/svg11.dtd'><svg height="100%" style="fill-rule:evenodd;clip-rule:evenodd;stroke-linejoin:round;stroke-miterlimit:2;" version="1.1" viewBox="0 0 512 512" width="100%" xml:space="preserve" xmlns="http://www.w3.org/2000/svg" xmlns:serif="http://www.serif.com/" xmlns:xlink="http://www.w3.org/1999/xlink"><path d="M42.332,285.79c2.015,0 3.933,-0.179 5.737,-0.584c1.832,-0.397 3.453,-1.034 4.828,-1.972c1.367,-0.901 2.505,-2.14 3.328,-3.707c0.826,-1.56 1.224,-3.586 1.224,-6.03c0,-4.792 -1.353,-8.199 -4.034,-10.264c-2.691,-2.04 -6.273,-3.053 -10.678,-3.053l-22.264,0l0,25.61l21.859,0Zm-1.134,-39.588c3.625,0 6.631,-0.859 9.011,-2.606c2.355,-1.721 3.493,-4.559 3.493,-8.46c0,-2.161 -0.376,-3.951 -1.138,-5.339c-0.791,-1.389 -1.84,-2.473 -3.157,-3.235c-1.31,-0.791 -2.791,-1.335 -4.505,-1.632c-1.69,-0.33 -3.454,-0.458 -5.268,-0.458l-19.161,0l0,21.73l20.725,0Zm2.648,-37.574c4.448,0 8.464,0.383 12.132,1.181c3.65,0.773 6.76,2.065 9.394,3.837c2.591,1.771 4.62,4.126 6.073,7.093c1.414,2.924 2.126,6.585 2.126,10.912c0,4.68 -1.059,8.592 -3.189,11.72c-2.14,3.121 -5.286,5.679 -9.483,7.669c5.715,1.646 9.959,4.542 12.769,8.661c2.823,4.147 4.208,9.108 4.208,14.927c0,4.716 -0.902,8.775 -2.709,12.192c-1.822,3.457 -4.302,6.26 -7.358,8.421c-3.081,2.18 -6.613,3.783 -10.579,4.824c-3.918,1.038 -7.987,1.564 -12.16,1.564l-45.071,0l0,-93.001l43.847,0Z" style="fill:#030404;fill-rule:nonzero;"/><path d="M128.315,250.099c-2.201,-2.43 -5.919,-3.747 -10.461,-3.747c-2.956,0 -5.4,0.497 -7.361,1.51c-1.918,1.002 -3.486,2.244 -4.685,3.711c-1.195,1.489 -2.004,3.064 -2.48,4.746c-0.472,1.639 -0.759,3.124 -0.841,4.437l30.09,0c-0.44,-4.716 -2.054,-8.206 -4.262,-10.657Zm-21.254,35.383c2.773,2.705 6.778,4.065 11.967,4.065c3.729,0 6.95,-0.941 9.656,-2.823c2.68,-1.879 4.312,-3.887 4.942,-5.97l16.29,0c-2.619,8.106 -6.588,13.893 -12.01,17.379c-5.357,3.496 -11.885,5.239 -19.497,5.239c-5.304,0 -10.078,-0.859 -14.365,-2.548c-4.284,-1.714 -7.863,-4.112 -10.876,-7.243c-2.934,-3.143 -5.214,-6.857 -6.839,-11.22c-1.607,-4.341 -2.416,-9.147 -2.416,-14.354c0,-5.035 0.841,-9.738 2.488,-14.086c1.675,-4.362 4.001,-8.127 7.053,-11.284c3.06,-3.174 6.685,-5.679 10.908,-7.512c4.227,-1.821 8.886,-2.737 14.047,-2.737c5.697,0 10.683,1.095 14.963,3.328c4.258,2.204 7.755,5.189 10.5,8.925c2.741,3.729 4.699,7.995 5.919,12.78c1.21,4.778 1.635,9.766 1.288,14.991l-48.592,0c0,5.326 1.797,10.364 4.574,13.07Z" style="fill:#030404;fill-rule:nonzero;"/><path d="M177.351,208.628l0,35.069l0.422,0c2.351,-3.905 5.318,-6.739 8.965,-8.496c3.643,-1.772 7.2,-2.649 10.668,-2.649c4.942,0 8.986,0.648 12.15,1.99c3.164,1.36 5.669,3.203 7.497,5.601c1.8,2.387 3.071,5.304 3.815,8.736c0.734,3.424 1.11,7.204 1.11,11.369l0,41.381l-18.581,0l0,-38.02c0,-5.547 -0.866,-9.717 -2.595,-12.444c-1.725,-2.727 -4.784,-4.097 -9.211,-4.097c-5.003,0 -8.614,1.517 -10.855,4.505c-2.283,2.992 -3.385,7.92 -3.385,14.766l0,35.29l-18.588,0l0,-93.001l18.588,0Z" style="fill:#030404;fill-rule:nonzero;"/><path d="M271.59,270.347c-1.156,0.383 -2.427,0.702 -3.74,0.981c-1.356,0.258 -2.77,0.465 -4.241,0.655c-1.456,0.172 -2.952,0.376 -4.402,0.633c-1.388,0.276 -2.773,0.616 -4.09,1.056c-1.346,0.433 -2.52,1.016 -3.482,1.754c-1.006,0.748 -1.804,1.678 -2.42,2.798c-0.586,1.12 -0.909,2.581 -0.909,4.305c0,1.643 0.323,3.035 0.909,4.173c0.616,1.131 1.414,2.012 2.466,2.666c1.042,0.659 2.266,1.113 3.633,1.364c1.388,0.279 2.816,0.379 4.28,0.379c3.636,0 6.438,-0.605 8.439,-1.814c1.982,-1.217 3.485,-2.673 4.419,-4.366c0.956,-1.697 1.528,-3.404 1.718,-5.129c0.243,-1.735 0.354,-3.131 0.354,-4.18l0,-6.917c-0.801,0.708 -1.746,1.256 -2.934,1.642Zm-36.403,-26.203c1.879,-2.863 4.305,-5.182 7.254,-6.914c2.956,-1.757 6.256,-2.988 9.96,-3.726c3.7,-0.758 7.39,-1.116 11.14,-1.116c3.368,0 6.782,0.236 10.296,0.715c3.457,0.476 6.617,1.41 9.487,2.806c2.867,1.403 5.193,3.321 7.004,5.823c1.836,2.444 2.763,5.744 2.763,9.841l0,35.097c0,3.053 0.179,5.948 0.508,8.729c0.369,2.798 1.317,4.899 2.215,6.273l-18.892,-0.043c-0.555,-0.805 -1.016,-2.061 -1.231,-3.16c-0.215,-1.077 -0.369,-2.183 -0.454,-3.317c-2.942,3.045 -6.396,5.185 -10.411,6.409c-3.987,1.203 -8.056,1.811 -12.229,1.811c-3.199,0 -6.177,-0.404 -8.968,-1.188c-2.745,-0.784 -5.186,-1.997 -7.268,-3.64c-2.09,-1.675 -3.694,-3.75 -4.864,-6.266c-1.17,-2.527 -1.771,-5.536 -1.771,-9.011c0,-3.837 0.687,-6.993 2.05,-9.466c1.321,-2.473 3.039,-4.459 5.193,-5.93c2.119,-1.485 4.549,-2.598 7.297,-3.328c2.727,-0.738 5.493,-1.342 8.238,-1.768c2.785,-0.43 5.501,-0.773 8.21,-1.042c2.716,-0.268 5.067,-0.647 7.165,-1.173c2.075,-0.519 3.732,-1.3 4.953,-2.291c1.195,-0.998 1.778,-2.444 1.692,-4.377c0,-1.989 -0.354,-3.582 -0.991,-4.763c-0.644,-1.167 -1.514,-2.072 -2.577,-2.727c-1.095,-0.655 -2.319,-1.088 -3.736,-1.317c-1.439,-0.207 -2.967,-0.326 -4.591,-0.326c-3.622,0 -6.489,0.806 -8.518,2.352c-2.086,1.592 -3.289,4.212 -3.657,7.873l-18.56,0c0.272,-4.37 1.346,-7.974 3.293,-10.84Z" style="fill:#030404;fill-rule:nonzero;"/><path d="M320.833,234.306l0,9.391l0.415,0c2.337,-3.905 5.358,-6.739 9.108,-8.496c3.722,-1.772 7.573,-2.649 11.474,-2.649c4.967,0 9.036,0.648 12.182,1.99c3.206,1.36 5.697,3.203 7.501,5.601c1.846,2.387 3.12,5.304 3.858,8.736c0.755,3.424 1.123,7.204 1.123,11.369l0,41.381l-18.598,0l0,-38.02c0,-5.547 -0.866,-9.717 -2.602,-12.444c-1.761,-2.727 -4.792,-4.477 -9.248,-4.477c-5.031,0 -8.699,1.897 -10.943,4.885c-2.273,2.992 -3.389,7.92 -3.389,14.766l0,35.29l-18.399,0l0,-67.323l17.518,0Z" style="fill:#030404;fill-rule:nonzero;"/><path d="M407.65,246.352c-2.97,0 -5.425,0.658 -7.401,2.018c-2.018,1.36 -3.665,3.085 -4.921,5.222c-1.267,2.122 -2.133,4.47 -2.673,7.039c-0.508,2.57 -0.787,5.111 -0.787,7.641c0,2.444 0.279,4.917 0.787,7.447c0.54,2.52 1.367,4.785 2.541,6.853c1.188,2.026 2.773,3.697 4.774,5.011c1.983,1.313 4.405,1.964 7.279,1.964c4.448,0 7.859,-1.241 10.25,-3.704c2.383,-2.476 3.857,-5.801 4.473,-9.97l17.869,0c-1.228,8.936 -4.703,15.754 -10.418,20.46c-5.737,4.67 -13.091,7.039 -22.038,7.039c-5.053,0 -9.652,-0.859 -13.889,-2.548c-4.23,-1.714 -7.82,-4.073 -10.783,-7.115c-2.959,-3.052 -5.253,-6.677 -6.935,-10.897c-1.643,-4.223 -2.466,-8.857 -2.466,-13.889c0,-5.214 0.762,-10.07 2.283,-14.558c1.518,-4.474 3.754,-8.346 6.742,-11.595c2.957,-3.271 6.567,-5.812 10.844,-7.645c4.259,-1.821 9.129,-2.737 14.591,-2.737c4.001,0 7.837,0.54 11.545,1.553c3.679,1.031 6.992,2.62 9.891,4.76c2.906,2.118 5.29,4.767 7.122,7.919c1.804,3.153 2.834,6.932 3.117,11.252l-18.13,0c-1.202,-7.684 -5.762,-11.52 -13.667,-11.52Z" style="fill:#030404;fill-rule:nonzero;"/><rect height="9.176" style="fill:#030404;" width="37.698" x="98.701" y="214.87"/><path d="M489.134,250.099c-2.229,-2.43 -5.98,-3.747 -10.468,-3.747c-2.952,0 -5.407,0.497 -7.4,1.51c-1.915,1.002 -3.669,2.244 -4.839,3.711c-1.181,1.489 -2.018,3.064 -2.512,4.746c-0.444,1.639 -0.748,3.124 -0.827,4.437l30.319,0c-0.494,-4.716 -2.068,-8.206 -4.273,-10.657Zm-21.483,35.383c2.774,2.705 6.968,4.065 12.196,4.065c3.726,0 6.947,-0.941 9.631,-2.823c2.687,-1.879 4.348,-3.887 4.949,-5.97l16.287,0c-2.602,8.106 -6.606,13.893 -11.985,17.379c-5.375,3.496 -11.882,5.239 -19.526,5.239c-5.314,0 -10.113,-0.859 -14.358,-2.548c-4.28,-1.714 -7.866,-4.112 -10.858,-7.243c-2.97,-3.143 -5.242,-6.857 -6.856,-11.22c-1.611,-4.341 -2.405,-9.147 -2.405,-14.354c0,-5.035 0.823,-9.738 2.473,-14.086c1.664,-4.362 4.033,-8.127 7.068,-11.284c3.074,-3.174 6.67,-5.679 10.883,-7.512c4.226,-1.821 8.925,-2.737 14.053,-2.737c5.698,0 10.711,1.095 14.938,3.328c4.276,2.204 7.787,5.189 10.511,8.925c2.745,3.729 4.72,7.995 5.922,12.78c1.196,4.778 1.657,9.766 1.314,14.991l-48.8,0c0,5.326 1.779,10.364 4.563,13.07Z" style="fill:#030404;fill-rule:nonzero;"/></svg>