<?xml version="1.0" ?><!DOCTYPE svg  PUBLIC '-//W3C//DTD SVG 1.1//EN'  'http://www.w3.org/Graphics/SVG/1.1/DTD/svg11.dtd'><svg height="100%" style="fill-rule:evenodd;clip-rule:evenodd;stroke-linejoin:round;stroke-miterlimit:2;" version="1.1" viewBox="0 0 512 512" width="100%" xml:space="preserve" xmlns="http://www.w3.org/2000/svg" xmlns:serif="http://www.serif.com/" xmlns:xlink="http://www.w3.org/1999/xlink"><path d="M449.703,307.387l42.208,0l0,-16.567l-8.621,0l0,-21.59c0,-14.691 10.339,-17.915 18.211,-17.915l10.495,0l0,-22.114l-8.471,0c-9.591,0 -18.439,4.647 -22.415,12.068l0,-11.169l-32.155,0l0,16.866l9.298,0l0,43.854l-8.55,0l0,16.567Zm-52.324,0l42.955,0l0,-16.567l-9.148,0l0,-87.106l-35.382,0l0,16.717l10.345,0l0,70.389l-8.77,0l0,16.567Zm-43.255,-17.917c-7.567,0 -14.991,-4.798 -14.991,-19.939c0,-18.216 8.77,-21.44 14.841,-21.44c7.046,0 13.267,5.697 13.267,19.866c0,20.39 -9.142,21.064 -13.117,21.513Zm5.4,18.816c21.588,0 33.209,-16.19 33.209,-40.48c0,-23.313 -10.794,-38.605 -32.76,-38.605c-7.723,0 -15.44,2.924 -20.092,6.522l0,-32.009l-35.681,0l0,16.717l10.345,0l0,86.956l23.761,0l0,-6.822c6.071,5.099 13.345,7.721 21.218,7.721Zm-197.152,-0.899l42.65,0l0,-16.567l-8.693,0l0,-28.86c0,-4.199 3.598,-12.819 14.542,-12.819c8.842,0 10.644,5.398 10.644,11.77l0,29.909l-8.621,0l0,16.567l42.357,0l0,-16.567l-8.848,0l0,-28.86c0,-4.199 3.22,-12.819 14.242,-12.819c8.921,0 11.094,5.398 11.094,11.77l0,29.909l-8.472,0l0,16.567l42.13,0l0,-16.567l-8.621,0l0,-26.986c0,-15.893 -5.993,-34.633 -29.683,-34.633c-11.692,0 -21.289,5.547 -25.336,12.369c-5.101,-7.722 -12.824,-12.369 -24.367,-12.369c-9.148,0 -19.187,3.897 -24.588,11.319l0,-10.42l-32.005,0l0,16.866l10.345,0l0,43.854l-8.77,0l0,16.567Zm-63.048,0.899c8.842,0 19.038,-3.822 24.588,-10.644l0,9.745l29.162,0l0,-16.567l-7.424,0l0,-60.72l-35.232,0l0,16.866l10.046,0l0,29.236c0,2.326 -1.946,12.145 -15.141,12.145c-8.471,0 -10.046,-5.098 -10.046,-11.546l0,-46.701l-25.935,0l0,47.752c0,11.918 5.394,30.434 29.982,30.434Zm-57.946,-0.899c-15.59,0 -27.21,-8.021 -27.21,-27.212l0,-30.734l-14.172,0l0,-16.641c15.596,-4.049 22.116,-17.467 22.864,-29.086l16.195,0l0,26.386l18.888,0l0,19.341l-18.888,0l0,26.761c0,8.022 4.047,10.795 10.495,10.795l9.148,0l0,20.39l-17.32,0Z" style="fill-rule:nonzero;"/></svg>