<?xml version="1.0" ?><!DOCTYPE svg  PUBLIC '-//W3C//DTD SVG 1.1//EN'  'http://www.w3.org/Graphics/SVG/1.1/DTD/svg11.dtd'><svg height="100%" style="fill-rule:evenodd;clip-rule:evenodd;stroke-linejoin:round;stroke-miterlimit:2;" version="1.1" viewBox="0 0 512 512" width="100%" xml:space="preserve" xmlns="http://www.w3.org/2000/svg" xmlns:serif="http://www.serif.com/" xmlns:xlink="http://www.w3.org/1999/xlink"><path d="M448,512l-384,0c-35.348,0 -64,-28.652 -64,-64l0,-384c0,-35.344 28.652,-64 64,-64l384,0c35.348,0 64,28.656 64,64l0,384c0,35.348 -28.652,64 -64,64Zm-5.736,-256c0,-21.992 -17.828,-39.82 -39.82,-39.82c-10.736,0 -20.456,4.268 -27.62,11.172c-27.22,-19.64 -64.724,-32.328 -106.496,-33.784l18.14,-85.348l59.264,12.6c0.724,15.068 13.064,27.092 28.308,27.092c15.712,0 28.448,-12.736 28.448,-28.444c0,-15.708 -12.736,-28.444 -28.448,-28.444c-11.172,0 -20.74,6.504 -25.392,15.876l-66.18,-14.068c-1.84,-0.4 -3.772,-0.04 -5.348,0.992c-1.588,1.028 -2.692,2.644 -3.088,4.488l-20.256,95.228c-42.384,1.176 -80.488,13.88 -108.06,33.74c-7.152,-6.86 -16.844,-11.1 -27.54,-11.1c-21.992,0 -39.824,17.828 -39.824,39.82c0,16.18 9.668,30.08 23.528,36.312c-0.612,3.96 -0.948,7.976 -0.948,12.044c0,61.268 71.316,110.932 159.288,110.932c87.972,0 159.292,-49.664 159.292,-110.932c0,-4.04 -0.332,-8.032 -0.936,-11.964c13.948,-6.196 23.688,-20.144 23.688,-36.392Zm-114.416,103.612c-19.412,19.384 -56.612,20.892 -67.548,20.892c-10.944,0 -48.148,-1.508 -67.536,-20.896c-2.88,-2.88 -2.88,-7.548 0,-10.428c2.876,-2.872 7.548,-2.876 10.424,0c12.236,12.24 38.412,16.584 57.112,16.584c18.696,0 44.876,-4.344 57.132,-16.588c2.888,-2.872 7.552,-2.868 10.424,0.008c2.88,2.884 2.876,7.548 -0.008,10.428Zm-5.008,-46.716c-15.68,0 -28.444,-12.76 -28.444,-28.44c0,-15.688 12.764,-28.456 28.444,-28.456c15.684,0 28.448,12.768 28.448,28.456c0,15.68 -12.764,28.44 -28.448,28.44Zm-153.596,-28.444c0,-15.688 12.764,-28.452 28.456,-28.452c15.676,0 28.432,12.764 28.432,28.452c0,15.68 -12.756,28.436 -28.432,28.436c-15.692,0 -28.456,-12.756 -28.456,-28.436Z" style="fill-rule:nonzero;"/></svg>