<?xml version="1.0" ?><!DOCTYPE svg  PUBLIC '-//W3C//DTD SVG 1.1//EN'  'http://www.w3.org/Graphics/SVG/1.1/DTD/svg11.dtd'><svg height="100%" style="fill-rule:evenodd;clip-rule:evenodd;stroke-linejoin:round;stroke-miterlimit:2;" version="1.1" viewBox="0 0 512 512" width="100%" xml:space="preserve" xmlns="http://www.w3.org/2000/svg" xmlns:serif="http://www.serif.com/" xmlns:xlink="http://www.w3.org/1999/xlink"><g><path d="M255.111,291.623c0.894,-2.333 1.343,-6.148 1.343,-11.442l0,-22.304c0,-5.137 -0.449,-8.892 -1.343,-11.268c-0.895,-2.373 -2.472,-3.561 -4.729,-3.561c-2.18,0 -3.719,1.188 -4.613,3.561c-0.895,2.376 -1.342,6.131 -1.342,11.268l0,22.304c0,5.294 0.427,9.109 1.285,11.442c0.854,2.336 2.411,3.503 4.67,3.503c2.257,0 3.834,-1.167 4.729,-3.503Zm-18.098,11.211c-3.233,-2.177 -5.53,-5.566 -6.89,-10.16c-1.363,-4.591 -2.043,-10.703 -2.043,-18.332l0,-10.392c0,-7.707 0.777,-13.897 2.334,-18.566c1.557,-4.671 3.988,-8.077 7.299,-10.218c3.308,-2.14 7.648,-3.211 13.02,-3.211c5.293,0 9.535,1.09 12.727,3.27c3.191,2.179 5.527,5.586 7.007,10.216c1.477,4.634 2.218,10.802 2.218,18.509l0,10.392c0,7.629 -0.721,13.761 -2.16,18.392c-1.441,4.633 -3.777,8.018 -7.007,10.158c-3.231,2.141 -7.609,3.211 -13.136,3.211c-5.684,0 -10.141,-1.09 -13.369,-3.269Z" style="fill-rule:nonzero;"/><path d="M487.068,244.385c-0.816,1.012 -1.363,2.667 -1.634,4.962c-0.274,2.297 -0.407,5.781 -0.407,10.452l0,5.139l11.791,0l0,-5.139c0,-4.593 -0.155,-8.077 -0.466,-10.452c-0.312,-2.373 -0.875,-4.045 -1.692,-5.02c-0.819,-0.973 -2.084,-1.459 -3.796,-1.459c-1.714,0 -2.978,0.506 -3.796,1.517Zm-2.041,30.128l0,3.62c0,4.594 0.133,8.037 0.407,10.333c0.271,2.297 0.835,3.972 1.693,5.023c0.857,1.05 2.178,1.577 3.971,1.577c2.411,0 4.067,-0.936 4.962,-2.804c0.894,-1.869 1.381,-4.981 1.459,-9.342l13.896,0.817c0.078,0.625 0.117,1.48 0.117,2.569c0,6.618 -1.809,11.562 -5.43,14.831c-3.618,3.269 -8.739,4.904 -15.355,4.904c-7.939,0 -13.507,-2.49 -16.698,-7.474c-3.193,-4.98 -4.789,-12.687 -4.789,-23.12l0,-12.496c0,-10.742 1.655,-18.583 4.964,-23.528c3.308,-4.944 8.972,-7.416 16.991,-7.416c5.525,0 9.769,1.012 12.727,3.037c2.957,2.025 5.041,5.177 6.248,9.458c1.207,4.282 1.81,10.199 1.81,17.749l0,12.262l-26.973,0Z" style="fill-rule:nonzero;"/><path d="M197.773,273.172l-18.333,-66.209l15.997,0l6.422,30.009c1.636,7.398 2.841,13.703 3.62,18.917l0.467,0c0.545,-3.736 1.752,-10.001 3.62,-18.8l6.656,-30.126l15.998,0l-18.567,66.209l0,31.763l-15.88,0l0,-31.763Z" style="fill-rule:nonzero;"/><path d="M324.715,233.355l0,71.58l-12.612,0l-1.402,-8.757l-0.349,0c-3.426,6.617 -8.565,9.925 -15.414,9.925c-4.749,0 -8.252,-1.556 -10.51,-4.67c-2.258,-3.113 -3.386,-7.98 -3.386,-14.596l0,-53.482l16.115,0l0,52.546c0,3.194 0.351,5.471 1.051,6.831c0.7,1.364 1.868,2.045 3.503,2.045c1.402,0 2.744,-0.428 4.028,-1.285c1.285,-0.857 2.238,-1.945 2.862,-3.269l0,-56.868l16.114,0Z" style="fill-rule:nonzero;"/><path d="M407.371,233.355l0,71.58l-12.611,0l-1.402,-8.757l-0.348,0c-3.429,6.617 -8.566,9.925 -15.416,9.925c-4.748,0 -8.251,-1.556 -10.509,-4.67c-2.258,-3.113 -3.386,-7.98 -3.386,-14.596l0,-53.482l16.114,0l0,52.546c0,3.194 0.35,5.471 1.05,6.831c0.702,1.364 1.87,2.045 3.504,2.045c1.402,0 2.745,-0.428 4.029,-1.285c1.284,-0.857 2.237,-1.945 2.861,-3.269l0,-56.868l16.114,0Z" style="fill-rule:nonzero;"/><path d="M368.503,219.926l-15.998,0l0,85.009l-15.763,0l0,-85.009l-15.998,0l0,-12.962l47.759,0l0,12.962Z" style="fill-rule:nonzero;"/><path d="M445.934,273.995c0,5.217 -0.217,9.304 -0.644,12.261c-0.428,2.96 -1.148,5.062 -2.16,6.305c-1.012,1.246 -2.377,1.869 -4.086,1.869c-1.326,0 -2.551,-0.311 -3.679,-0.934c-1.13,-0.623 -2.043,-1.557 -2.745,-2.803l0,-40.636c0.545,-1.945 1.479,-3.542 2.803,-4.788c1.324,-1.243 2.762,-1.868 4.32,-1.868c1.635,0 2.899,0.643 3.795,1.926c0.894,1.285 1.518,3.445 1.869,6.483c0.351,3.035 0.527,7.355 0.527,12.96l0,9.225Zm14.77,-29.197c-0.975,-4.514 -2.551,-7.784 -4.73,-9.81c-2.18,-2.022 -5.177,-3.035 -8.991,-3.035c-2.958,0 -5.721,0.838 -8.29,2.511c-2.569,1.674 -4.555,3.873 -5.956,6.597l-0.118,0l0.001,-37.717l-15.529,0l0,101.59l13.31,0l1.636,-6.772l0.349,0c1.245,2.413 3.113,4.32 5.605,5.722c2.491,1.401 5.256,2.102 8.292,2.102c5.448,0 9.457,-2.512 12.027,-7.532c2.569,-5.022 3.854,-12.863 3.854,-23.53l0,-11.325c0,-8.018 -0.488,-14.285 -1.46,-18.801Z" style="fill-rule:nonzero;"/><path d="M159.875,216.698c-1.878,-7.026 -7.41,-12.558 -14.436,-14.436c-12.735,-3.412 -63.796,-3.412 -63.796,-3.412c0,0 -51.061,0 -63.796,3.412c-7.024,1.878 -12.558,7.41 -14.436,14.436c-3.411,12.734 -3.411,39.303 -3.411,39.303c0,0 0,26.568 3.411,39.301c1.878,7.026 7.412,12.56 14.436,14.437c12.735,3.411 63.796,3.411 63.796,3.411c0,0 51.061,0 63.796,-3.411c7.026,-1.877 12.558,-7.411 14.436,-14.437c3.411,-12.733 3.411,-39.301 3.411,-39.301c0,0 0,-26.569 -3.411,-39.303Zm-94.561,63.796l0,-48.987l42.422,24.494l-42.422,24.493Z" style="fill-rule:nonzero;"/></g></svg>