<?xml version="1.0" ?><!DOCTYPE svg  PUBLIC '-//W3C//DTD SVG 1.1//EN'  'http://www.w3.org/Graphics/SVG/1.1/DTD/svg11.dtd'><svg height="100%" style="fill-rule:evenodd;clip-rule:evenodd;stroke-linejoin:round;stroke-miterlimit:2;" version="1.1" viewBox="0 0 512 512" width="100%" xml:space="preserve" xmlns="http://www.w3.org/2000/svg" xmlns:serif="http://www.serif.com/" xmlns:xlink="http://www.w3.org/1999/xlink"><path d="M256.396,0.185c-141.736,0 -256.391,114.665 -256.391,255.634c0,140.97 114.655,256.004 256.391,256.004c140.954,0 255.609,-115.034 255.609,-256.004c0,-141.723 -114.655,-255.634 -255.609,-255.634Zm19.838,180.737l0,-75.884l-46.56,0c-2.154,33.415 -20.915,72.001 -65.746,83.646l0,47.852l40.72,0l0,88.38c0,55.187 33.411,78.258 78.275,78.258l49.79,0l0,-58.639l-26.298,0c-18.566,-0.023 -30.181,-8.007 -30.181,-31.042l0,-76.957l54.326,0l0,-55.614l-54.326,0Z" style="fill:#030404;"/></svg>