<?xml version="1.0" ?><!DOCTYPE svg  PUBLIC '-//W3C//DTD SVG 1.1//EN'  'http://www.w3.org/Graphics/SVG/1.1/DTD/svg11.dtd'><svg height="100%" style="fill-rule:evenodd;clip-rule:evenodd;stroke-linejoin:round;stroke-miterlimit:2;" version="1.1" viewBox="0 0 512 512" width="100%" xml:space="preserve" xmlns="http://www.w3.org/2000/svg" xmlns:serif="http://www.serif.com/" xmlns:xlink="http://www.w3.org/1999/xlink"><g><path d="M143.349,356.877c6.823,0 13.319,-0.606 19.427,-1.975c6.204,-1.345 11.694,-3.503 16.348,-6.678c4.629,-3.054 8.483,-7.247 11.27,-12.555c2.8,-5.283 4.145,-12.143 4.145,-20.42c0,-16.227 -4.581,-27.764 -13.658,-34.756c-9.113,-6.908 -21.244,-10.337 -36.162,-10.337l-75.391,0l0,86.721l74.021,0Zm-3.841,-134.057c12.276,0 22.456,-2.909 30.515,-8.823c7.974,-5.829 11.827,-15.439 11.827,-28.648c0,-7.32 -1.272,-13.379 -3.853,-18.081c-2.679,-4.702 -6.229,-8.374 -10.689,-10.956c-4.435,-2.678 -9.453,-4.52 -15.257,-5.526c-5.721,-1.115 -11.695,-1.551 -17.839,-1.551l-64.884,0l0,73.585l70.18,0Zm8.968,-127.235c15.063,0 28.66,1.297 41.082,4c12.361,2.617 22.892,6.992 31.812,12.991c8.774,5.999 15.645,13.973 20.565,24.019c4.787,9.901 7.199,22.299 7.199,36.95c0,15.851 -3.588,29.097 -10.798,39.689c-7.247,10.567 -17.9,19.232 -32.115,25.97c19.354,5.575 33.727,15.379 43.24,29.328c9.562,14.045 14.251,30.842 14.251,50.547c0,15.972 -3.053,29.715 -9.173,41.288c-6.169,11.707 -14.567,21.196 -24.917,28.516c-10.434,7.38 -22.395,12.809 -35.822,16.336c-13.27,3.514 -27.049,5.296 -41.18,5.296l-152.623,0l0,-314.93l148.479,0Z" style="fill:#030404;fill-rule:nonzero;"/><path d="M434.514,236.017c-7.453,-8.229 -20.045,-12.688 -35.423,-12.688c-10.01,0 -18.287,1.684 -24.929,5.114c-6.495,3.393 -11.803,7.598 -15.863,12.567c-4.048,5.041 -6.786,10.374 -8.398,16.069c-1.6,5.551 -2.569,10.58 -2.848,15.028l101.894,0c-1.49,-15.973 -6.956,-27.789 -14.433,-36.09Zm-71.973,119.818c9.392,9.162 22.952,13.767 40.525,13.767c12.627,0 23.534,-3.187 32.696,-9.562c9.077,-6.362 14.603,-13.161 16.736,-20.214l55.164,0c-8.871,27.449 -22.31,47.045 -40.67,58.849c-18.142,11.84 -40.246,17.741 -66.023,17.741c-17.96,0 -34.126,-2.908 -48.644,-8.628c-14.507,-5.805 -26.625,-13.925 -36.829,-24.528c-9.938,-10.641 -17.657,-23.22 -23.159,-37.993c-5.441,-14.7 -8.18,-30.975 -8.18,-48.608c0,-17.051 2.848,-32.975 8.422,-47.699c5.672,-14.773 13.549,-27.522 23.886,-38.21c10.362,-10.75 22.638,-19.233 36.938,-25.438c14.312,-6.168 30.091,-9.27 47.566,-9.27c19.293,0 36.174,3.708 50.668,11.27c14.422,7.465 26.262,17.572 35.557,30.224c9.283,12.628 15.912,27.073 20.044,43.276c4.096,16.178 5.538,33.072 4.363,50.765l-164.548,0c0,18.033 6.084,35.096 15.488,44.258Z" style="fill:#030404;fill-rule:nonzero;"/><rect height="31.072" style="fill:#030404;" width="127.659" x="334.231" y="116.72"/></g></svg>