<?xml version="1.0" ?><!DOCTYPE svg  PUBLIC '-//W3C//DTD SVG 1.1//EN'  'http://www.w3.org/Graphics/SVG/1.1/DTD/svg11.dtd'><svg height="100%" style="fill-rule:evenodd;clip-rule:evenodd;stroke-linejoin:round;stroke-miterlimit:2;" version="1.1" viewBox="0 0 512 512" width="100%" xml:space="preserve" xmlns="http://www.w3.org/2000/svg" xmlns:serif="http://www.serif.com/" xmlns:xlink="http://www.w3.org/1999/xlink"><path d="M256,0c-141.327,0 -256,114.673 -256,256c0,141.327 114.673,256 256,256c141.051,0 256,-114.673 256,-256c0,-141.327 -114.949,-256 -256,-256Zm169.093,118.006c30.541,37.207 48.871,84.685 49.423,136.048c-7.219,-1.387 -79.411,-16.102 -152.156,-6.937c-1.664,-3.61 -3.056,-7.501 -4.72,-11.387c-4.444,-10.547 -9.442,-21.376 -14.439,-31.652c80.523,-32.763 117.171,-79.964 121.892,-86.072Zm-169.093,-80.246c55.532,0 106.342,20.828 144.937,54.979c-3.886,5.55 -36.931,49.699 -114.673,78.853c-35.819,-65.803 -75.52,-119.67 -81.628,-128c16.379,-3.886 33.592,-5.832 51.364,-5.832Zm-93.015,20.547c5.832,7.777 44.703,61.921 81.075,126.336c-102.175,27.207 -192.415,26.654 -202.132,26.654c14.156,-67.748 59.97,-124.114 121.057,-152.99Zm-125.778,197.969l0,-6.661c9.441,0.277 115.507,1.664 224.625,-31.099c6.384,12.217 12.216,24.71 17.766,37.208c-2.775,0.834 -5.826,1.664 -8.607,2.498c-112.727,36.373 -172.702,135.772 -177.699,144.102c-34.704,-38.594 -56.085,-89.958 -56.085,-146.048Zm218.793,218.517c-50.534,0 -97.178,-17.213 -134.108,-46.09c3.886,-8.054 48.312,-93.568 171.592,-136.607c0.552,-0.276 0.834,-0.276 1.387,-0.558c30.822,79.688 43.315,146.606 46.648,165.765c-26.378,11.382 -55.255,17.49 -85.519,17.49Zm121.892,-37.484c-2.222,-13.327 -13.88,-77.189 -42.481,-155.765c68.583,-10.829 128.553,6.942 136.049,9.441c-9.436,60.805 -44.421,113.285 -93.568,146.324Z"/></svg>