<svg width="1" height="1" viewBox="0 0 1 1" fill="none" xmlns="http://www.w3.org/2000/svg">
<path d="M0.499908 0.0732422C0.384032 0.0732422 0.369502 0.0737333 0.323994 0.0758098C0.27858 0.0778828 0.247565 0.0850944 0.220424 0.0956424C0.192367 0.106546 0.168573 0.121135 0.144853 0.144855C0.121134 0.168574 0.106544 0.192368 0.0956407 0.220425C0.0850927 0.247565 0.0778811 0.27858 0.0758081 0.323994C0.0737317 0.369502 0.0732422 0.384032 0.0732422 0.499908C0.0732422 0.615783 0.0737317 0.630313 0.0758081 0.675821C0.0778811 0.721234 0.0850927 0.75225 0.0956407 0.779389C0.106544 0.807446 0.121134 0.83124 0.144853 0.854962C0.168573 0.878681 0.192367 0.89327 0.220424 0.904174C0.247565 0.91472 0.27858 0.921934 0.323994 0.924005C0.369502 0.926081 0.384032 0.926573 0.499908 0.926573C0.615783 0.926573 0.630312 0.926081 0.675821 0.924005C0.721234 0.921934 0.75225 0.91472 0.779389 0.904174C0.807446 0.89327 0.83124 0.878681 0.854962 0.854962C0.878681 0.83124 0.89327 0.807446 0.904174 0.779389C0.91472 0.75225 0.921934 0.721234 0.924005 0.675821C0.926081 0.630313 0.926573 0.615783 0.926573 0.499908C0.926573 0.384032 0.926081 0.369502 0.924005 0.323994C0.921934 0.27858 0.91472 0.247565 0.904174 0.220425C0.89327 0.192368 0.878681 0.168574 0.854962 0.144855C0.83124 0.121135 0.807446 0.106546 0.779389 0.0956424C0.75225 0.0850944 0.721234 0.0778828 0.675821 0.0758098C0.630312 0.0737333 0.615783 0.0732422 0.499908 0.0732422ZM0.499908 0.15012C0.613832 0.15012 0.627327 0.150554 0.672317 0.152607C0.713916 0.154505 0.736508 0.161456 0.751542 0.167297C0.771458 0.175037 0.785671 0.184285 0.800601 0.199214C0.815532 0.214144 0.824777 0.228359 0.832517 0.248272C0.838361 0.263307 0.845311 0.285899 0.847208 0.327498C0.849261 0.372488 0.849696 0.385983 0.849696 0.499908C0.849696 0.613832 0.849261 0.627327 0.847208 0.672317C0.845311 0.713916 0.838361 0.736508 0.832517 0.751542C0.824777 0.771458 0.815532 0.785671 0.800601 0.800601C0.785671 0.815532 0.771458 0.824777 0.751542 0.832517C0.736508 0.838361 0.713916 0.845311 0.672317 0.847208C0.627333 0.849261 0.61384 0.849696 0.499908 0.849696C0.385975 0.849696 0.372483 0.849261 0.327498 0.847208C0.285899 0.845311 0.263307 0.838361 0.248272 0.832517C0.228357 0.824777 0.214144 0.815532 0.199212 0.800601C0.184283 0.785671 0.175036 0.771458 0.167297 0.751542C0.161454 0.736508 0.154504 0.713916 0.152605 0.672317C0.150552 0.627327 0.150119 0.613832 0.150119 0.499908C0.150119 0.385983 0.150552 0.372488 0.152605 0.327498C0.154504 0.285899 0.161454 0.263307 0.167297 0.248272C0.175036 0.228359 0.184283 0.214144 0.199212 0.199214C0.214144 0.184285 0.228357 0.175037 0.248272 0.167297C0.263307 0.161456 0.285899 0.154505 0.327498 0.152607C0.372488 0.150554 0.385983 0.15012 0.499908 0.15012Z" fill="#030404"/>
<path d="M0.499861 0.642082C0.421313 0.642082 0.357638 0.578407 0.357638 0.499861C0.357638 0.421313 0.421313 0.357638 0.499861 0.357638C0.578407 0.357638 0.642082 0.421313 0.642082 0.499861C0.642082 0.578407 0.578407 0.642082 0.499861 0.642082ZM0.499861 0.280762C0.378855 0.280762 0.280762 0.378855 0.280762 0.499861C0.280762 0.620865 0.378855 0.718958 0.499861 0.718958C0.620865 0.718958 0.718958 0.620865 0.718958 0.499861C0.718958 0.378855 0.620865 0.280762 0.499861 0.280762Z" fill="#030404"/>
<path d="M0.778669 0.27239C0.778669 0.300668 0.755746 0.323589 0.727469 0.323589C0.699193 0.323589 0.67627 0.300668 0.67627 0.27239C0.67627 0.244113 0.699193 0.221191 0.727469 0.221191C0.755746 0.221191 0.778669 0.244113 0.778669 0.27239Z" fill="#030404"/>
</svg>
