<?xml version="1.0" ?><!DOCTYPE svg  PUBLIC '-//W3C//DTD SVG 1.1//EN'  'http://www.w3.org/Graphics/SVG/1.1/DTD/svg11.dtd'><svg height="100%" style="fill-rule:evenodd;clip-rule:evenodd;stroke-linejoin:round;stroke-miterlimit:2;" version="1.1" viewBox="0 0 512 512" width="100%" xml:space="preserve" xmlns="http://www.w3.org/2000/svg" xmlns:serif="http://www.serif.com/" xmlns:xlink="http://www.w3.org/1999/xlink"><path d="M259.231,496.288c-1.32,0 -2.616,-0.038 -3.912,-0.101l-0.003,0c-0.827,0.064 -1.691,0.101 -2.555,0.101c-30.332,0 -49.8,-13.763 -68.626,-27.073c-12.999,-9.185 -25.266,-17.857 -39.719,-20.263c-7.053,-1.168 -14.074,-1.761 -20.857,-1.761c-12.222,0 -21.864,1.887 -28.902,3.264c-4.277,0.836 -7.967,1.555 -10.772,1.555c-2.931,0 -6.105,-0.633 -7.485,-5.347c-1.198,-4.084 -2.065,-8.04 -2.9,-11.867c-2.15,-9.848 -3.676,-15.906 -7.804,-16.539c-48.108,-7.43 -61.876,-17.563 -64.947,-24.752c-0.435,-1.029 -0.682,-2.058 -0.74,-3.078c-0.157,-2.761 1.801,-5.201 4.53,-5.647c73.952,-12.177 107.115,-87.763 108.492,-90.972c0.037,-0.089 0.078,-0.174 0.119,-0.263c4.527,-9.173 5.413,-17.135 2.643,-23.661c-5.074,-11.96 -21.627,-17.218 -32.584,-20.693c-2.68,-0.848 -5.222,-1.65 -7.227,-2.442c-21.862,-8.644 -23.682,-17.515 -22.824,-22.037c1.466,-7.705 11.763,-13.074 20.09,-13.074c2.283,0 4.294,0.405 5.984,1.194c9.835,4.608 18.699,6.942 26.347,6.942c10.568,0 15.181,-4.441 15.744,-5.024c-0.268,-5.005 -0.601,-10.232 -0.942,-15.625c-2.203,-34.964 -4.932,-78.407 6.13,-103.206c33.153,-74.335 103.457,-80.109 124.214,-80.109c0.531,0 9.1,-0.092 9.1,-0.092l1.229,-0.006c20.804,0 91.261,5.787 124.433,80.16c11.063,24.814 8.327,68.293 6.121,103.231l-0.091,1.519c-0.305,4.865 -0.602,9.594 -0.848,14.121c0.528,0.539 4.77,4.624 14.351,4.99l0.011,0c7.28,-0.279 15.649,-2.6 24.832,-6.901c2.691,-1.257 5.68,-1.521 7.714,-1.521c3.108,0 6.258,0.601 8.874,1.692l0.158,0.065c7.429,2.632 12.294,7.839 12.399,13.279c0.096,5.122 -3.814,12.824 -22.998,20.402c-1.988,0.782 -4.529,1.589 -7.221,2.442c-10.968,3.481 -27.516,8.733 -32.587,20.691c-2.771,6.523 -1.884,14.48 2.64,23.657c0.041,0.089 0.087,0.174 0.122,0.269c1.376,3.207 34.511,78.77 108.495,90.962c2.732,0.45 4.683,2.886 4.533,5.651c-0.063,1.036 -0.314,2.08 -0.757,3.094c-3.051,7.138 -16.809,17.258 -64.933,24.694c-3.932,0.604 -5.455,5.726 -7.802,16.469c-0.853,3.91 -1.717,7.75 -2.906,11.789c-1.024,3.504 -3.209,5.144 -6.883,5.144l-0.598,0c-2.551,0 -6.176,-0.456 -10.769,-1.358c-8.148,-1.593 -17.283,-3.062 -28.905,-3.062c-6.787,0 -13.811,0.593 -20.867,1.761c-14.438,2.406 -26.697,11.061 -39.672,20.234c-18.863,13.339 -38.328,27.102 -68.669,27.102Z" style="fill-rule:nonzero;"/></svg>