<?xml version="1.0" ?><!DOCTYPE svg  PUBLIC '-//W3C//DTD SVG 1.1//EN'  'http://www.w3.org/Graphics/SVG/1.1/DTD/svg11.dtd'><svg height="100%" style="fill-rule:evenodd;clip-rule:evenodd;stroke-linejoin:round;stroke-miterlimit:2;" version="1.1" viewBox="0 0 512 512" width="100%" xml:space="preserve" xmlns="http://www.w3.org/2000/svg" xmlns:serif="http://www.serif.com/" xmlns:xlink="http://www.w3.org/1999/xlink"><path d="M409.764,0.003c56.207,0.001 102.236,46.023 102.236,102.24l0,307.517c0,56.218 -46.029,102.237 -102.236,102.237l-307.527,0c-56.218,0 -102.237,-46.019 -102.237,-102.237l0,-307.517c0,-56.217 46.018,-102.239 102.237,-102.24l307.527,0Zm-126.779,174.647l0,-82.22l-50.448,0c-2.34,36.205 -22.661,78.013 -71.247,90.63l0,51.849l44.148,0l0,95.76c0,59.795 36.205,84.794 84.791,84.794l53.955,0l0,-63.537l-28.501,0c-20.084,0 -32.698,-8.64 -32.698,-33.634l0,-83.383l58.859,0l0,-60.259l-58.859,0Z" style="fill:#030404;fill-rule:nonzero;"/></svg>