<?xml version="1.0" ?><!DOCTYPE svg  PUBLIC '-//W3C//DTD SVG 1.1//EN'  'http://www.w3.org/Graphics/SVG/1.1/DTD/svg11.dtd'><svg height="100%" style="fill-rule:evenodd;clip-rule:evenodd;stroke-linejoin:round;stroke-miterlimit:2;" version="1.1" viewBox="0 0 512 512" width="100%" xml:space="preserve" xmlns="http://www.w3.org/2000/svg" xmlns:serif="http://www.serif.com/" xmlns:xlink="http://www.w3.org/1999/xlink"><path d="M460.8,512l-409.6,0c-28.279,0 -51.2,-22.924 -51.2,-51.2l0,-409.6c0,-28.275 22.921,-51.2 51.2,-51.2l409.6,0c28.276,0 51.2,22.925 51.2,51.2l0,409.6c0,28.245 -22.875,51.151 -51.2,51.2Zm-29.982,-341.969c-1.646,36.011 -26.798,85.321 -75.46,147.913c-50.304,65.365 -92.868,98.056 -127.676,98.056c-21.572,0 -39.825,-19.895 -54.733,-59.716c-9.954,-36.501 -19.899,-72.998 -29.862,-109.5c-11.072,-39.795 -22.946,-59.72 -35.648,-59.72c-2.769,0 -12.454,5.824 -29.039,17.425l-17.404,-22.417c18.262,-16.043 36.271,-32.081 53.991,-48.15c24.354,-21.034 42.649,-32.102 54.835,-33.22c28.787,-2.769 46.511,16.913 53.163,59.038c7.189,45.453 12.168,73.724 14.959,84.783c8.311,37.717 17.446,56.555 27.413,56.555c7.735,0 19.375,-12.233 34.893,-36.707c15.484,-24.452 23.782,-43.063 24.904,-55.855c2.215,-21.111 -6.092,-31.688 -24.904,-31.688c-8.862,0 -17.997,2.035 -27.392,6.063c18.189,-59.55 52.932,-88.47 104.205,-86.823c38.02,1.118 55.953,25.771 53.755,73.963Z"/></svg>