<svg width="95" height="100" viewBox="0 0 95 100" fill="none" xmlns="http://www.w3.org/2000/svg">
<mask id="mask0" mask-type="alpha" maskUnits="userSpaceOnUse" x="16" y="12" width="63" height="74">
<path d="M75.8263 85.08L49.9063 16.12H52.3863L78.2263 85.08H75.8263ZM63.5863 85L61.0263 77.96H25.8263L23.2663 85H16.7863L43.4263 12.6L69.9863 85H63.5863ZM31.4263 85.08H29.0263L29.6663 83.48H32.0663L31.4263 85.08ZM43.4263 30.28L28.0663 71.96H58.7063L43.4263 30.28ZM38.2263 66.44H35.8263L43.4263 45.96L46.3063 53.8L38.2263 66.44Z" fill="#E01414"/>
</mask>
<g mask="url(#mask0)">
<path d="M17.2152 103.663C37.241 119.04 52.8813 87.9522 65.5221 95.3032C95.8071 112.915 87.4495 86.2394 90.5127 77.1132C91.9462 69.3621 91.2113 48.8717 76.8044 28.919C58.7958 3.97806 43.3718 -6.7109 23.4689 -8.77365C3.566 -10.8364 3.81197 15.7923 -22.8984 19.3553C-49.6088 22.9184 -29.709 52.1291 -28.4722 64.5491C-26.1752 87.6148 3.65593 90.2705 17.2152 103.663Z" fill="#8B9BE2"/>
<path d="M16.537 -2.31603C22.5301 -10.7327 36.854 -26.6981 46.2053 -23.2269C57.8944 -18.8879 49.1039 1.9941 61.8773 14.7631C74.6506 27.5322 29.7572 45.0567 23.027 42.5086C16.2967 39.9606 0.762756 53.3611 -22.2172 61.1973C-45.1972 69.0335 -24.4221 30.7701 -24.0758 27.9614C-16.3796 -5.05083 11.4802 12.1458 16.537 -2.31603Z" fill="#9FABDE"/>
<path d="M-8.63238 33.6177C-4.39634 39.7332 20.3197 21.5904 24.0688 25.2555C33.0509 34.0363 39.7741 15.7328 45.6619 15.717C50.0059 15.4212 78.4686 24.887 79.4795 19.7507C80.7431 13.3303 76.9534 8.71576 66.7086 3.73337C56.4637 -1.24902 51.5189 11.9991 34.8797 5.83723C18.2405 -0.324634 28.5228 14.7393 0.279644 8.55664C-6.5651 7.05828 -10.1396 29.2299 -8.63238 33.6177Z" fill="#A8A4D0"/>
<path d="M22.609 3.23895C32.9348 -8.30397 48.4306 -22.053 46.4748 -8.21077C44.5562 -4.70075 43.4841 1.90124 54.5447 0.229012C68.3705 -1.86127 100.862 6.91435 53.957 20.7487C45.5209 23.2368 37.5439 31.712 19.8568 43.2093C-8.15716 61.4195 -44.5904 82.3902 -24.7548 62.5562C7.6044 30.1997 -16.0421 40.6001 -27.5249 42.6582C-39.0078 44.7162 7.05632 21.7279 22.609 3.23895Z" fill="#9BB8E8"/>
<path d="M-1.73918 18.7318C-7.26108 -1.0532 -9.16768 -24.9223 12.6892 -2.18392C16.1528 3.71669 26.374 14.5749 39.5494 10.8026C56.0187 6.08725 119.161 17.3077 75.3275 44.2909C67.4438 49.144 70.9202 63.7082 65.6048 84.1161C57.1859 116.44 41.3941 154.058 34.964 119.864C24.4742 64.0802 8.49289 83.2656 -4.61065 87.7065C-17.7142 92.1473 8.54748 50.3291 -1.73918 18.7318Z" fill="#A8A4D0"/>
<path d="M44.035 41.4347C61.7568 38.3677 84.6712 37.3788 69.309 49.747C64.61 51.6976 57.2044 57.4805 65.1744 65.008C75.137 74.4174 84.4511 110.372 43.7072 85.2693C36.3793 80.7544 23.144 82.6767 1.31108 79.5622C-33.2693 74.6293 -75.4488 65.471 -43.8154 61.9454C7.79006 56.1939 -16.2793 47.0033 -24.8853 39.5141C-33.4912 32.0248 16.2063 47.1698 44.035 41.4347Z" fill="#8B9BE2"/>
<path d="M9.73203 45.8467C10.6398 41.5754 15.7875 33.8749 29.1165 37.2424C45.7778 41.4519 50.571 52.8747 74.5371 62.3248C98.5032 71.775 59.0424 76.265 49.4136 73.8113C39.7849 71.3575 31.3944 77.344 10.3815 78.957C-10.6314 80.5701 -14.0041 60.2734 -15.6178 58.6235C-30.382 39.723 14.2466 53.8976 9.73203 45.8467Z" fill="#9FABDE"/>
</g>
</svg>
