<svg width="95" height="100" viewBox="0 0 95 100" fill="none" xmlns="http://www.w3.org/2000/svg">
<mask id="mask0" mask-type="alpha" maskUnits="userSpaceOnUse" x="26" y="15" width="43" height="71">
<path d="M68.1444 50.52C68.1444 54.04 67.691 57.48 66.7844 60.84C65.931 64.1467 64.651 67.32 62.9444 70.36C61.291 73.3467 59.2644 76.0933 56.8644 78.6C54.4644 81.1067 51.771 83.2667 48.7844 85.08H46.3844C49.371 83.2667 52.0644 81.1067 54.4644 78.6C56.8644 76.0933 58.891 73.3467 60.5444 70.36C62.251 67.32 63.531 64.1467 64.3844 60.84C65.291 57.48 65.7444 54.04 65.7444 50.52C65.7444 47.0533 65.291 43.6667 64.3844 40.36C63.531 37 62.2777 33.8267 60.6244 30.84C58.971 27.8533 56.971 25.1067 54.6244 22.6C52.2777 20.0933 49.6377 17.9067 46.7044 16.04H49.1844C52.1177 17.9067 54.731 20.0933 57.0244 22.6C59.371 25.1067 61.371 27.8533 63.0244 30.84C64.6777 33.8267 65.931 37 66.7844 40.36C67.691 43.6667 68.1444 47.0533 68.1444 50.52ZM60.3044 50.52C60.3044 54.84 59.5577 59 58.0644 63C56.571 67 54.4644 70.5733 51.7444 73.72C49.0777 76.8133 45.8777 79.3733 42.1444 81.4C38.4644 83.3733 34.4377 84.52 30.0644 84.84L26.8644 85.08V15.8L30.0644 16.04C34.491 16.36 38.5444 17.5333 42.2244 19.56C45.9577 21.5867 49.1577 24.1733 51.8244 27.32C54.491 30.4133 56.571 33.9867 58.0644 38.04C59.5577 42.04 60.3044 46.2 60.3044 50.52ZM54.2244 50.52C54.2244 47.32 53.691 44.2 52.6244 41.16C51.611 38.12 50.171 35.3467 48.3044 32.84C46.4377 30.28 44.1977 28.12 41.5844 26.36C38.971 24.5467 36.0644 23.2933 32.8644 22.6V78.28C36.0644 77.5867 38.971 76.36 41.5844 74.6C44.1977 72.7867 46.4377 70.6533 48.3044 68.2C50.171 65.6933 51.611 62.92 52.6244 59.88C53.691 56.84 54.2244 53.72 54.2244 50.52ZM40.7844 68.36L38.3844 70.2V30.68C39.0777 31.1067 39.7177 31.56 40.3044 32.04C40.9444 32.4667 41.5844 32.92 42.2244 33.4L40.7844 68.36Z" fill="#E01414"/>
</mask>
<g mask="url(#mask0)">
<path d="M-11.8607 12.3686C-42.5009 24.9433 -15.0786 59.4079 -31.6129 68.6921C-71.2262 90.9354 -34.3007 97.2713 -25.3106 105.758C-16.9567 111.72 7.91028 122.652 40.5463 118.69C81.3414 113.736 103.565 103.391 118.265 83.334C132.965 63.2773 101.085 48.3132 113.269 17.776C125.453 -12.7612 78.4073 -8.23126 62.8477 -14.0135C33.9513 -24.7518 12.4377 5.55925 -11.8607 12.3686Z" fill="#8B9BE2"/>
<path d="M114.834 72.2452C121.177 83.4525 131.389 107.865 121.501 115.858C109.141 125.849 89.6667 104.529 66.5951 110.857C43.5234 117.184 50.2564 59.2629 57.4323 53.5387C64.6081 47.8146 58.196 23.5775 62.9939 -5.42283C67.7918 -34.4231 100.605 9.62318 103.739 11.5987C138.34 38.6873 100.713 58.5803 114.834 72.2452Z" fill="#9FABDE"/>
<path d="M87.5001 24.8426C77.6076 25.8655 84.0224 62.6115 77.3494 64.516C61.3618 69.0789 79.0356 86.7187 75.4328 93.01C73.1133 97.8141 44.327 122.771 49.8253 126.787C56.6982 131.806 64.5276 130.401 76.7659 122.319C89.0042 114.237 76.2602 101.385 93.8371 87.1548C111.414 72.9243 87.1401 75.2817 111.879 48.6818C117.875 42.2353 93.6554 25.7434 87.5001 24.8426Z" fill="#A8A4D0"/>
<path d="M104.481 75.5476C111.883 93.1655 118.734 117.561 103.443 107.559C100.441 103.505 93.2342 98.5862 88.4234 111.344C82.4098 127.291 51.968 156.941 64.3351 98.9835C66.5593 88.5595 61.3676 75.2019 58.5475 49.7557C54.0809 9.45217 51.5037 -41.4131 62.9356 -8.90732C81.5854 44.1214 83.7378 12.9437 88.3487 -0.485194C92.9596 -13.9141 92.0168 48.3809 104.481 75.5476Z" fill="#9BB8E8"/>
<path d="M100.997 40.7093C127.968 46.1308 157.581 57.745 117.044 68.0641C107.882 68.3857 88.6575 73.0828 85.048 89.2979C80.5362 109.567 28.3276 170.524 23.1384 108.324C22.2051 97.1369 2.71301 92.5183 -18.3342 75.1773C-51.6703 47.7115 -86.7808 9.35098 -42.0817 22.0429C30.8388 42.7481 17.8088 14.7257 20.5774 -1.79499C23.346 -18.3157 57.0201 33.6174 100.997 40.7093Z" fill="#A8A4D0"/>
<path d="M45.7901 76.5684C38.5438 97.2312 25.6275 122.246 20.3396 98.7825C20.9059 92.6533 18.5705 81.4448 4.69883 85.6445C-12.6407 90.8942 -61.211 80.2729 -6.23864 51.1536C3.64842 45.9164 9.49908 30.6953 26.6395 9.18064C53.7876 -24.8957 90.6447 -64.664 75.3878 -28.8955C50.4983 29.4559 76.2543 9.02932 90.4716 4.12927C104.689 -0.770778 56.074 43.5961 45.7901 76.5684Z" fill="#8B9BE2"/>
<path d="M61.6327 37.4445C66.1636 40.8553 72.1728 50.7512 59.9615 63.0475C44.6975 78.4179 28.1385 77.0006 2.13674 97.1685C-23.865 117.336 -4.94262 72.6647 3.90375 63.7939C12.7501 54.9232 10.7781 42.5475 21.7811 19.2046C32.7842 -4.13837 59.0428 3.86885 62.0014 3.09051C93.6035 -1.85531 49.2628 37.6579 61.6327 37.4445Z" fill="#9FABDE"/>
</g>
</svg>
