<svg width="95" height="100" viewBox="0 0 95 100" fill="none" xmlns="http://www.w3.org/2000/svg">
<mask id="mask0" mask-type="alpha" maskUnits="userSpaceOnUse" x="29" y="16" width="37" height="70">
<path d="M43.2844 73.48H40.8044V16.04H45.6844L43.2844 73.48ZM29.3644 85V16.04H35.3644V79H58.2444V85H29.3644ZM63.1244 85.08V73.48H65.6044V85.08H63.1244Z" fill="#E01414"/>
</mask>
<g mask="url(#mask0)">
<path d="M13.5054 25.1251C19.1877 3.91286 52.2307 10.0485 57.3807 -2.10033C69.7193 -31.2069 80.7937 -11.6829 89.2814 -8.88121C95.5633 -5.73675 108.58 5.53804 110.393 25.4815C112.659 50.4108 107.516 66.1404 93.0945 80.2585C78.6728 94.3766 61.1938 80.1885 37.637 95.8004C14.0802 111.412 10.4807 82.9956 3.2185 75.6433C-10.2684 61.9891 11.6368 41.058 13.5054 25.1251Z" fill="#8B9BE2"/>
<path d="M83.3088 81.3954C93.65 81.9051 115.611 80.9365 120.727 72.9851C127.121 63.046 106.286 57.8016 107.946 42.7119C109.605 27.6221 62.3551 47.7851 58.7066 53.534C55.0581 59.2828 33.8392 62.3949 10.4059 73.3133C-13.0274 84.2318 28.8519 90.7851 30.9909 92.0378C59.0081 104.388 69.6981 77.0884 83.3088 81.3954Z" fill="#9FABDE"/>
<path d="M39.4893 78.9468C38.7912 72.9517 70.4426 66.3257 70.9845 61.9404C72.2828 51.4338 89.7655 56.6735 94.4473 52.8267C98.0902 50.1383 114.39 26.5158 118.601 28.5596C123.865 31.1143 123.921 36.0264 119.099 45.3588C114.278 54.6913 101.562 50.9503 92.4502 65.0907C83.3386 79.2312 81.4981 64.5637 63.1937 86.3129C58.7577 91.5838 41.2058 82.245 39.4893 78.9468Z" fill="#A8A4D0"/>
<path d="M84.4393 74.4936C100.293 73.8131 121.713 70.9097 110.974 64.8986C107.122 64.3059 101.889 61.5301 111.775 55.169C124.131 47.2176 144.085 21.3211 97.689 44.7448C89.3445 48.9576 77.3903 49.7162 55.7264 55.2405C21.4137 63.9904 -21.4111 76.7985 7.49079 74.2589C54.6402 70.1159 28.9762 80.12 18.4998 86.5544C8.02337 92.9887 59.8283 74.9374 84.4393 74.4936Z" fill="#9BB8E8"/>
<path d="M54.8386 82.2745C63.5894 96.3121 77.9193 110.134 80.1683 83.8452C79 78.4691 79.9025 66.057 92.8596 59.4174C109.056 51.1179 151.706 3.86429 99.0187 18.3509C89.5426 20.9564 82.6341 11.0083 64.8716 3.73834C36.7381 -7.77627 -0.759528 -17.2528 16.8347 4.96983C45.5372 41.2231 20.1239 41.5808 6.78008 47.8211C-6.56373 54.0614 42.028 58.8949 54.8386 82.2745Z" fill="#A8A4D0"/>
<path d="M76.0871 40.3444C92.1831 30.3565 111.02 15.8741 90.6223 19.4175C85.5994 21.4667 75.8856 23.2693 77.2128 14.0856C78.8718 2.606 62.3974 -22.4322 46.7329 17.4684C43.9156 24.6448 32.1389 32.2981 16.884 48.2339C-7.27786 73.4741 -34.6642 105.916 -7.22648 87.0607C37.5345 56.3014 24.538 76.9023 22.6809 86.4822C20.8238 96.062 50.2015 55.5444 76.0871 40.3444Z" fill="#8B9BE2"/>
<path d="M45.9428 60.4805C49.498 62.1361 58.6932 62.822 67.0332 52.3208C77.4583 39.1944 73.6796 30.0388 86.4218 9.36882C99.1641 -11.3011 64.8759 12.1709 58.8652 19.7679C52.8544 27.3649 42.224 29.7052 24.4819 42.6138C6.73975 55.5224 17.5353 68.4223 17.3501 70.3481C18.181 89.9712 44.1811 53.2836 45.9428 60.4805Z" fill="#9BB8E8"/>
</g>
</svg>
