<svg width="95" height="100" viewBox="0 0 95 100" fill="none" xmlns="http://www.w3.org/2000/svg">
<mask id="mask0" mask-type="alpha" maskUnits="userSpaceOnUse" x="16" y="13" width="63" height="77">
<path d="M75.9081 85.08V17.72H78.3081V85.08H75.9081ZM26.6281 17.72H28.9481L59.4281 54.68V57.56L26.6281 17.72ZM22.6281 30.12V85H16.7081V13.56L64.7081 72.6V17.72H70.6281V89.16L22.6281 30.12ZM30.3081 85H27.9881V45.08L33.5081 51.88L30.3081 85Z" fill="#E01414"/>
</mask>
<g mask="url(#mask0)">
<path d="M-74.6406 57.1682C-69.3404 1.86476 0.147819 28.2193 7.06477 -2.88855C23.6366 -77.4176 52.1416 -21.6469 70.357 -11.5837C84.1582 -1.25825 114.177 32.9257 123.845 87.0579C135.929 154.723 130.096 195.455 104.783 229.086C79.47 262.717 39.4447 219.372 -4.12621 254.289C-47.6971 289.206 -63.5528 211.771 -80.6178 189.846C-112.31 149.128 -73.7087 99.4242 -74.6406 57.1682Z" fill="#8B9BE2"/>
<path d="M85.3396 211.01C117.597 213.916 160.588 212.51 136.804 193.151C128.74 190.408 117.198 181.386 135.539 167.245C158.465 149.568 191.587 85.9392 103.585 135.027C87.7575 143.856 63.5077 142.325 20.8003 150.7C-46.8427 163.966 -130.702 185.596 -72.2837 187.402C23.0183 190.348 -26.5419 209.567 -46.0711 223.729C-65.6002 237.89 35.0807 204.854 85.3396 211.01Z" fill="#9BB8E8"/>
<path d="M27.0551 223.08C49.1642 263.414 82.6322 304.834 79.387 234.864C75.3894 220.069 73.5309 186.985 98.078 173.013C128.762 155.547 201.977 41.306 98.4258 64.5006C79.8015 68.6722 62.6857 39.8771 24.1458 15.0377C-36.8963 -24.3047 -116.503 -60.967 -73.8428 4.00237C-4.2482 109.991 -56.1756 103.363 -81.6337 116.147C-107.092 128.931 -6.15635 156.43 27.0551 223.08Z" fill="#A8A4D0"/>
<path d="M58.041 116.753C88.0154 94.7209 122.259 61.4295 81.5529 64.8599C71.8805 68.8667 52.5295 70.8098 52.5047 46.5283C52.4736 16.1763 11.2653 -56.0242 -8.89317 46.5166C-12.5188 64.9591 -34.3462 82.0081 -60.8223 120.274C-102.757 180.883 -149.143 259.88 -98.5945 217.408C-16.131 148.119 -36.5897 199.596 -37.5315 224.784C-38.4733 249.972 9.57875 149.868 58.041 116.753Z" fill="#8B9BE2"/>
<path d="M2.33308 161.86C10.1066 167.37 29.1388 171.959 43.0794 146.231C60.505 114.072 50.0341 88.3411 69.9517 36.603C89.8692 -15.1351 26.6729 37.6986 16.6343 56.318C6.59576 74.9374 -14.4712 78.0517 -46.9437 107.441C-79.4163 136.83 -53.4602 174.718 -53.2643 179.837C-45.7033 232.815 -3.42325 141.994 2.33308 161.86Z" fill="#9FABDE"/>
</g>
</svg>
