<svg width="95" height="100" viewBox="0 0 95 100" fill="none" xmlns="http://www.w3.org/2000/svg">
<mask id="mask0" mask-type="alpha" maskUnits="userSpaceOnUse" x="25" y="16" width="45" height="69">
<path d="M69.2925 44.76C69.2925 49.0267 68.5458 53.1067 67.0525 57C65.5592 60.84 63.4792 64.28 60.8125 67.32C58.1992 70.3067 55.0792 72.7867 51.4525 74.76C47.8792 76.7333 43.9592 77.9867 39.6925 78.52V85H37.2125V78.52C41.4792 77.9867 45.3992 76.7333 48.9725 74.76C52.5992 72.7867 55.7192 70.3067 58.3325 67.32C60.9992 64.28 63.0792 60.84 64.5725 57C66.0658 53.1067 66.8125 49.0267 66.8125 44.76C66.8125 41.8267 66.4658 38.9733 65.7725 36.2C65.0792 33.4267 64.0392 30.8133 62.6525 28.36C61.3192 25.9067 59.6658 23.64 57.6925 21.56C55.7725 19.4267 53.5858 17.5867 51.1325 16.04H53.6125C56.0658 17.5867 58.2525 19.4267 60.1725 21.56C62.1458 23.64 63.7992 25.9067 65.1325 28.36C66.5192 30.8133 67.5592 33.4267 68.2525 36.2C68.9458 38.9733 69.2925 41.8267 69.2925 44.76ZM61.4525 44.76C61.4525 48.76 60.7058 52.4933 59.2125 55.96C57.7192 59.4267 55.6658 62.4667 53.0525 65.08C50.4392 67.64 47.3992 69.6667 43.9325 71.16C40.4658 72.6533 36.7325 73.4 32.7325 73.4C32.5725 73.4 32.3858 73.4 32.1725 73.4C32.0125 73.4 31.8525 73.3733 31.6925 73.32V85H25.6925V16.04H32.7325C36.7325 16.04 40.4658 16.7867 43.9325 18.28C47.3992 19.7733 50.4392 21.8267 53.0525 24.44C55.6658 27.0533 57.7192 30.0933 59.2125 33.56C60.7058 37.0267 61.4525 40.76 61.4525 44.76ZM55.4525 44.76C55.4525 41.4 54.8392 38.3333 53.6125 35.56C52.3858 32.7867 50.6792 30.4133 48.4925 28.44C46.3592 26.4133 43.8525 24.84 40.9725 23.72C38.0925 22.6 35.0258 22.04 31.7725 22.04V67.32H32.7325C35.8258 67.32 38.7592 66.7333 41.5325 65.56C44.3058 64.3867 46.7058 62.7867 48.7325 60.76C50.8125 58.7333 52.4392 56.36 53.6125 53.64C54.8392 50.8667 55.4525 47.9067 55.4525 44.76ZM39.7725 60.44C39.3458 60.6 38.9192 60.76 38.4925 60.92C38.1192 61.0267 37.7458 61.16 37.3725 61.32V28.2C38.2792 28.4667 39.1592 28.8133 40.0125 29.24C40.9192 29.6133 41.7992 30.0133 42.6525 30.44L39.7725 60.44Z" fill="#E01414"/>
</mask>
<g mask="url(#mask0)">
<path d="M-45.2857 63.2853C-41.8786 22.5375 8.44868 42.4978 13.2044 19.607C24.5982 -35.2354 45.5816 6.11161 58.7979 13.6706C68.8319 21.3899 90.7451 46.8275 98.1266 86.8242C107.353 136.82 103.452 166.817 85.4447 191.43C67.4372 216.043 38.2366 183.774 7.06746 209.198C-24.1017 234.622 -36.123 177.393 -48.5988 161.094C-71.7679 130.824 -44.2954 94.4573 -45.2857 63.2853Z" fill="#8B9BE2"/>
<path d="M29.3267 186.415C45.58 216.329 70.0356 247.13 67.1677 195.5C64.1725 184.558 62.5827 160.144 80.1858 150.024C102.19 137.374 154.147 53.6691 79.6197 69.9961C66.2155 72.9326 53.6514 51.5666 25.6617 32.9566C-18.6703 3.48095 -76.3748 -24.1578 -45.1104 24.08C5.89313 102.774 -31.6172 97.4944 -49.8865 106.731C-68.1557 115.968 4.86622 137.009 29.3267 186.415Z" fill="#A8A4D0"/>
<path d="M50.8795 108.23C72.3371 92.2059 96.7897 67.9104 67.4502 70.134C60.5027 73.0163 46.5576 74.3037 46.3568 56.3952C46.1058 34.0096 15.8346 -19.5505 2.0643 55.9244C-0.41236 69.4989 -16.0303 81.9086 -34.8421 109.932C-64.6373 154.317 -97.5058 212.23 -61.3596 181.286C-2.39209 130.805 -16.7635 168.616 -17.2532 187.186C-17.743 205.755 16.1681 132.288 50.8795 108.23Z" fill="#8B9BE2"/>
<path d="M11.0314 141.078C16.6807 145.2 30.4451 148.728 40.3081 129.858C52.6368 106.271 44.8894 87.2147 58.8684 49.2064C72.8474 11.1981 27.6553 49.6886 20.5537 63.3454C13.452 77.0021 -1.72221 79.1404 -24.9267 100.571C-48.1311 122.002 -29.1211 150.141 -28.9412 153.918C-23.0879 193.048 6.72918 126.383 11.0314 141.078Z" fill="#9BB8E8"/>
</g>
</svg>
