<svg width="95" height="100" viewBox="0 0 95 100" fill="none" xmlns="http://www.w3.org/2000/svg">
<mask id="mask0" mask-type="alpha" maskUnits="userSpaceOnUse" x="8" y="15" width="79" height="75">
<path d="M86.8734 50.6C86.8734 62.2267 82.6334 72.0667 74.1534 80.12L76.3934 83.8L74.2334 85.08H71.7534L73.9934 83.8L71.6734 80.12C80.1534 72.0667 84.3934 62.2267 84.3934 50.6C84.3934 47.08 83.9668 43.6667 83.1134 40.36C82.2601 37 81.0068 33.8533 79.3534 30.92C77.7001 27.9333 75.7001 25.1867 73.3534 22.68C71.0068 20.12 68.3668 17.9067 65.4334 16.04H67.8334C70.8201 17.96 73.4868 20.1733 75.8334 22.68C78.1801 25.1867 80.1801 27.9333 81.8334 30.92C83.4868 33.8533 84.7401 36.9733 85.5934 40.28C86.4468 43.5867 86.8734 47.0267 86.8734 50.6ZM79.0334 50.6C79.0334 56.2533 77.7534 61.56 75.1934 66.52C72.6868 71.48 69.1668 75.64 64.6334 79L69.3534 86.68L64.2334 89.8L59.5134 82.12C57.0068 83.4 54.3934 84.36 51.6734 85C49.0068 85.64 46.2868 85.96 43.5134 85.96C38.6068 85.96 33.9934 85.0533 29.6734 83.24C25.4068 81.3733 21.6734 78.84 18.4734 75.64C15.2734 72.44 12.7401 68.7067 10.8734 64.44C9.0601 60.12 8.15344 55.5067 8.15344 50.6C8.15344 45.6933 9.0601 41.08 10.8734 36.76C12.7401 32.44 15.2734 28.68 18.4734 25.48C21.6734 22.28 25.4068 19.7467 29.6734 17.88C33.9934 16.0133 38.6068 15.08 43.5134 15.08C48.4201 15.08 53.0334 16.0133 57.3534 17.88C61.6734 19.7467 65.4334 22.28 68.6334 25.48C71.8334 28.68 74.3668 32.44 76.2334 36.76C78.1001 41.08 79.0334 45.6933 79.0334 50.6ZM72.9534 50.6C72.9534 46.5467 72.1801 42.7333 70.6334 39.16C69.0868 35.5867 66.9801 32.4667 64.3134 29.8C61.7001 27.1333 58.5801 25.0533 54.9534 23.56C51.3801 22.0133 47.5668 21.24 43.5134 21.24C39.4601 21.24 35.6468 22.0133 32.0734 23.56C28.5001 25.1067 25.3801 27.2133 22.7134 29.88C20.1001 32.4933 18.0201 35.5867 16.4734 39.16C14.9268 42.7333 14.1534 46.5467 14.1534 50.6C14.1534 54.6533 14.9268 58.4667 16.4734 62.04C18.0201 65.6133 20.1001 68.7333 22.7134 71.4C25.3801 74.0133 28.5001 76.0933 32.0734 77.64C35.6468 79.1333 39.4601 79.88 43.5134 79.88C48.0468 79.88 52.2868 78.92 56.2334 77L51.9134 69.96L57.0334 66.76L61.4334 73.88C65.0601 71.0533 67.8868 67.6133 69.9134 63.56C71.9401 59.5067 72.9534 55.1867 72.9534 50.6ZM46.6334 27.8C43.4334 27.96 40.4468 28.7067 37.6734 30.04C34.9534 31.3733 32.5534 33.1333 30.4734 35.32C28.4468 37.4533 26.8468 39.9333 25.6734 42.76C24.5001 45.5867 23.9134 48.6 23.9134 51.8C23.9134 54.8933 24.3934 57.7733 25.3534 60.44C26.3668 63.1067 27.7801 65.4533 29.5934 67.48C31.4601 69.5067 33.6734 71.1333 36.2334 72.36C38.7934 73.5867 41.6468 74.28 44.7934 74.44H43.5134C40.2068 74.44 37.1134 73.8267 34.2334 72.6C31.3534 71.32 28.8201 69.6133 26.6334 67.48C24.5001 65.2933 22.7934 62.76 21.5134 59.88C20.2868 57 19.6734 53.9067 19.6734 50.6C19.6734 47.2933 20.2868 44.1733 21.5134 41.24C22.7401 38.3067 24.4201 35.7733 26.5534 33.64C28.7401 31.4533 31.2734 29.7467 34.1534 28.52C37.0868 27.24 40.2068 26.6 43.5134 26.6C43.6734 26.6 43.8868 26.6533 44.1534 26.76C44.4734 26.8667 44.7934 27 45.1134 27.16C45.4334 27.2667 45.7268 27.4 45.9934 27.56C46.3134 27.6667 46.5268 27.7467 46.6334 27.8Z" fill="#E01414"/>
</mask>
<g mask="url(#mask0)">
<path d="M-41.6406 -12.8318C-36.3404 -68.1352 33.1478 -41.7807 40.0648 -72.8885C56.6366 -147.418 85.1416 -91.6469 103.357 -81.5837C117.158 -71.2582 147.177 -37.0743 156.845 17.0579C168.929 84.7231 163.096 125.455 137.783 159.086C112.47 192.717 72.4447 149.372 28.8738 184.289C-14.6971 219.206 -30.5528 141.771 -47.6178 119.846C-79.3097 79.1278 -40.7087 29.4242 -41.6406 -12.8318Z" fill="#8B9BE2"/>
<path d="M118.086 159.219C139.412 163.677 184.088 167.632 192.188 147.793C202.312 122.994 158.088 102.681 156.979 62.6278C155.87 22.575 65.1465 62.6463 59.3927 77.0048C53.639 91.3634 11.1225 93.3897 -33.5971 115.732C-78.3167 138.073 9.38862 168.189 14.1422 172.194C75.196 213.748 88.9316 143.581 118.086 159.219Z" fill="#9FABDE"/>
<path d="M27.6337 139.554C24.414 123.236 87.2421 114.882 87.0421 103.26C86.5631 75.4152 123.924 94.7154 132.361 85.7766C139.017 79.6402 165.336 21.0307 174.569 27.7801C186.11 36.2168 187.692 49.433 180.607 73.0709C173.522 96.7088 146.368 82.8589 131.934 118.136C117.501 153.412 109.352 113.449 78.3685 166.426C70.8595 179.265 32.1331 148.929 27.6337 139.554Z" fill="#A8A4D0"/>
<path d="M118.34 141.01C150.597 143.916 193.588 142.51 169.804 123.151C161.74 120.408 150.198 111.386 168.539 97.245C191.465 79.5683 224.587 15.9392 136.585 65.0275C120.757 73.8562 96.5077 72.325 53.8003 80.7005C-13.8427 93.9662 -97.7022 115.596 -39.2837 117.402C56.0183 120.348 6.45812 139.567 -13.0711 153.729C-32.6002 167.89 68.0807 134.854 118.34 141.01Z" fill="#9DB1D2"/>
<path d="M60.0551 153.08C82.1642 193.414 115.632 234.834 112.387 164.864C108.389 150.069 106.531 116.985 131.078 103.013C161.762 85.5473 234.977 -28.694 131.426 -5.49944C112.802 -1.32778 95.6857 -30.1229 57.1458 -54.9623C-3.89632 -94.3047 -83.5031 -130.967 -40.8428 -65.9976C28.7518 39.9911 -23.1756 33.3633 -48.6337 46.1473C-74.0919 58.9313 26.8436 86.4296 60.0551 153.08Z" fill="#9BB8E8"/>
<path d="M91.041 46.7532C121.015 24.7209 155.259 -8.57052 114.553 -5.14007C104.881 -1.13332 85.5295 0.809793 85.5047 -23.4717C85.4736 -53.8237 44.2653 -126.024 24.1068 -23.4834C20.4812 -5.04086 -1.34624 12.0081 -27.8223 50.2745C-69.7568 110.883 -116.143 189.88 -65.5945 147.408C16.869 78.1195 -3.58974 129.596 -4.53151 154.784C-5.47327 179.972 42.5788 79.8678 91.041 46.7532Z" fill="#8B9BE2"/>
<path d="M35.3331 91.8597C43.1066 97.3701 62.1388 101.959 76.0794 76.2314C93.505 44.0718 83.0341 18.3411 102.952 -33.397C122.869 -85.1351 59.6729 -32.3014 49.6343 -13.682C39.5958 4.9374 18.5288 8.05169 -13.9437 37.4409C-46.4163 66.8301 -20.4602 104.718 -20.2643 109.837C-12.7033 162.815 29.5767 71.9944 35.3331 91.8597Z" fill="#A8A4D0"/>
</g>
</svg>
