<svg width="95" height="100" viewBox="0 0 95 100" fill="none" xmlns="http://www.w3.org/2000/svg">
<mask id="mask0" mask-type="alpha" maskUnits="userSpaceOnUse" x="25" y="16" width="45" height="73">
<path d="M69.3334 44.76C69.3334 49.72 68.3201 54.44 66.2934 58.92C64.2668 63.3467 61.3601 67.16 57.5734 70.36L65.9734 83.8L57.8134 88.76H55.4134L63.4934 83.8L55.0934 70.36C58.8801 67.16 61.7868 63.3467 63.8134 58.92C65.8934 54.44 66.9334 49.72 66.9334 44.76C66.9334 41.8267 66.5601 38.9733 65.8134 36.2C65.1201 33.4267 64.1068 30.8133 62.7734 28.36C61.4401 25.9067 59.7868 23.64 57.8134 21.56C55.8401 19.4267 53.6268 17.5867 51.1734 16.04H53.6534C56.1068 17.5867 58.2934 19.4267 60.2134 21.56C62.1868 23.64 63.8401 25.9333 65.1734 28.44C66.5068 30.8933 67.5201 33.5067 68.2134 36.28C68.9601 39.0533 69.3334 41.88 69.3334 44.76ZM61.4134 44.76C61.4134 49.72 60.2134 54.3333 57.8134 58.6C55.4134 62.8667 52.1334 66.3333 47.9734 69L56.5334 83L51.4134 86.12L42.5334 71.64C41.4134 72.0667 39.9468 72.4933 38.1334 72.92C36.3734 73.2933 34.7468 73.48 33.2534 73.48C32.9868 73.48 32.7201 73.48 32.4534 73.48C32.1868 73.4267 31.9201 73.3733 31.6534 73.32V85H25.6534V16.04H32.7734C36.7734 16.04 40.5068 16.7867 43.9734 18.28C47.4401 19.7733 50.4534 21.8267 53.0134 24.44C55.6268 27.0533 57.6801 30.0933 59.1734 33.56C60.6668 37.0267 61.4134 40.76 61.4134 44.76ZM40.2934 78.44C39.9734 78.44 39.7601 78.4667 39.6534 78.52V85H37.1734V78.52L40.0534 78.04L40.2934 78.44ZM55.4134 44.76C55.4134 41.6667 54.8268 38.7333 53.6534 35.96C52.4801 33.1867 50.8534 30.7867 48.7734 28.76C46.7468 26.68 44.3468 25.0533 41.5734 23.88C38.8534 22.6533 35.9201 22.04 32.7734 22.04H31.6534V67.32H32.7734C35.8668 67.32 38.8001 66.7333 41.5734 65.56C44.3468 64.3867 46.7468 62.7867 48.7734 60.76C50.8001 58.68 52.4001 56.28 53.5734 53.56C54.8001 50.84 55.4134 47.9067 55.4134 44.76ZM39.6534 60.44C39.2268 60.6 38.8001 60.76 38.3734 60.92C38.0001 61.0267 37.6268 61.16 37.2534 61.32V28.2C38.1601 28.4667 39.0401 28.8133 39.8934 29.24C40.8001 29.6133 41.6801 30.0133 42.5334 30.44L39.6534 60.44Z" fill="#E01414"/>
</mask>
<g mask="url(#mask0)">
<path d="M-61.4527 32.1378C-38.0331 -0.422324 38.4229 -7.00506 56.3846 -26.5277C99.4178 -73.3005 116.984 -50.8529 136.058 -50.8139C149.681 -49.2736 175.714 -39.365 170.864 -12.0531C164.801 22.0869 145.205 46.66 104.088 73.239C62.9703 99.818 27.5745 87.8559 -36.1515 120.757C-99.8775 153.659 -95.406 115.212 -109.44 108.185C-135.503 95.1345 -73.2862 55.4875 -61.4527 32.1378Z" fill="#8B9BE2"/>
<path d="M80.0826 79.3578C104.661 75.3067 157.804 63.809 173.746 50.2268C193.673 33.2491 146.101 35.4579 157.043 13.3949C167.985 -8.6681 45.3087 41.586 33.9022 51.383C22.4956 61.1801 -29.8544 75.3606 -91.119 101.581C-152.384 127.801 -54.9176 117.731 -50.3631 118.513C11.1667 123.02 49.4106 79.5574 80.0826 79.3578Z" fill="#9FABDE"/>
<path d="M-23.9324 96.1153C-22.8421 87.976 56.1617 64.0233 59.4849 57.5839C67.4469 42.156 106.979 41.4865 119.988 33.8975C129.969 28.4226 179.976 -12.437 189.138 -11.495C200.59 -10.3176 198.459 -3.4105 182.585 11.9853C166.712 27.3812 137.925 27.9671 109.539 52.1282C81.1523 76.2893 83.5022 56.4365 29.5482 95.577C16.4724 105.063 -21.3351 99.9785 -23.9324 96.1153Z" fill="#A8A4D0"/>
<path d="M85.9788 69.0952C124.334 60.8215 177.07 46.8426 154.074 43.3126C145.105 44.2528 133.83 42.7488 160.484 29.2106C193.802 12.2879 253.627 -33.467 131.494 20.9956C109.528 30.791 80.4945 37.376 25.9639 55.1665C-60.4055 83.3444 -169.072 121.177 -98.5503 104.26C16.4956 76.6627 -49.7 102.621 -77.8061 116.535C-105.912 130.45 26.7202 81.0745 85.9788 69.0952Z" fill="#9DB1D2"/>
<path d="M11.3628 93.7316C25.8847 109.508 53.8931 122.405 71.4166 84.2639C71.0931 77.2151 78.9844 59.2803 113.138 43.9321C155.829 24.7468 279.965 -61.6212 146.86 -16.8703C122.921 -8.82167 110.933 -19.6757 71.6654 -21.7427C9.47103 -25.0165 -76.1328 -21.0942 -44.1669 2.15476C7.98105 40.0823 -53.163 52.3101 -88.06 67.2732C-122.957 82.2363 -8.5912 66.643 11.3628 93.7316Z" fill="#9BB8E8"/>
<path d="M81.6908 24.7499C124.92 3.22791 176.799 -25.9018 126.221 -11.4915C113.224 -6.28216 89.0839 0.742986 96.505 -12.8311C105.781 -29.7988 77.8011 -57.5381 21.8082 6.00366C11.7376 17.432 -20.0508 33.6664 -64.006 63.1953C-133.625 109.965 -214.304 168.386 -139.77 129.118C-18.1768 65.0557 -58.8649 100.127 -67.7401 114.505C-76.6154 128.883 12.5667 58.144 81.6908 24.7499Z" fill="#8B9BE2"/>
<path d="M0.0712335 67.0752C7.838 67.772 29.5855 64.4983 54.4415 45.8297C85.5115 22.494 80.668 11.3149 120.778 -23.7367C160.888 -58.7882 67.7861 -9.84281 49.8588 3.65241C31.9315 17.1476 5.34451 25.3544 -43.1823 51.7581C-91.7091 78.1617 -71.7559 91.3886 -73.0886 94.192C-80.147 121.505 -0.836169 57.7301 0.0712335 67.0752Z" fill="#A8A4D0"/>
</g>
</svg>
