<svg width="95" height="100" viewBox="0 0 95 100" fill="none" xmlns="http://www.w3.org/2000/svg">
<mask id="mask0" mask-type="alpha" maskUnits="userSpaceOnUse" x="28" y="16" width="39" height="70">
<path d="M60.8138 27.56C59.9604 27.56 59.1338 27.64 58.3338 27.8V16.04H60.8138V27.56ZM66.0138 68.28C66.0138 75.1067 63.4538 80.7067 58.3338 85.08H55.9338C61.0538 80.7067 63.6138 75.1067 63.6138 68.28C63.6138 65.4 63.1604 62.84 62.2538 60.6C61.3471 58.3067 60.2004 56.2533 58.8138 54.44C57.4271 52.5733 55.9338 50.8667 54.3338 49.32C52.7871 47.7733 51.3204 46.28 49.9338 44.84C48.5471 43.3467 47.4004 41.8533 46.4938 40.36C45.5871 38.8667 45.1338 37.24 45.1338 35.48C45.1338 33.08 45.9071 31.16 47.4538 29.72C49.0538 28.28 51.0271 27.56 53.3738 27.56H56.0138V27.88C53.7204 28.4667 52.0671 29.5067 51.0538 31C50.0404 32.4933 49.5338 34.3867 49.5338 36.68C49.5338 37.7467 49.7471 38.76 50.1738 39.72C50.6538 40.68 51.2404 41.56 51.9338 42.36L61.1338 53.24C62.9471 55.3733 64.2004 57.7467 64.8938 60.36C65.6404 62.92 66.0138 65.56 66.0138 68.28ZM58.1738 68.28C58.1738 70.5733 57.7204 72.7333 56.8138 74.76C55.9604 76.7867 54.7604 78.5733 53.2138 80.12C51.7204 81.6133 49.9604 82.8133 47.9338 83.72C45.9071 84.5733 43.7471 85 41.4538 85C36.4938 85 32.3338 83.16 28.9738 79.48L33.5338 75.4C35.6671 77.8 38.3071 79 41.4538 79C42.9471 79 44.3338 78.7333 45.6138 78.2C46.8938 77.6133 48.0138 76.84 48.9738 75.88C49.9338 74.92 50.6804 73.8 51.2138 72.52C51.8004 71.1867 52.0938 69.7733 52.0938 68.28C52.0938 65.4533 51.1604 63.0267 49.2938 61L39.3738 50.04C37.5071 48.0133 36.0671 45.7733 35.0538 43.32C34.0938 40.8667 33.6138 38.2533 33.6138 35.48C33.6138 32.7067 34.1204 30.1467 35.1338 27.8C36.2004 25.4 37.6138 23.3467 39.3738 21.64C41.1871 19.88 43.2938 18.52 45.6938 17.56C48.1471 16.5467 50.7338 16.04 53.4538 16.04V22.04C51.5338 22.04 49.7204 22.3867 48.0138 23.08C46.3604 23.72 44.8938 24.6533 43.6138 25.88C42.3871 27.0533 41.4004 28.4667 40.6538 30.12C39.9604 31.7733 39.6138 33.56 39.6138 35.48C39.6138 37.8267 40.0671 39.9333 40.9738 41.8C41.8804 43.6133 43.0271 45.3467 44.4138 47C45.8004 48.6 47.2938 50.1467 48.8938 51.64C50.4938 53.1333 51.9871 54.7067 53.3738 56.36C54.7604 58.0133 55.9071 59.8 56.8138 61.72C57.7204 63.64 58.1738 65.8267 58.1738 68.28Z" fill="#E01414"/>
</mask>
<g mask="url(#mask0)">
<path d="M29.2364 -25.7122C71.2554 -21.0753 87.3422 48.536 112.951 55.0693C174.306 70.7219 148.906 99.8052 150.877 118.09C150.449 131.975 141.172 162.315 107.491 172.592C65.3911 185.438 33.4759 180.098 -3.1532 155.248C-39.7823 130.398 -29.0025 89.9711 -75.7024 46.9269C-122.402 3.8826 -75.24 -12.8395 -68.1922 -30.116C-55.1033 -62.201 -0.371474 -24.2869 29.2364 -25.7122Z" fill="#8B9BE2"/>
<path d="M-13.1246 135.606C-5.60347 156.927 13.9842 201.53 32.1655 209.375C54.8922 219.181 47.1742 174.836 75.1251 173.26C103.076 171.684 29.0635 81.6745 15.9589 76.1047C2.8543 70.535 -19.9074 28.1562 -58.2332 -16.1814C-96.5589 -60.5189 -74.0139 27.3049 -74.4808 32.0928C-73.4415 93.4706 -16.6137 106.346 -13.1246 135.606Z" fill="#9FABDE"/>
<path d="M-44.4847 45.165C-34.4852 41.7624 2.96481 104.324 11.1365 103.988C30.7145 103.184 35.712 140.671 46.3049 148.98C54.0099 155.547 108.922 181.107 108.748 190.395C108.53 202.004 99.9168 203.736 79.5403 196.948C59.1638 190.159 55.4051 162.916 23.0599 148.935C-9.28534 134.954 15.0721 126.358 -38.1702 96.0791C-51.0735 88.741 -48.9013 49.7623 -44.4847 45.165Z" fill="#A8A4D0"/>
<path d="M-0.0378714 135.645C14.0694 167.85 36.6271 210.709 38.4797 186.762C36.3885 178.687 37.0215 167.07 56.2832 185.196C80.3604 207.853 142.256 240.14 63.1908 152.95C48.9704 137.268 37.9004 113.065 10.5241 70.5707C-32.8366 3.26471 -90.2815 -80.1162 -62.2736 -21.8331C-16.5825 73.2481 -55.1126 24.0463 -74.9847 4.73571C-94.8568 -14.5749 -20.8578 85.4484 -0.0378714 135.645Z" fill="#9BB8E8"/>
<path d="M-37.854 77.6582C-55.4747 100.182 -68.1727 134.046 -19.9999 129.988C-11.4742 125.828 11.1405 123.586 33.3941 147.903C61.211 178.3 179.234 249.978 110.8 146.976C98.4923 128.451 110.404 111.043 108.758 72.3149C106.15 10.9746 92.3258 -68.8491 67.4765 -25.5406C26.9383 45.1115 5.61701 -6.75446 -16.2476 -31.9943C-38.1122 -57.2342 -7.07045 43.7535 -37.854 77.6582Z" fill="#A8A4D0"/>
<path d="M53.3598 107.313C84.0713 136.949 124.937 170.71 102.084 130.153C94.3819 120.554 83.2956 101.277 100.565 100.967C122.152 100.58 152.876 58.6349 69.786 39.734C54.8418 36.3346 31.7623 14.7657 -8.74939 -11.1902C-72.9146 -52.301 -152.4 -97.6359 -96.8231 -47.7211C-6.15759 33.7081 -53.0541 13.9084 -71.4535 13.2648C-89.8528 12.6212 5.48998 59.3695 53.3598 107.313Z" fill="#8B9BE2"/>
<path d="M-6.67828 52.2839C-6.70225 60.1013 -0.424833 79.1364 24.8768 92.7376C56.5038 109.739 69.5667 98.9942 116.378 118.251C163.189 137.508 93.8965 75.1012 75.6106 65.3081C57.3248 55.515 44.5444 34.541 7.34404 2.50045C-29.8564 -29.5401 -43.8067 -3.20885 -47.3522 -2.95339C-81.2672 5.20915 4.57407 46.3099 -6.67828 52.2839Z" fill="#9BB8E8"/>
</g>
</svg>
