<svg width="107" height="100" viewBox="0 0 107 100" fill="none" xmlns="http://www.w3.org/2000/svg">
<mask id="mask0" mask-type="alpha" maskUnits="userSpaceOnUse" x="0" y="10" width="107" height="80">
<path d="M80.9969 85H78.5969L103.957 15.96H106.357L80.9969 85ZM71.1569 55.88L57.3169 15.96H64.0369L72.4369 52.36L71.1569 55.88ZM70.9169 89.24L49.3969 28.2L27.7969 89.24L0.676875 15.96H7.15688L27.7169 71.88L49.3969 10.04L70.9969 71.88L91.6369 15.96H98.1169L70.9169 89.24ZM27.6369 55.88L12.9169 15.96H19.5569L28.7569 52.36L27.6369 55.88ZM37.5569 85H35.0769L49.3969 44.6L50.5969 48.12L37.5569 85Z" fill="#E01414"/>
</mask>
<g mask="url(#mask0)">
<path d="M0.24658 11.9088C29.3317 -7.555 92.0444 13.1288 112.589 2.80399C161.812 -21.9324 168.474 3.05832 183.575 9.63847C193.872 15.6156 211.297 32.9211 198.624 54.326C182.782 81.0821 159.309 95.1119 118.133 103.449C76.9582 111.785 52.7779 89.5315 -8.35666 95.448C-69.4912 101.365 -53.5174 70.4243 -62.3661 59.6715C-78.7994 39.7021 -16.6797 27.5697 0.24658 11.9088Z" fill="#8B9BE2"/>
<path d="M97.1333 100.377C117.919 105.392 163.747 113.922 180.771 107.922C202.051 100.421 163.64 85.9574 179.444 71.0773C195.248 56.1971 81.7905 56.536 69.5843 60.896C57.3781 65.2559 11.3108 59.2643 -45.7132 60.3822C-102.737 61.5001 -22.2487 86.4505 -18.8923 88.6739C28.4071 113.602 72.764 90.0174 97.1333 100.377Z" fill="#9FABDE"/>
<path d="M9.2931 78.8282C12.7886 72.3273 83.1361 79.2137 87.8515 74.9152C99.1487 64.6167 130.691 77.6209 143.453 75.6759C153.132 74.4775 205.969 57.1298 212.924 61.0704C221.618 65.996 217.696 71.0986 200.14 78.6544C182.584 86.2101 159.583 76.8237 129.278 87.4882C98.9731 98.1526 107.254 82.1901 51.8456 96.7311C38.4173 100.255 10.1021 82.9829 9.2931 78.8282Z" fill="#A8A4D0"/>
<path d="M105.124 93.7325C138.191 99.9095 184.5 106.204 167.419 95.3288C160.008 93.0443 151.56 87.9037 177.058 85.6176C208.93 82.7599 271.129 64.6471 156.742 68.7275C136.169 69.4614 111.033 65.0576 62.0708 61.3668C-15.4794 55.5211 -113.819 50.1768 -52.468 60.0946C47.6179 76.274 -13.2288 75.4784 -39.9991 77.5838C-66.7693 79.6891 54.2936 83.5102 105.124 93.7325Z" fill="#9BB8E8"/>
<path d="M38.0319 88.9297C44.4385 107.24 62.4626 127.748 88.6801 101.546C90.7028 95.4814 102.755 83.0411 134.78 81.8002C174.812 80.2491 301.103 49.9067 181.161 42.0175C159.588 40.5986 153.598 27.3156 123.151 12.0909C74.9261 -12.023 5.82477 -38.094 23.638 -7.48376C52.6979 42.4528 0.293372 31.7932 -32.1971 32.4535C-64.6875 33.1138 30.9784 59.1993 38.0319 88.9297Z" fill="#A8A4D0"/>
<path d="M116.063 54.8036C157.277 51.4634 207.805 44.666 163.067 39.4768C151.083 39.4155 129.683 37.0633 139.953 28.145C152.789 16.997 139.586 -16.038 74.6728 18.4141C62.9978 24.6105 32.5595 27.4117 -11.8181 37.2661C-82.1065 52.8741 -164.925 74.5275 -93.1675 66.9426C23.8959 54.5687 -19.6849 70.2261 -31.3663 79.3241C-43.0477 88.4221 50.4919 59.2835 116.063 54.8036Z" fill="#8B9BE2"/>
<path d="M37.7029 62.5381C43.6321 65.7926 61.9234 70.4924 87.6553 63.2555C119.82 54.2094 119.597 43.1042 162.713 27.265C205.829 11.4259 116.23 20.8111 97.6606 26.0564C79.0916 31.3018 55.3705 29.1078 8.38073 34.7531C-38.609 40.3984 -27.0745 58.4199 -29.0369 60.3304C-43.4607 80.978 40.0053 54.3331 37.7029 62.5381Z" fill="#9BB8E8"/>
</g>
</svg>
