<svg width="95" height="100" viewBox="0 0 95 100" fill="none" xmlns="http://www.w3.org/2000/svg">
<mask id="mask0" mask-type="alpha" maskUnits="userSpaceOnUse" x="10" y="16" width="75" height="70">
<path d="M46.2106 85.08H43.8106L81.8106 16.04H84.2106L46.2106 85.08ZM48.5306 41.48L26.0506 16.04H32.6906L49.3306 39.8L48.5306 41.48ZM37.7306 85H30.7706L46.3706 56.6L10.7706 16.04H18.8506L49.4906 50.92L68.6106 16.04H75.4906L37.7306 85Z" fill="#E01414"/>
</mask>
<g mask="url(#mask0)">
<path d="M22.3417 -87.3982C33.1923 -128.206 53.1659 -86.1155 60.6435 -107.832C78.5585 -159.862 79.4352 -108.066 84.1576 -94.6091C87.296 -82.3392 92.2145 -46.6455 86.7804 -2.03049C79.9878 53.7383 71.3225 83.1877 57.0112 101.058C42.7 118.928 35.7787 73.0523 14.8831 86.1694C-6.01242 99.2865 1.05306 34.8284 -1.33722 12.6233C-5.77632 -28.6147 15.7903 -54.6511 22.3417 -87.3982Z" fill="#9BB8E8"/>
<path d="M50.1123 94.9662C56.833 105.095 71.7886 122.181 77.8451 109.491C85.4158 93.6283 73.2803 64.1208 79.4113 33.0103C85.5423 1.89969 47.3441 4.14883 42.9985 13.3675C38.6528 22.5861 23.478 10.7736 4.22782 13.8713C-15.0224 16.9691 10.6999 67.6766 11.7078 72.2473C26.2628 123.36 42.4777 73.7884 50.1123 94.9662Z" fill="#9FABDE"/>
<path d="M21.7303 51.4216C23.2617 37.8764 46.5581 51.2163 48.3797 42.2271C52.7439 20.6907 62.6478 47.2615 67.0485 43.0493C70.3712 40.4292 89.0989 3.69089 91.2242 11.7778C93.8808 21.8864 92.2822 32.5342 85.9617 48.4611C79.6411 64.3881 72.414 45.2127 61.6334 67.7678C50.8529 90.3229 54.5114 57.0676 35.0717 88.0133C30.3604 95.513 21.7756 60.0369 21.7303 51.4216Z" fill="#A8A4D0"/>
<path d="M53.1641 81.0617C63.9543 93.4364 79.1936 105.875 74.0399 83.5275C71.6707 78.8852 69.1087 68.3271 77.8139 63.2331C88.6955 56.8656 110.615 18.4113 71.9001 28.4415C64.937 30.2455 56.7191 21.4444 40.4444 14.4482C14.6674 3.36715 -18.1329 -6.38948 1.97051 13.3668C34.7666 45.5965 14.3345 44.7735 5.21107 49.5094C-3.91239 54.2453 36.6177 60.5299 53.1641 81.0617Z" fill="#9BB8E8"/>
<path d="M30.8494 72.0038C32.0051 109.934 36.95 152.269 47.2038 97.5097C48.2158 84.8895 52.9509 58.8959 63.7956 55.8832C77.3515 52.1173 121.507 -12.6021 81.5762 -27.3485C74.3945 -30.0007 73.1044 -57.4982 63.6902 -88.6941C48.7793 -138.104 26.9503 -191.294 31.2725 -127.981C38.3235 -24.6949 21.2712 -46.1132 10.3018 -44.2997C-0.667641 -42.4862 30.0999 10.3714 30.8494 72.0038Z" fill="#A8A4D0"/>
<path d="M58.9719 0.085843C73.0233 -7.41064 90.3975 -22.2121 75.6264 -32.3769C71.5971 -32.341 64.5243 -36.9333 68.4672 -55.5901C73.3958 -78.9112 70.7574 -147.321 47.0315 -74.9049C42.7642 -61.8804 32.3684 -55.6497 16.8966 -34.5849C-7.60871 -1.22098 -36.6609 44.8657 -12.0993 28.1398C27.9695 0.853661 12.4489 33.9564 8.02099 53.0054C3.59309 72.0545 36.6618 10.2806 58.9719 0.085843Z" fill="#8B9BE2"/>
<path d="M32.1804 17.2116C33.9978 23.888 39.8963 33.397 48.9507 18.0207C60.2686 -1.19964 60.8 -24.2541 76.1742 -57.7279C91.5485 -91.2016 60.8848 -70.4949 54.3496 -59.3511C47.8144 -48.2073 39.9519 -52.4397 23.831 -40.0784C7.71009 -27.7172 10.6071 9.54335 9.8424 13.5368C3.86074 56.6033 33.4033 0.144342 32.1804 17.2116Z" fill="#8B9BE2"/>
</g>
</svg>
