<svg width="95" height="100" viewBox="0 0 95 100" fill="none" xmlns="http://www.w3.org/2000/svg">
<mask id="mask0" mask-type="alpha" maskUnits="userSpaceOnUse" x="16" y="16" width="63" height="70">
<path d="M40.2356 73.48H37.8356L76.1556 16.04H78.6356L40.2356 73.48ZM46.4756 29H20.6356V27.4H47.5156L46.4756 29ZM73.2756 85.08V73.48H75.7556V85.08H73.2756ZM27.6756 79H68.3956V85H16.3956L58.3156 22.04H20.3156V16.04H69.5956L27.6756 79Z" fill="#E01414"/>
</mask>
<g mask="url(#mask0)">
<path d="M94.274 41.8775C97.5294 76.7226 49.4653 122.006 48.7544 144.988C47.0514 200.05 21.9053 194.001 8.925 204.143C-1.23595 210.348 -24.7531 217.424 -37.5343 196.083C-53.5107 169.407 -54.6623 142.085 -42.3745 101.911C-30.0868 61.7378 0.999538 51.0809 24.9246 -5.48792C48.8496 -62.0567 68.442 -33.2713 82.1117 -35.9281C107.498 -40.8622 88.5691 19.5342 94.274 41.8775Z" fill="#9BB8E8"/>
<path d="M-29.6687 84.9112C-43.9811 100.797 -73.3147 137.026 -76.1501 154.852C-79.6944 177.135 -48.6773 150.255 -43.1241 171.239C-37.5709 192.224 16.1868 92.3093 18.169 79.5003C20.1512 66.6913 47.3673 29.0431 73.5529 -21.6254C99.7385 -72.2939 39.4541 -13.4151 35.9001 -11.5235C-8.55182 18.1859 -8.94979 68.4213 -29.6687 84.9112Z" fill="#9FABDE"/>
<path d="M31.1279 17.9481C35.1781 24.1186 -4.39278 82.6877 -2.86008 88.8815C0.812024 103.721 -25.6494 125.257 -30.0196 137.404C-33.5775 146.485 -43.4987 201.205 -50.2771 205.443C-58.75 210.74 -61.3676 204.86 -59.6463 185.825C-57.9249 166.79 -38.714 151.04 -33.6517 119.314C-28.5893 87.5885 -18.5003 102.474 -4.88611 46.8309C-1.58669 33.3457 27.0896 16.6799 31.1279 17.9481Z" fill="#A8A4D0"/>
<path d="M-27.6335 95.1022C-48.8192 121.233 -76.4163 158.948 -58.7169 149.112C-53.1774 143.685 -44.6328 138.706 -54.7711 162.213C-67.444 191.598 -81.1531 254.913 -30.242 152.399C-21.0854 133.961 -5.23792 113.96 21.3347 72.67C63.4223 7.27242 114.974 -76.6423 77.0241 -27.4272C15.1141 52.8605 44.8033 -0.257295 55.7067 -24.797C66.6101 -49.3366 5.57142 55.2822 -27.6335 95.1022Z" fill="#9BB8E8"/>
<path d="M8.55409 38.4027C-10.5968 35.3117 -37.2154 41.3876 -26.6695 76.9219C-22.3007 81.5898 -17.105 98.1128 -31.2723 126.861C-48.9814 162.797 -82.4738 288.288 -18.3925 186.593C-6.8671 168.303 7.6652 169.365 35.5573 149.849C79.7346 118.938 135.579 70.605 100.179 71.6826C42.4295 73.4406 76.769 32.4448 91.6682 3.56432C106.567 -25.3161 38.0538 46.3659 8.55409 38.4027Z" fill="#A8A4D0"/>
<path d="M1.38107 123.268C-15.3182 161.095 -33.4151 208.757 -7.53801 171.896C-1.77464 161.389 10.4892 143.695 13.4376 156.973C17.1232 173.57 52.4583 177.701 53.095 104.214C53.2095 90.9973 65.2486 62.9012 77.7279 19.189C97.4933 -50.0453 117.914 -133.177 90.3941 -66.473C45.4997 42.3453 52.4972 -3.43095 50.0636 -18.036C47.6301 -32.641 28.6831 63.4825 1.38107 123.268Z" fill="#8B9BE2"/>
<path d="M31.9148 50.6876C26.2285 54.35 13.3817 68.1927 7.48469 94.2644C0.113459 126.854 9.98382 131.948 3.3675 177.403C-3.24882 222.857 31.1883 139.609 35.4235 120.784C39.6587 101.959 52.8894 82.1486 70.3138 38.1453C87.7382 -5.85814 66.398 -4.30302 65.6532 -6.9386C54.3718 -29.4575 38.0317 56.6211 31.9148 50.6876Z" fill="#8B9BE2"/>
</g>
</svg>
